<?xml version="1.0" encoding="UTF-8" standalone="yes"?>
<svg xmlns="http://www.w3.org/2000/svg" xmlns:xlink="http://www.w3.org/1999/xlink" width="392.674pt" height="189.242pt" version="1.1" viewBox="-62.737 602.865 392.674 189.242">
  <!--
	Exported with Concepts: Smarter Sketching
	Version: 2024.09.6 on Android 13
	https://concepts.app/
	-->
  <title>Digitizing Forms</title>
  <desc>Drawing exported from Concepts: Smarter Sketching</desc>
  <defs></defs>
  <g id="MANUAL" opacity="1.000">
    <path id="STROKE_f3fde3ed-d68b-43ec-877c-ba123b7a0223" opacity="1.000" fill="none" stroke="#000000" stroke-width="0.971" stroke-opacity="1.000" stroke-linecap="round" stroke-linejoin="round" d="M -46.864 650.777 Q -46.290 650.448 -42.498 648.835 Q -38.706 647.223 -34.268 645.278 Q -29.829 643.333 -27.540 642.436 Q -25.252 641.539 -23.777 640.913 Q -22.302 640.287 -17.677 638.323 Q -13.052 636.359 -10.543 635.293 Q -8.035 634.227 -6.887 633.785 Q -5.738 633.343 -5.268 633.148 Q -4.797 632.952 -4.325 632.761 Q -3.854 632.569 -2.879 632.188 Q -1.904 631.807 -1.431 631.635 Q -0.958 631.463 2.589 630.038 Q 6.136 628.612 11.697 625.913 Q 17.259 623.215 19.966 621.981 Q 22.674 620.748 24.114 619.939 Q 25.554 619.131 26.980 618.456 Q 28.406 617.782 29.269 617.483 Q 30.133 617.184 31.022 616.731 Q 31.911 616.278 32.135 616.024 Q 32.360 615.771 32.636 615.572 Q 32.912 615.374 32.905 615.385 Q 32.897 615.395 32.961 615.352 Q 33.024 615.308 32.838 615.409 Q 32.651 615.511 34.762 614.321 Q 34.746 614.337 34.729 614.352 "></path>
    <path id="STROKE_6203382d-88e4-4552-9d63-9e4051f3ee41" opacity="1.000" fill="none" stroke="#000000" stroke-width="0.971" stroke-opacity="1.000" stroke-linecap="round" stroke-linejoin="round" d="M -46.681 652.238 Q -45.715 653.235 -44.911 654.070 Q -44.108 654.904 -42.831 657.946 Q -41.555 660.988 -40.385 663.339 Q -39.215 665.691 -38.367 667.090 Q -37.519 668.488 -36.014 671.236 Q -34.509 673.983 -33.580 676.039 Q -32.650 678.095 -30.854 682.720 Q -29.057 687.345 -28.096 689.690 Q -27.135 692.035 -25.780 694.726 Q -24.426 697.418 -23.332 699.738 Q -22.238 702.057 -21.217 703.706 Q -20.195 705.355 -19.094 707.337 Q -17.992 709.319 -17.247 710.891 Q -16.503 712.462 -15.797 714.390 Q -15.092 716.318 -13.762 718.957 Q -12.433 721.596 -11.741 723.320 Q -11.050 725.045 -10.216 726.993 Q -9.382 728.942 -7.308 733.737 Q -5.233 738.533 -4.123 741.094 Q -3.013 743.655 -2.277 745.514 Q -1.541 747.372 -0.773 749.209 Q -0.004 751.046 0.431 752.241 Q 0.866 753.435 1.389 754.665 Q 1.912 755.895 2.426 757.125 Q 2.940 758.356 4.010 760.439 Q 5.079 762.522 5.935 764.095 Q 6.790 765.667 7.167 766.541 Q 7.544 767.415 7.949 768.235 Q 8.353 769.055 9.234 770.600 Q 10.115 772.145 11.309 774.500 Q 12.504 776.855 13.070 778.278 Q 13.636 779.701 15.025 782.284 Q 15.341 782.176 15.336 782.164 "></path>
    <path id="STROKE_a5d2f3f7-1a79-468b-85e2-59488a01af58" opacity="1.000" fill="none" stroke="#000000" stroke-width="0.971" stroke-opacity="1.000" stroke-linecap="round" stroke-linejoin="round" d="M 36.589 612.757 Q 37.074 612.951 38.847 614.869 Q 40.621 616.787 41.483 618.127 Q 42.346 619.466 42.854 620.531 Q 43.362 621.595 43.637 622.265 Q 43.912 622.935 44.599 624.382 Q 45.286 625.828 47.089 629.834 Q 48.892 633.840 50.236 637.306 Q 51.580 640.773 52.845 643.728 Q 54.111 646.684 55.094 648.451 Q 56.077 650.219 56.743 651.378 Q 57.409 652.536 58.635 654.754 Q 59.860 656.972 61.206 659.218 Q 62.552 661.464 64.056 664.049 Q 65.560 666.635 66.515 668.538 Q 67.470 670.441 68.222 672.018 Q 68.975 673.595 69.636 675.296 Q 70.296 676.997 71.112 679.134 Q 71.928 681.270 72.830 682.979 Q 73.732 684.688 75.711 688.953 Q 77.690 693.217 78.697 695.569 Q 79.703 697.921 80.307 699.598 Q 80.910 701.275 82.918 706.007 Q 84.926 710.739 86.180 713.325 Q 87.434 715.911 88.328 717.453 Q 89.222 718.994 89.797 720.769 Q 90.372 722.543 90.934 723.811 Q 91.497 725.079 92.153 726.286 Q 92.809 727.493 93.243 728.615 Q 93.678 729.737 94.472 731.455 Q 95.266 733.172 95.799 734.305 Q 96.333 735.438 96.615 736.216 Q 96.898 736.994 97.065 737.297 Q 97.233 737.599 97.224 737.585 Q 97.214 737.572 97.421 737.853 Q 97.627 738.134 97.639 738.162 Q 97.650 738.190 97.656 738.213 Q 97.662 738.236 97.708 738.201 Q 97.754 738.166 97.550 738.962 "></path>
    <path id="STROKE_060a9e4f-aaf8-4faf-92d4-7ff767b51cf0" opacity="1.000" fill="none" stroke="#000000" stroke-width="0.971" stroke-opacity="1.000" stroke-linecap="round" stroke-linejoin="round" d="M 15.561 784.404 Q 16.336 784.371 19.026 783.156 Q 21.715 781.941 23.392 781.301 Q 25.068 780.661 27.875 779.586 Q 30.681 778.511 34.523 776.720 Q 38.364 774.929 40.243 774.120 Q 42.122 773.311 45.932 771.601 Q 49.742 769.891 51.714 768.843 Q 53.686 767.795 55.452 767.123 Q 57.218 766.451 62.004 764.069 Q 66.790 761.687 69.598 760.355 Q 72.405 759.022 73.810 758.474 Q 75.214 757.927 76.621 757.350 Q 78.028 756.773 78.805 756.482 Q 79.583 756.191 80.772 755.611 Q 81.960 755.031 82.601 754.633 Q 83.241 754.234 84.528 753.582 Q 85.815 752.930 87.386 752.136 Q 88.958 751.342 89.789 750.914 Q 90.621 750.487 91.410 749.949 Q 92.200 749.411 93.993 748.915 Q 95.786 748.419 96.688 748.156 Q 97.589 747.894 98.118 747.637 Q 98.646 747.381 100.798 746.243 "></path>
    <path id="STROKE_822a4fda-6590-4ce8-81c2-2461e3f9a91c" opacity="1.000" fill="none" stroke="#000000" stroke-width="0.971" stroke-opacity="1.000" stroke-linecap="round" stroke-linejoin="round" d="M 97.249 739.309 Q 97.458 739.707 98.045 740.547 Q 98.632 741.387 99.515 742.280 Q 100.398 743.174 100.951 743.853 Q 101.505 744.532 101.828 744.990 Q 102.151 745.448 102.585 746.004 "></path>
    <path id="STROKE_3c74127b-ca0d-48db-987d-457874656cba" opacity="1.000" fill="none" stroke="#000000" stroke-width="0.971" stroke-opacity="1.000" stroke-linecap="round" stroke-linejoin="round" d="M -27.294 668.631 Q -27.300 668.559 -27.791 668.340 Q -28.283 668.122 -28.736 667.261 Q -29.190 666.399 -29.334 665.706 Q -29.478 665.012 -29.491 664.668 Q -29.504 664.325 -29.450 663.978 Q -29.396 663.631 -29.236 663.604 Q -29.076 663.577 -28.941 663.553 Q -28.806 663.529 -28.292 663.702 Q -27.777 663.875 -27.432 664.187 Q -27.087 664.499 -26.655 664.908 Q -26.223 665.317 -25.938 665.422 Q -25.653 665.527 -25.497 665.560 Q -25.342 665.593 -25.058 665.477 Q -24.775 665.362 -24.169 664.617 Q -23.563 663.872 -23.274 663.429 Q -22.985 662.986 -22.643 662.849 Q -22.302 662.711 -22.106 662.727 Q -21.910 662.744 -21.721 662.775 Q -21.532 662.806 -21.387 662.846 Q -21.242 662.885 -21.062 662.934 Q -20.881 662.982 -20.676 663.026 Q -20.471 663.070 -20.440 663.139 Q -20.409 663.207 -19.964 663.184 Q -19.519 663.160 -19.234 663.069 Q -18.949 662.978 -18.785 662.894 Q -18.622 662.810 -18.451 662.719 Q -18.281 662.628 -18.191 662.570 Q -18.102 662.511 -18.029 662.450 Q -17.956 662.389 -17.932 662.379 Q -17.907 662.369 -17.690 662.120 Q -17.474 661.872 -17.205 661.424 Q -16.936 660.976 -16.640 660.775 Q -16.344 660.573 -15.921 660.571 Q -15.499 660.568 -15.168 660.501 Q -14.838 660.435 -14.594 660.177 Q -14.350 659.919 -14.221 659.846 Q -14.092 659.773 -14.053 659.705 Q -14.014 659.636 -13.617 659.581 Q -13.220 659.525 -12.941 659.507 Q -12.661 659.489 -12.512 659.504 Q -12.363 659.518 -12.125 659.285 Q -11.886 659.052 -11.782 658.933 Q -11.677 658.813 -11.611 658.741 Q -11.545 658.669 -11.294 658.682 Q -11.043 658.694 -10.262 658.236 Q -9.480 657.778 -8.792 657.445 Q -8.104 657.113 -7.587 656.876 Q -7.070 656.639 -5.449 656.058 Q -5.536 656.259 -5.188 654.810 "></path>
    <circle id="STROKE_a211e96e-4762-4b34-89b5-a160c7215fc3" opacity="1.000" fill="#000000" stroke="#000000" stroke-width="0.1" stroke-opacity="1.000" fill-opacity="1.000" cx="-20.418" cy="661.616" r="0.250"></circle>
    <path id="STROKE_f653368c-3cfe-4791-a1df-3a61d968dea8" opacity="1.000" fill="none" stroke="#000000" stroke-width="0.500" stroke-opacity="1.000" stroke-linecap="round" stroke-linejoin="round" d="M -0.900 659.429 Q -0.732 659.327 1.458 658.365 Q 3.648 657.403 5.278 656.669 Q 6.908 655.936 7.871 655.496 Q 8.834 655.057 10.050 654.505 Q 11.265 653.954 13.550 652.836 Q 15.835 651.718 17.555 651.000 Q 19.275 650.282 20.406 649.831 Q 21.536 649.379 23.175 648.739 Q 24.813 648.098 28.165 646.819 Q 31.517 645.540 34.239 644.448 Q 36.960 643.356 39.593 642.280 Q 42.225 641.203 42.825 640.944 Q 43.426 640.684 43.846 640.481 Q 44.265 640.278 45.074 639.876 Q 45.883 639.474 46.641 639.124 L 46.903 638.922 "></path>
    <path id="STROKE_636b9980-9426-47cb-8dc9-b15df138e5ca" opacity="1.000" fill="none" stroke="#000000" stroke-width="0.971" stroke-opacity="1.000" stroke-linecap="round" stroke-linejoin="round" d="M 1.209 651.927 Q 1.417 652.209 2.730 652.758 Q 2.802 652.951 3.274 651.792 Q 3.745 650.633 4.182 649.051 Q 4.466 649.524 4.440 649.391 Q 4.414 649.259 5.178 651.922 Q 5.245 652.083 5.722 651.559 Q 6.198 651.034 6.574 650.523 Q 6.950 650.011 7.145 649.763 Q 7.341 649.515 7.716 649.368 Q 8.091 649.221 8.615 649.446 Q 9.139 649.671 9.535 649.840 Q 9.932 650.009 10.643 649.831 Q 11.353 649.652 11.962 649.382 Q 12.570 649.112 12.953 648.852 Q 13.335 648.592 13.745 648.017 Q 14.156 647.441 14.533 647.064 Q 14.911 646.687 15.198 646.583 Q 15.484 646.479 15.586 646.457 Q 15.688 646.435 15.987 646.508 Q 16.287 646.581 16.457 646.564 Q 16.628 646.547 16.695 646.537 Q 16.761 646.528 17.260 646.377 Q 17.759 646.226 18.269 645.865 Q 18.778 645.504 19.084 645.103 Q 19.390 644.702 19.575 644.011 Q 19.452 644.061 20.227 643.836 Q 21.002 643.611 21.675 643.315 Q 22.348 643.019 22.713 642.836 Q 23.078 642.652 23.889 642.685 Q 24.699 642.719 25.761 642.562 Q 26.822 642.405 27.372 642.427 Q 27.921 642.450 28.613 641.985 Q 29.304 641.520 29.618 641.246 Q 29.933 640.972 30.453 640.663 Q 30.974 640.355 31.360 640.176 Q 31.747 639.997 31.813 639.983 Q 31.879 639.968 32.293 639.764 Q 32.707 639.559 33.005 639.283 Q 33.303 639.007 33.373 638.894 Q 33.443 638.781 33.589 638.808 Q 33.734 638.835 34.402 638.846 Q 35.071 638.857 35.923 638.406 "></path>
    <path id="STROKE_c128666a-0fa0-4059-b849-94a538ebf3e8" opacity="1.000" fill="none" stroke="#000000" stroke-width="0.971" stroke-opacity="1.000" stroke-linecap="round" stroke-linejoin="round" d="M -20.636 685.223 Q -20.542 685.026 -21.069 683.892 Q -21.595 682.759 -22.027 680.831 Q -22.051 680.947 -22.177 681.729 Q -22.302 682.512 -22.040 683.504 Q -21.778 684.496 -20.760 685.477 Q -20.692 685.493 -20.165 684.769 Q -20.092 684.833 -20.126 685.400 Q -20.159 685.968 -20.074 686.241 Q -19.988 686.514 -19.879 686.599 Q -19.769 686.685 -19.634 686.715 Q -19.499 686.745 -19.384 686.681 Q -19.268 686.617 -19.159 686.623 Q -19.050 686.629 -17.897 685.914 Q -16.744 685.200 -16.236 684.750 Q -15.728 684.299 -15.420 684.162 Q -15.111 684.025 -14.927 683.966 Q -14.742 683.906 -14.585 683.789 Q -14.428 683.672 -14.378 683.610 Q -14.329 683.547 -14.241 683.477 Q -14.152 683.406 -13.569 682.995 Q -12.985 682.584 -12.609 682.158 Q -12.233 681.732 -11.713 681.059 Q -11.192 680.386 -10.920 679.788 Q -10.648 679.190 -10.532 678.830 Q -10.415 678.469 -10.313 678.161 Q -10.538 678.199 -10.852 680.010 Q -10.700 680.109 -10.068 679.654 Q -9.435 679.199 -9.042 678.879 Q -8.648 678.558 -8.256 678.416 Q -7.864 678.274 -7.534 678.268 Q -7.204 678.262 -6.889 678.394 Q -6.574 678.527 -6.395 678.559 Q -6.217 678.591 -6.044 678.635 Q -5.871 678.679 -5.554 678.590 Q -5.236 678.502 -4.722 678.192 Q -4.209 677.883 -3.163 677.467 Q -2.117 677.052 -0.869 676.139 "></path>
    <path id="STROKE_73bed1ca-bed8-4915-a2ef-f33b05e37945" opacity="1.000" fill="none" stroke="#000000" stroke-width="0.500" stroke-opacity="1.000" stroke-linecap="round" stroke-linejoin="round" d="M 4.709 677.389 Q 5.091 677.300 5.690 677.115 Q 6.289 676.931 7.415 676.309 Q 8.540 675.686 9.403 675.214 Q 10.267 674.742 11.375 674.184 Q 12.483 673.626 14.766 672.306 Q 17.050 670.986 18.983 670.016 Q 20.916 669.046 21.874 668.610 Q 22.833 668.173 23.987 667.666 Q 25.141 667.158 27.425 666.182 Q 29.709 665.205 31.549 664.375 Q 33.390 663.545 34.745 662.879 Q 36.100 662.213 38.186 661.094 Q 40.272 659.975 41.303 659.356 Q 42.333 658.737 42.820 658.429 Q 43.307 658.120 43.568 657.948 Q 43.829 657.775 44.327 657.487 Q 44.824 657.198 45.178 657.026 Q 45.531 656.853 48.431 655.672 "></path>
    <path id="STROKE_114a90f8-003e-4068-9658-790476d66330" opacity="1.000" fill="none" stroke="#000000" stroke-width="0.971" stroke-opacity="1.000" stroke-linecap="round" stroke-linejoin="round" d="M 7.541 668.330 Q 7.490 668.072 7.251 667.512 Q 7.013 666.952 6.321 666.109 L 6.314 666.118 Q 6.435 666.188 7.676 668.000 Q 8.918 669.812 10.122 671.745 Q 10.201 671.773 10.827 670.920 Q 11.452 670.067 11.910 669.586 Q 12.369 669.105 12.885 668.793 Q 13.402 668.481 13.978 668.218 Q 14.554 667.956 15.226 667.129 Q 15.899 666.302 16.463 665.841 Q 17.027 665.381 17.733 665.025 Q 18.440 664.670 19.137 663.901 Q 19.133 663.932 19.092 664.047 Q 19.051 664.162 18.978 664.276 Q 18.905 664.390 18.860 664.440 Q 18.814 664.491 18.798 664.536 Q 18.782 664.580 18.107 664.694 Q 17.432 664.807 16.471 665.354 Q 15.511 665.902 14.765 666.389 Q 14.020 666.876 13.382 666.856 Q 13.387 666.578 14.119 666.022 Q 14.850 665.466 16.519 665.133 Q 18.187 664.799 19.737 664.641 Q 21.286 664.483 22.202 664.312 Q 23.117 664.141 23.660 664.074 Q 24.202 664.008 24.485 664.020 Q 24.767 664.032 25.207 663.740 Q 25.646 663.447 25.919 663.320 Q 26.192 663.192 26.289 663.143 Q 26.385 663.094 27.257 662.792 Q 28.129 662.490 28.828 662.244 Q 29.527 661.997 29.867 661.828 Q 30.208 661.659 30.259 661.626 Q 30.310 661.592 30.442 661.446 Q 30.573 661.300 31.296 660.579 Q 32.019 659.858 32.463 659.388 Q 32.906 658.917 33.054 658.680 Q 33.202 658.443 33.269 658.249 Q 33.336 658.054 33.417 657.892 Q 33.497 657.729 33.618 657.593 Q 33.738 657.457 33.817 657.400 Q 33.895 657.343 33.955 657.304 Q 34.014 657.265 34.068 657.236 Q 34.123 657.208 34.091 657.220 Q 34.059 657.232 34.464 656.877 Q 34.870 656.522 35.250 656.361 Q 35.630 656.199 35.772 656.181 Q 35.914 656.164 35.972 656.158 Q 36.030 656.151 36.156 656.137 Q 36.283 656.122 36.971 656.000 Q 37.660 655.878 38.561 655.804 Q 39.462 655.730 40.522 655.636 Q 41.582 655.542 42.770 655.249 "></path>
    <path id="STROKE_00321c80-1bd8-47f6-bbb4-3595f13ae9e4" opacity="1.000" fill="none" stroke="#000000" stroke-width="0.971" stroke-opacity="1.000" stroke-linecap="round" stroke-linejoin="round" d="M -10.944 704.264 Q -10.950 704.192 -11.442 703.973 Q -11.933 703.755 -12.387 702.894 Q -12.840 702.032 -12.984 701.339 Q -13.129 700.645 -13.141 700.301 Q -13.154 699.957 -13.100 699.611 Q -13.046 699.264 -12.886 699.237 Q -12.726 699.209 -12.591 699.186 Q -12.456 699.162 -11.942 699.335 Q -11.427 699.508 -11.082 699.820 Q -10.738 700.132 -10.305 700.541 Q -9.873 700.950 -9.588 701.055 Q -9.303 701.160 -9.147 701.193 Q -8.992 701.226 -8.708 701.110 Q -8.425 700.995 -7.819 700.250 Q -7.214 699.504 -6.924 699.062 Q -6.635 698.619 -6.294 698.481 Q -5.952 698.344 -5.756 698.360 Q -5.560 698.376 -5.371 698.408 Q -5.183 698.439 -5.038 698.478 Q -4.893 698.518 -4.712 698.566 Q -4.531 698.614 -4.326 698.659 Q -4.121 698.703 -4.090 698.771 Q -4.059 698.840 -3.614 698.816 Q -3.169 698.793 -2.884 698.702 Q -2.599 698.611 -2.436 698.526 Q -2.272 698.442 -2.102 698.352 Q -1.931 698.261 -1.842 698.202 Q -1.752 698.144 -1.679 698.083 Q -1.606 698.022 -1.582 698.012 Q -1.557 698.002 -1.341 697.753 Q -1.124 697.504 -0.855 697.057 Q -0.586 696.609 -0.290 696.408 Q 0.006 696.206 0.429 696.203 Q 0.851 696.201 1.182 696.134 Q 1.512 696.068 1.756 695.810 Q 1.999 695.552 2.128 695.479 Q 2.257 695.406 2.297 695.338 Q 2.336 695.269 2.733 695.214 Q 3.130 695.158 3.409 695.140 Q 3.689 695.122 3.838 695.137 Q 3.987 695.151 4.225 694.918 Q 4.463 694.685 4.568 694.565 Q 4.673 694.446 4.739 694.374 Q 4.805 694.302 5.056 694.314 Q 5.307 694.327 6.088 693.869 Q 6.869 693.411 7.557 693.078 Q 8.245 692.746 8.763 692.509 Q 9.280 692.272 10.901 691.691 Q 10.813 691.892 11.162 690.443 "></path>
    <path id="STROKE_9218a630-6c62-4525-91d0-81d616838732" opacity="1.000" fill="none" stroke="#000000" stroke-width="0.500" stroke-opacity="1.000" stroke-linecap="round" stroke-linejoin="round" d="M 15.450 695.062 Q 15.618 694.960 17.808 693.998 Q 19.998 693.036 21.628 692.302 Q 23.257 691.569 24.221 691.129 Q 25.184 690.689 26.399 690.138 Q 27.615 689.587 29.900 688.469 Q 32.184 687.351 33.905 686.633 Q 35.625 685.915 36.756 685.463 Q 37.886 685.012 39.524 684.371 Q 41.162 683.731 44.515 682.452 Q 47.867 681.172 50.588 680.081 Q 53.310 678.989 55.942 677.912 Q 58.575 676.836 59.175 676.576 Q 59.775 676.317 60.195 676.114 Q 60.615 675.910 61.424 675.509 Q 62.233 675.107 62.991 674.757 L 63.253 674.555 "></path>
    <path id="STROKE_9b58342d-800c-4247-b636-be42e784cc25" opacity="1.000" fill="none" stroke="#000000" stroke-width="0.971" stroke-opacity="1.000" stroke-linecap="round" stroke-linejoin="round" d="M 17.559 687.559 Q 17.767 687.842 19.079 688.391 Q 19.152 688.584 19.623 687.425 Q 20.095 686.266 20.532 684.683 Q 20.815 685.156 20.790 685.024 Q 20.764 684.892 21.528 687.555 Q 21.595 687.716 22.071 687.191 Q 22.548 686.667 22.924 686.156 Q 23.299 685.644 23.495 685.396 Q 23.690 685.147 24.065 685.000 Q 24.441 684.854 24.965 685.079 Q 25.489 685.304 25.885 685.473 Q 26.282 685.642 26.992 685.463 Q 27.703 685.285 28.312 685.014 Q 28.920 684.744 29.302 684.485 Q 29.684 684.225 30.095 683.650 Q 30.506 683.074 30.883 682.697 Q 31.261 682.320 31.547 682.216 Q 31.834 682.112 31.936 682.090 Q 32.038 682.068 32.337 682.141 Q 32.636 682.214 32.807 682.197 Q 32.978 682.180 33.044 682.170 Q 33.111 682.161 33.610 682.010 Q 34.109 681.859 34.618 681.498 Q 35.128 681.136 35.434 680.736 Q 35.740 680.335 35.925 679.643 Q 35.802 679.693 36.577 679.469 Q 37.352 679.244 38.025 678.948 Q 38.698 678.652 39.063 678.468 Q 39.428 678.284 40.238 678.318 Q 41.049 678.352 42.110 678.195 Q 43.172 678.038 43.721 678.060 Q 44.271 678.083 44.963 677.618 Q 45.654 677.152 45.968 676.878 Q 46.282 676.604 46.803 676.296 Q 47.323 675.988 47.710 675.809 Q 48.097 675.630 48.163 675.615 Q 48.229 675.601 48.643 675.396 Q 49.057 675.192 49.355 674.916 Q 49.653 674.640 49.723 674.527 Q 49.793 674.414 49.939 674.441 Q 50.084 674.468 50.752 674.479 Q 51.420 674.489 52.273 674.039 "></path>
    <path id="STROKE_df5f543d-38ef-48ab-b3a1-827547b2688b" opacity="1.000" fill="none" stroke="#000000" stroke-width="0.971" stroke-opacity="1.000" stroke-linecap="round" stroke-linejoin="round" d="M -2.991 722.105 Q -2.997 722.033 -3.488 721.815 Q -3.980 721.596 -4.433 720.735 Q -4.887 719.874 -5.031 719.180 Q -5.175 718.486 -5.188 718.143 Q -5.201 717.799 -5.147 717.452 Q -5.093 717.105 -4.933 717.078 Q -4.773 717.051 -4.638 717.027 Q -4.503 717.003 -3.989 717.176 Q -3.474 717.349 -3.129 717.661 Q -2.784 717.973 -2.352 718.382 Q -1.920 718.791 -1.635 718.896 Q -1.350 719.002 -1.194 719.034 Q -1.039 719.067 -0.755 718.951 Q -0.472 718.836 0.134 718.091 Q 0.739 717.346 1.029 716.903 Q 1.318 716.460 1.660 716.323 Q 2.001 716.185 2.197 716.202 Q 2.393 716.218 2.582 716.249 Q 2.771 716.280 2.916 716.320 Q 3.060 716.360 3.241 716.408 Q 3.422 716.456 3.627 716.500 Q 3.832 716.544 3.863 716.613 Q 3.894 716.681 4.339 716.658 Q 4.784 716.634 5.069 716.543 Q 5.354 716.452 5.518 716.368 Q 5.681 716.284 5.852 716.193 Q 6.022 716.102 6.112 716.044 Q 6.201 715.985 6.274 715.924 Q 6.347 715.864 6.371 715.853 Q 6.396 715.843 6.612 715.594 Q 6.829 715.346 7.098 714.898 Q 7.367 714.450 7.663 714.249 Q 7.959 714.047 8.382 714.045 Q 8.804 714.042 9.135 713.975 Q 9.465 713.909 9.709 713.651 Q 9.953 713.393 10.082 713.320 Q 10.211 713.248 10.250 713.179 Q 10.289 713.110 10.686 713.055 Q 11.083 713.000 11.362 712.982 Q 11.642 712.964 11.791 712.978 Q 11.940 712.993 12.178 712.759 Q 12.416 712.526 12.521 712.407 Q 12.626 712.288 12.692 712.215 Q 12.758 712.143 13.009 712.156 Q 13.260 712.168 14.041 711.710 Q 14.823 711.252 15.510 710.919 Q 16.198 710.587 16.716 710.350 Q 17.233 710.113 18.854 709.532 Q 18.766 709.733 19.115 708.284 "></path>
    <path id="STROKE_fc1eaadf-6dbb-4edc-8a79-306547706b10" opacity="1.000" fill="none" stroke="#000000" stroke-width="0.500" stroke-opacity="1.000" stroke-linecap="round" stroke-linejoin="round" d="M 23.403 712.903 Q 23.571 712.801 25.761 711.839 Q 27.951 710.877 29.581 710.143 Q 31.211 709.410 32.174 708.970 Q 33.137 708.531 34.353 707.979 Q 35.568 707.428 37.853 706.310 Q 40.138 705.192 41.858 704.474 Q 43.578 703.756 44.709 703.305 Q 45.839 702.853 47.477 702.213 Q 49.116 701.573 52.468 700.293 Q 55.820 699.014 58.541 697.922 Q 61.263 696.830 63.896 695.754 Q 66.528 694.677 67.128 694.418 Q 67.729 694.158 68.148 693.955 Q 68.568 693.752 69.377 693.350 Q 70.186 692.948 70.944 692.599 L 71.206 692.396 "></path>
    <path id="STROKE_35fe276d-2ccb-49f7-b341-17ec0d1c2c43" opacity="1.000" fill="none" stroke="#000000" stroke-width="0.971" stroke-opacity="1.000" stroke-linecap="round" stroke-linejoin="round" d="M 25.512 705.401 Q 25.720 705.684 27.033 706.232 Q 27.105 706.425 27.577 705.266 Q 28.048 704.107 28.485 702.525 Q 28.768 702.998 28.743 702.865 Q 28.717 702.733 29.481 705.396 Q 29.548 705.557 30.025 705.033 Q 30.501 704.509 30.877 703.997 Q 31.252 703.485 31.448 703.237 Q 31.644 702.989 32.019 702.842 Q 32.394 702.695 32.918 702.920 Q 33.442 703.145 33.838 703.314 Q 34.235 703.484 34.945 703.305 Q 35.656 703.126 36.265 702.856 Q 36.873 702.586 37.255 702.326 Q 37.638 702.066 38.048 701.491 Q 38.459 700.915 38.836 700.538 Q 39.214 700.161 39.501 700.057 Q 39.787 699.954 39.889 699.931 Q 39.991 699.909 40.290 699.982 Q 40.590 700.055 40.760 700.038 Q 40.931 700.021 40.997 700.011 Q 41.064 700.002 41.563 699.851 Q 42.062 699.700 42.571 699.339 Q 43.081 698.978 43.387 698.577 Q 43.693 698.176 43.878 697.485 Q 43.755 697.535 44.530 697.310 Q 45.305 697.085 45.978 696.789 Q 46.651 696.494 47.016 696.310 Q 47.381 696.126 48.191 696.160 Q 49.002 696.193 50.063 696.036 Q 51.125 695.879 51.675 695.902 Q 52.224 695.924 52.916 695.459 Q 53.607 694.994 53.921 694.720 Q 54.236 694.446 54.756 694.137 Q 55.277 693.829 55.663 693.650 Q 56.050 693.471 56.116 693.457 Q 56.182 693.442 56.596 693.238 Q 57.010 693.033 57.308 692.757 Q 57.606 692.482 57.676 692.369 Q 57.746 692.256 57.892 692.283 Q 58.037 692.309 58.705 692.320 Q 59.374 692.331 60.226 691.880 "></path>
    <circle id="STROKE_0b336d3d-c4f2-4f2a-84f9-47b8005259b5" opacity="1.000" fill="#000000" stroke="#000000" stroke-width="0.1" stroke-opacity="1.000" fill-opacity="1.000" cx="75.254" cy="712.437" r="0.250"></circle>
    <path id="STROKE_7fa5fab6-cf41-4f24-95e5-5f7e6df93e39" opacity="1.000" fill="none" stroke="#000000" stroke-width="0.500" stroke-opacity="1.000" stroke-linecap="round" stroke-linejoin="round" d="M 27.887 721.703 L 28.132 721.410 Q 28.163 721.413 29.598 723.043 Q 31.033 724.674 32.022 726.118 Q 33.011 727.562 33.506 728.344 Q 34.000 729.125 34.783 730.262 Q 35.567 731.399 36.919 733.796 Q 38.270 736.193 38.875 737.410 Q 39.479 738.627 39.780 739.265 Q 40.081 739.903 41.462 742.330 "></path>
    <path id="STROKE_80a88c52-ae23-4836-8424-917763a01b59" opacity="1.000" fill="none" stroke="#000000" stroke-width="0.500" stroke-opacity="1.000" stroke-linecap="round" stroke-linejoin="round" d="M 29.430 719.300 Q 29.511 719.045 30.288 718.118 Q 31.065 717.191 33.432 715.735 Q 35.798 714.279 37.785 713.206 Q 39.771 712.133 42.549 711.015 Q 45.328 709.896 46.874 709.302 Q 48.420 708.708 49.162 708.420 Q 49.905 708.133 50.697 707.832 Q 51.489 707.531 53.466 706.807 Q 55.442 706.082 57.000 705.495 Q 58.558 704.909 60.203 704.162 Q 61.847 703.415 62.651 703.038 Q 63.454 702.661 64.010 702.477 Q 64.566 702.292 64.852 702.239 Q 65.138 702.186 65.346 702.121 Q 65.554 702.055 65.865 701.903 Q 66.177 701.750 67.018 701.435 Q 67.860 701.120 69.031 700.661 Q 70.201 700.203 71.355 699.726 "></path>
    <path id="STROKE_8e50137c-6652-4da5-8732-5c3148e7c319" opacity="1.000" fill="none" stroke="#000000" stroke-width="0.500" stroke-opacity="1.000" stroke-linecap="round" stroke-linejoin="round" d="M 73.149 697.840 Q 73.244 697.924 74.231 700.512 Q 75.218 703.100 75.832 704.906 Q 76.447 706.713 77.298 709.540 Q 78.148 712.367 78.557 713.791 Q 78.965 715.214 79.233 716.046 Q 79.501 716.878 79.696 717.509 Q 79.890 718.140 80.162 719.032 Q 80.435 719.924 80.763 720.603 Q 81.091 721.282 81.496 721.815 Q 81.900 722.348 82.115 722.615 Q 82.329 722.882 82.596 723.277 "></path>
    <path id="STROKE_0f2298b8-be07-4bfb-8626-bb2ca86acfe1" opacity="1.000" fill="none" stroke="#000000" stroke-width="0.500" stroke-opacity="1.000" stroke-linecap="round" stroke-linejoin="round" d="M 42.146 743.279 Q 42.321 743.184 43.974 742.364 Q 45.626 741.543 47.329 740.638 Q 49.032 739.733 49.934 739.205 Q 50.837 738.677 53.489 737.101 Q 56.141 735.525 57.916 734.563 Q 59.691 733.602 60.572 733.184 Q 61.454 732.765 63.492 731.823 Q 65.530 730.882 67.290 730.073 Q 69.050 729.266 70.042 728.813 Q 71.034 728.360 73.193 727.410 Q 75.353 726.460 76.648 725.929 Q 77.943 725.398 78.560 725.209 Q 79.178 725.020 79.661 724.938 Q 80.144 724.857 81.967 724.534 "></path>
    <path id="STROKE_07d95e26-3571-49a1-a825-9781965ced1e" opacity="1.000" fill="none" stroke="#000000" stroke-width="0.971" stroke-opacity="1.000" stroke-linecap="round" stroke-linejoin="round" d="M 8.746 749.081 Q 8.628 749.403 8.472 749.792 Q 8.316 750.181 8.213 750.437 Q 8.110 750.692 8.174 750.982 Q 8.361 751.148 9.060 749.986 Q 9.759 748.825 10.330 747.774 Q 10.902 746.723 11.234 746.130 Q 11.567 745.537 11.938 745.164 Q 12.308 744.792 12.666 744.638 Q 13.024 744.485 13.575 744.517 Q 14.126 744.549 14.995 745.304 Q 15.863 746.059 16.374 746.546 Q 16.884 747.034 17.385 747.316 Q 17.885 747.599 18.363 747.520 Q 18.841 747.441 19.306 747.163 Q 19.771 746.885 20.788 746.009 Q 21.804 745.133 22.888 744.366 Q 23.971 743.600 24.564 743.337 Q 25.156 743.073 25.567 742.547 Q 25.977 742.020 26.113 741.731 Q 26.249 741.441 26.345 740.912 Q 26.440 740.382 26.244 739.605 Q 26.048 738.828 25.915 738.396 Q 25.782 737.965 25.632 737.803 Q 25.483 737.641 25.340 737.525 Q 25.197 737.409 25.085 737.333 Q 24.973 737.257 24.800 737.176 Q 24.626 737.095 24.218 736.382 Q 24.374 736.230 24.556 736.083 Q 24.738 735.936 25.318 736.409 Q 25.898 736.882 26.229 737.240 Q 26.561 737.598 27.058 737.842 Q 27.555 738.086 28.198 738.066 Q 28.840 738.046 29.673 737.785 Q 30.506 737.524 30.951 737.365 Q 31.395 737.207 31.610 737.170 Q 31.825 737.134 31.880 737.197 Q 31.936 737.260 32.016 737.407 Q 32.095 737.554 32.214 737.811 Q 32.334 738.068 32.451 738.299 Q 32.568 738.530 32.849 738.754 Q 33.130 738.979 33.762 739.081 Q 34.394 739.184 36.665 737.896 "></path>
    <circle id="STROKE_aea40c56-5b86-40b2-a2f3-bafbd61e48a9" opacity="1.000" fill="#000000" stroke="#000000" stroke-width="0.1" stroke-opacity="1.000" fill-opacity="1.000" cx="91.828" cy="691.340" r="0.250"></circle>
    <circle id="STROKE_615bf321-1f0b-4e73-bd1b-97738cbb2364" opacity="1.000" fill="#000000" stroke="#000000" stroke-width="0.1" stroke-opacity="1.000" fill-opacity="1.000" cx="91.812" cy="692.625" r="0.250"></circle>
    <path id="STROKE_1f19693b-0823-42d1-8365-eda4b03c1c05" opacity="1.000" fill="none" stroke="#000000" stroke-width="0.500" stroke-opacity="1.000" stroke-linecap="round" stroke-linejoin="round" d="M 67.028 719.509 Q 67.045 719.620 67.089 720.292 Q 67.132 720.964 66.951 722.178 Q 66.769 723.391 66.321 724.421 Q 65.872 725.451 65.408 726.101 Q 64.945 726.750 64.460 727.246 Q 63.975 727.743 63.319 728.238 Q 62.663 728.732 61.926 729.125 Q 61.189 729.518 59.910 729.907 Q 58.632 730.296 57.774 730.389 Q 56.915 730.481 55.678 730.398 Q 54.440 730.316 53.596 730.110 Q 52.752 729.904 51.841 729.526 Q 50.929 729.148 49.913 728.481 Q 48.896 727.814 48.291 727.235 Q 47.687 726.656 47.188 726.000 Q 46.689 725.345 46.184 724.310 Q 45.679 723.275 45.482 722.507 Q 45.286 721.738 45.228 720.843 Q 45.170 719.947 45.291 719.062 Q 45.412 718.177 45.618 717.537 Q 45.824 716.897 46.183 716.194 Q 46.543 715.491 47.346 714.520 Q 48.150 713.549 48.992 712.913 Q 49.835 712.278 50.583 711.900 Q 51.330 711.522 52.741 711.142 Q 54.151 710.761 55.138 710.706 Q 56.126 710.651 56.991 710.735 Q 57.857 710.819 58.818 711.065 Q 59.780 711.310 60.574 711.649 Q 61.368 711.987 62.477 712.732 Q 63.586 713.477 64.098 713.978 Q 64.610 714.480 65.287 715.435 Q 65.964 716.390 66.291 717.125 Q 66.618 717.860 66.815 718.629 Q 67.011 719.398 67.028 719.509 Z"></path>
    <path id="STROKE_3bf66c32-d549-4fe8-b380-99c47eda0825" opacity="1.000" fill="none" stroke="#000000" stroke-width="0.500" stroke-opacity="1.000" stroke-linecap="round" stroke-linejoin="round" d="M 47.176 721.360 Q 47.295 721.384 47.449 721.373 Q 47.481 721.287 47.318 721.031 Q 47.156 720.774 47.052 720.611 Q 46.948 720.449 46.922 720.327 Q 46.896 720.206 46.935 720.102 Q 46.974 719.998 46.996 719.971 Q 47.017 719.944 47.065 719.884 Q 47.113 719.824 47.238 719.693 Q 47.363 719.563 47.436 719.487 Q 47.509 719.410 47.552 719.338 Q 47.595 719.267 47.627 719.111 Q 47.659 718.956 47.655 718.823 Q 47.652 718.691 47.672 718.457 Q 47.692 718.224 47.719 718.090 Q 47.745 717.956 47.812 717.847 Q 47.878 717.739 47.950 717.618 Q 48.021 717.497 48.046 717.450 Q 48.071 717.404 48.090 717.352 Q 48.108 717.301 48.161 717.114 Q 48.213 716.927 48.250 716.803 Q 48.286 716.679 48.339 716.375 Q 48.391 716.071 48.419 715.916 Q 48.446 715.761 48.456 715.665 Q 48.467 715.569 48.465 715.484 Q 48.463 715.478 48.599 715.512 Q 48.734 715.545 48.838 715.592 Q 48.943 715.639 49.017 715.674 Q 49.091 715.708 49.096 715.712 Q 49.102 715.717 49.182 715.715 Q 49.262 715.713 49.413 715.662 Q 49.564 715.612 49.611 715.603 Q 49.659 715.595 49.899 715.437 Q 50.140 715.279 50.325 715.102 Q 50.511 714.925 50.605 714.829 Q 50.698 714.734 50.820 714.594 Q 50.942 714.454 51.019 714.361 Q 51.096 714.268 51.099 714.266 Q 51.103 714.264 51.214 714.121 Q 51.324 713.979 51.386 713.898 Q 51.449 713.816 51.480 713.773 Q 51.511 713.729 51.562 713.677 Q 51.613 713.626 51.804 713.506 Q 51.994 713.387 52.001 713.378 Q 52.009 713.370 52.165 713.346 Q 52.321 713.321 52.419 713.337 Q 52.516 713.353 52.723 713.352 Q 52.930 713.351 53.077 713.343 Q 53.225 713.334 53.303 713.354 Q 53.382 713.374 53.436 713.377 Q 53.491 713.380 53.565 713.380 Q 53.638 713.380 53.819 713.345 Q 54.000 713.310 54.326 713.268 Q 54.653 713.226 54.819 713.189 Q 54.986 713.151 55.141 713.116 Q 55.296 713.080 55.421 713.046 Q 55.547 713.011 55.682 712.988 Q 55.818 712.964 56.039 712.875 Q 56.260 712.786 56.390 712.750 Q 56.519 712.715 56.606 712.715 Q 56.692 712.715 56.797 712.735 Q 56.903 712.755 57.037 712.783 Q 57.170 712.811 57.266 712.830 Q 57.361 712.849 57.462 712.877 Q 57.562 712.904 57.851 712.882 Q 58.140 712.861 58.320 712.835 Q 58.500 712.809 58.729 712.831 Q 58.958 712.854 59.066 712.890 Q 59.174 712.926 59.236 712.958 Q 59.297 712.990 59.347 713.028 Q 59.396 713.066 59.441 713.133 Q 59.487 713.200 59.505 713.264 Q 59.522 713.328 59.497 713.384 Q 59.473 713.441 59.438 713.475 Q 59.404 713.508 59.371 713.536 Q 59.338 713.563 59.232 713.588 Q 59.127 713.612 59.069 713.620 Q 59.011 713.627 58.856 713.523 Q 58.700 713.420 58.653 713.236 Q 58.638 713.202 59.036 713.285 Q 59.434 713.368 59.734 713.472 Q 60.035 713.576 60.443 713.793 Q 60.509 713.770 60.562 713.753 Q 60.614 713.736 60.624 713.721 Q 60.633 713.706 60.635 713.694 Q 60.638 713.682 60.615 713.678 Q 60.592 713.674 60.587 713.685 Q 60.582 713.696 60.565 713.718 Q 60.547 713.741 60.524 713.871 Q 60.539 713.888 60.674 713.952 Q 60.809 714.016 60.915 714.087 Q 61.021 714.158 61.069 714.191 Q 61.117 714.223 61.205 714.363 Q 61.293 714.504 61.316 714.603 Q 61.338 714.702 61.313 714.802 Q 61.287 714.903 61.254 714.995 Q 61.220 715.087 61.176 715.171 Q 61.133 715.255 61.102 715.347 Q 61.123 715.344 61.994 715.359 "></path>
    <circle id="STROKE_05f472d2-2044-44ef-8a1b-bd77d81f967b" opacity="1.000" fill="#000000" stroke="#000000" stroke-width="0.1" stroke-opacity="1.000" fill-opacity="1.000" cx="47.834" cy="723.334" r="0.250"></circle>
    <path id="STROKE_f30590d2-0e8f-4199-8b34-7bca0b923487" opacity="1.000" fill="none" stroke="#000000" stroke-width="0.500" stroke-opacity="1.000" stroke-linecap="round" stroke-linejoin="round" d="M 63.395 716.076 Q 63.415 716.118 63.503 716.225 Q 63.591 716.331 63.413 716.592 Q 63.390 716.587 63.384 716.577 Q 63.377 716.568 63.294 716.610 "></path>
    <path id="STROKE_abb8bf8c-1707-435e-9273-8da7fb5e7016" opacity="1.000" fill="none" stroke="#000000" stroke-width="0.500" stroke-opacity="1.000" stroke-linecap="round" stroke-linejoin="round" d="M 63.842 718.081 Q 64.012 718.100 64.700 718.337 Q 64.704 718.360 64.695 718.390 Q 64.686 718.421 64.666 718.453 Q 64.646 718.485 64.250 718.802 L 64.228 718.905 Q 64.188 718.970 64.528 719.823 Q 64.522 719.853 64.406 720.175 L 64.429 720.260 Q 64.449 720.308 64.474 720.479 Q 64.499 720.650 64.490 720.783 Q 64.481 720.915 64.459 721.069 Q 64.437 721.222 64.434 721.299 Q 64.431 721.375 64.432 721.410 Q 64.433 721.444 64.551 721.817 Q 64.668 722.190 64.762 722.380 Q 64.855 722.570 64.921 722.677 Q 64.987 722.784 65.097 722.950 Q 65.207 723.117 65.284 723.307 Q 65.289 723.350 65.028 723.399 Q 64.767 723.447 64.577 723.433 Q 64.386 723.418 63.872 723.570 "></path>
    <circle id="STROKE_4a9c2294-7368-4324-95b7-6678d74f4fa5" opacity="1.000" fill="#000000" stroke="#000000" stroke-width="0.1" stroke-opacity="1.000" fill-opacity="1.000" cx="63.430" cy="724.749" r="0.250"></circle>
    <circle id="STROKE_5ce6acb7-cc37-40f7-9217-80e1c689745d" opacity="1.000" fill="#000000" stroke="#000000" stroke-width="0.1" stroke-opacity="1.000" fill-opacity="1.000" cx="63.120" cy="724.939" r="0.250"></circle>
    <path id="STROKE_41f32c0a-d486-4548-b2b7-43f1d0e538c2" opacity="1.000" fill="none" stroke="#000000" stroke-width="0.500" stroke-opacity="1.000" stroke-linecap="round" stroke-linejoin="round" d="M 62.022 725.855 Q 61.970 726.076 61.839 726.757 Q 61.829 726.815 61.406 726.757 Q 61.242 726.868 61.137 726.907 Q 61.032 726.947 60.963 726.999 Q 60.894 727.052 60.738 727.245 Q 60.582 727.437 60.463 727.594 Q 60.344 727.750 60.176 727.820 Q 60.008 727.890 59.905 727.877 Q 59.801 727.864 59.461 727.655 Q 59.424 727.615 58.916 727.684 Q 58.408 727.752 58.064 727.853 Q 57.721 727.954 57.610 727.983 Q 57.498 728.012 57.430 728.028 Q 57.362 728.044 57.329 728.048 Q 57.297 728.053 57.172 728.109 Q 57.046 728.164 56.954 728.198 Q 56.861 728.232 56.756 728.276 Q 56.652 728.320 56.609 728.357 Q 56.566 728.393 56.522 728.455 Q 56.491 728.487 56.471 728.351 L 56.461 728.389 Q 56.433 728.435 56.409 728.447 Q 56.386 728.459 56.375 728.472 Q 56.365 728.484 56.078 728.449 Q 55.792 728.413 55.624 728.391 Q 55.456 728.369 55.300 728.400 Q 55.143 728.431 55.053 728.456 Q 54.962 728.482 54.849 728.523 Q 54.736 728.563 54.567 728.573 Q 54.398 728.582 54.297 728.568 Q 54.195 728.554 54.114 728.519 Q 54.032 728.485 53.995 728.471 Q 53.958 728.458 53.721 728.279 Q 53.705 728.288 53.268 728.431 Q 53.186 728.434 53.085 728.413 Q 52.984 728.393 52.913 728.391 Q 52.842 728.388 52.753 728.397 Q 52.664 728.405 52.625 728.403 Q 52.587 728.401 52.531 728.320 "></path>
    <path id="STROKE_5a26e2e5-62ed-4790-81c2-22b43ecc7165" opacity="1.000" fill="none" stroke="#000000" stroke-width="0.500" stroke-opacity="1.000" stroke-linecap="round" stroke-linejoin="round" d="M 51.414 728.172 Q 51.405 728.052 51.284 727.447 Q 51.101 727.412 50.978 727.402 Q 50.855 727.393 50.742 727.380 Q 50.629 727.367 50.206 727.015 Q 50.093 727.024 49.867 727.061 Q 49.807 727.036 49.531 726.795 Q 49.255 726.554 48.666 725.976 Q 48.659 725.951 48.847 725.722 Q 49.035 725.493 49.135 725.397 Q 49.235 725.301 49.270 725.243 Q 49.305 725.185 49.304 725.143 Q 49.304 725.101 49.292 725.061 Q 49.281 725.022 49.200 724.982 Q 49.119 724.942 48.495 724.759 L 48.343 724.714 "></path>
    <path id="STROKE_8e930775-00fe-416c-9293-0c19d41244ce" opacity="1.000" fill="none" stroke="#000000" stroke-width="0.500" stroke-opacity="1.000" stroke-linecap="round" stroke-linejoin="round" d="M 53.224 721.531 Q 53.174 721.440 53.026 721.152 Q 52.877 720.865 52.508 720.520 Q 52.139 720.176 51.903 720.030 Q 51.666 719.885 51.154 719.684 Q 50.641 719.483 50.398 719.410 Q 50.155 719.338 50.001 719.292 Q 49.848 719.247 49.652 719.192 Q 49.675 719.175 49.822 719.133 "></path>
    <path id="STROKE_daec1eeb-5df2-4389-ad9c-e53967d11231" opacity="1.000" fill="none" stroke="#000000" stroke-width="0.500" stroke-opacity="1.000" stroke-linecap="round" stroke-linejoin="round" d="M 50.313 719.348 Q 50.469 719.312 50.715 719.207 Q 50.961 719.102 51.289 718.924 Q 51.616 718.747 51.758 718.635 Q 51.900 718.523 51.957 718.445 Q 52.014 718.367 52.043 718.302 Q 52.071 718.238 52.106 718.095 Q 52.140 717.951 52.152 717.824 Q 52.164 717.697 52.200 717.495 "></path>
    <path id="STROKE_7aaf3677-5443-4be6-88b8-37a4afa93f2e" opacity="1.000" fill="none" stroke="#000000" stroke-width="0.500" stroke-opacity="1.000" stroke-linecap="round" stroke-linejoin="round" d="M 52.009 717.312 Q 52.135 717.463 52.329 717.642 Q 52.523 717.821 52.627 717.875 Q 52.732 717.929 52.900 717.960 Q 53.069 717.991 53.383 717.901 Q 53.697 717.810 54.015 717.412 Q 54.333 717.014 54.573 716.557 Q 54.813 716.101 55.101 715.669 "></path>
    <path id="STROKE_15948747-496e-454f-a5be-6e12aa5df74f" opacity="1.000" fill="none" stroke="#000000" stroke-width="0.500" stroke-opacity="1.000" stroke-linecap="round" stroke-linejoin="round" d="M 55.153 716.321 Q 55.202 716.389 55.317 716.534 Q 55.432 716.678 55.628 716.828 Q 55.824 716.977 56.274 717.000 Q 56.725 717.023 57.047 716.934 Q 57.369 716.845 57.586 716.742 Q 57.803 716.638 58.158 716.455 "></path>
    <path id="STROKE_f1ff29c8-2bba-4a70-8317-bf45a82105d0" opacity="1.000" fill="none" stroke="#000000" stroke-width="0.500" stroke-opacity="1.000" stroke-linecap="round" stroke-linejoin="round" d="M 58.024 716.481 Q 58.015 716.454 57.976 716.064 Q 57.938 715.674 57.925 715.401 Q 57.936 715.435 58.085 717.788 "></path>
    <path id="STROKE_b68e5faf-55ca-4409-ad0f-faa2d89f43bc" opacity="1.000" fill="none" stroke="#000000" stroke-width="0.500" stroke-opacity="1.000" stroke-linecap="round" stroke-linejoin="round" d="M 57.931 716.623 Q 57.931 716.764 57.978 717.278 Q 58.025 717.791 58.276 718.372 Q 58.526 718.952 58.995 719.465 "></path>
    <path id="STROKE_4db21293-ae1e-4c2b-8490-7f4022098df1" opacity="1.000" fill="none" stroke="#000000" stroke-width="0.500" stroke-opacity="1.000" stroke-linecap="round" stroke-linejoin="round" d="M 53.693 722.318 Q 53.718 722.278 54.290 721.666 Q 54.861 721.054 55.520 720.505 Q 56.179 719.956 56.777 719.583 Q 57.375 719.209 57.934 718.979 Q 58.492 718.750 58.967 718.625 Q 59.443 718.500 60.203 718.406 "></path>
    <path id="STROKE_94bd4ed4-6971-49bb-94c7-75d5d283f367" opacity="1.000" fill="none" stroke="#000000" stroke-width="0.500" stroke-opacity="1.000" stroke-linecap="round" stroke-linejoin="round" d="M 55.773 716.689 Q 55.859 716.688 56.242 716.653 Q 56.626 716.618 56.833 716.563 Q 57.040 716.508 57.349 716.313 Q 57.657 716.119 57.797 715.973 Q 57.937 715.827 58.008 715.592 Q 58.080 715.357 58.032 715.207 Q 58.030 715.193 57.973 715.277 Q 57.915 715.362 57.873 715.508 Q 57.830 715.654 57.755 716.533 "></path>
    <circle id="STROKE_42153bc0-af80-40c3-90a0-a8e1b12dd983" opacity="1.000" fill="#000000" stroke="#000000" stroke-width="0.1" stroke-opacity="1.000" fill-opacity="1.000" cx="48.904" cy="718.768" r="0.250"></circle>
    <circle id="STROKE_b8f572f3-74e2-4567-843e-8bfdcabc6541" opacity="1.000" fill="#000000" stroke="#000000" stroke-width="0.1" stroke-opacity="1.000" fill-opacity="1.000" cx="50.699" cy="716.300" r="0.250"></circle>
    <circle id="STROKE_a5e5ed9a-ffe7-414a-964b-1b6c4901bc09" opacity="1.000" fill="#000000" stroke="#000000" stroke-width="0.1" stroke-opacity="1.000" fill-opacity="1.000" cx="54.261" cy="714.933" r="0.250"></circle>
    <path id="STROKE_79d8d792-1c69-45bc-bbe3-7158ee6af231" opacity="1.000" fill="none" stroke="#000000" stroke-width="0.500" stroke-opacity="1.000" stroke-linecap="round" stroke-linejoin="round" d="M 54.660 714.277 Q 54.817 714.308 55.299 714.413 "></path>
    <circle id="STROKE_3daf14b2-21f4-4982-8d4b-440d12271aef" opacity="1.000" fill="#000000" stroke="#000000" stroke-width="0.1" stroke-opacity="1.000" fill-opacity="1.000" cx="57.994" cy="714.865" r="0.250"></circle>
    <path id="STROKE_bd08b5a4-1dbd-4ba9-b9bc-86a5265d76f1" opacity="1.000" fill="none" stroke="#000000" stroke-width="0.500" stroke-opacity="1.000" stroke-linecap="round" stroke-linejoin="round" d="M 51.414 725.209 Q 51.485 725.186 52.161 724.769 Q 52.837 724.351 53.353 724.020 Q 53.869 723.690 54.332 723.473 Q 54.794 723.256 55.002 723.172 Q 55.209 723.089 55.454 723.007 Q 55.699 722.925 56.328 722.681 Q 56.957 722.437 57.334 722.263 Q 57.711 722.089 57.887 721.995 Q 58.062 721.901 58.156 721.844 Q 58.249 721.788 58.285 721.763 Q 58.321 721.739 58.489 721.630 Q 58.658 721.521 58.765 721.455 Q 58.872 721.390 59.002 721.305 Q 59.131 721.220 59.248 721.137 Q 59.364 721.055 59.411 721.019 Q 59.458 720.983 59.888 720.706 Q 60.318 720.429 60.612 720.227 Q 60.907 720.024 61.082 719.902 Q 61.258 719.779 61.421 719.692 Q 61.584 719.606 61.817 719.526 "></path>
    <path id="STROKE_8215d7f2-de6c-4732-9ba6-94cb7d2a2930" opacity="1.000" fill="none" stroke="#000000" stroke-width="0.500" stroke-opacity="1.000" stroke-linecap="round" stroke-linejoin="round" d="M 53.846 725.679 Q 54.024 725.565 54.968 725.150 Q 55.911 724.736 56.643 724.382 Q 57.375 724.027 57.792 723.761 Q 58.208 723.494 58.491 723.293 Q 58.773 723.092 59.083 722.875 Q 59.392 722.659 60.053 722.458 Q 60.713 722.257 61.252 722.078 Q 61.790 721.899 62.062 721.771 Q 62.334 721.643 62.792 721.394 "></path>
    <path id="STROKE_80d5f984-419f-4e0d-868e-4df06e1f6d18" opacity="1.000" fill="none" stroke="#000000" stroke-width="0.500" stroke-opacity="1.000" stroke-linecap="round" stroke-linejoin="round" d="M 57.294 725.928 Q 57.365 725.877 58.088 725.496 Q 58.810 725.116 59.376 724.886 Q 59.942 724.656 60.214 724.553 Q 60.487 724.449 60.655 724.367 Q 60.822 724.285 61.396 724.100 "></path>
    <path id="STROKE_ab8f8931-46ef-4076-9004-8404b9bdf724" opacity="1.000" fill="none" stroke="#000000" stroke-width="0.500" stroke-opacity="1.000" stroke-linecap="round" stroke-linejoin="round" d="M 87.043 745.382 Q 87.206 745.400 91.442 746.101 "></path>
    <circle id="STROKE_e8e0391d-459b-49f3-b057-5d5cf8390f8e" opacity="1.000" fill="#000000" stroke="#000000" stroke-width="0.1" stroke-opacity="1.000" fill-opacity="1.000" cx="92.202" cy="731.419" r="0.250"></circle>
    <path id="STROKE_8cf913b8-6959-4182-88bf-9d924861b924" opacity="1.000" fill="none" stroke="#000000" stroke-width="0.500" stroke-opacity="1.000" stroke-linecap="round" stroke-linejoin="round" d="M 21.372 759.445 Q 21.478 759.512 23.242 764.601 Q 23.213 764.585 22.860 763.401 Q 22.507 762.217 22.319 760.813 Q 22.130 759.408 22.118 758.218 Q 22.105 757.027 22.257 755.699 Q 22.409 754.370 22.513 753.717 Q 22.618 753.064 22.912 752.323 Q 23.206 751.581 23.442 751.227 Q 23.678 750.873 23.856 750.731 Q 24.033 750.589 24.227 750.597 Q 24.421 750.605 24.715 750.905 Q 25.009 751.205 25.272 751.915 Q 25.534 752.626 25.515 753.948 Q 25.496 755.270 25.404 755.999 Q 25.311 756.728 25.185 757.455 Q 25.058 758.182 24.966 758.649 Q 24.874 759.115 24.665 760.085 Q 24.455 761.055 24.350 761.611 Q 24.246 762.167 24.407 762.571 Q 24.529 762.659 25.094 762.267 Q 25.659 761.875 26.086 761.454 Q 26.512 761.034 26.741 760.863 Q 26.969 760.692 27.090 760.627 Q 27.211 760.561 27.421 760.542 Q 27.631 760.524 27.892 760.661 Q 28.154 760.799 28.289 760.878 Q 28.423 760.958 28.516 760.993 Q 28.609 761.028 28.760 761.046 Q 28.911 761.064 29.363 760.808 Q 29.815 760.551 30.212 760.249 Q 30.610 759.948 31.036 759.723 Q 31.462 759.499 31.761 759.310 Q 32.061 759.121 32.309 758.684 Q 32.557 758.248 32.670 757.711 Q 32.783 757.174 32.871 756.800 Q 32.959 756.425 33.072 756.250 Q 33.186 756.074 33.245 756.020 Q 33.304 755.966 33.309 755.956 Q 33.314 755.946 33.505 755.878 Q 33.697 755.810 33.783 755.763 Q 33.868 755.716 33.902 755.699 Q 33.935 755.682 34.194 755.244 Q 34.454 754.806 34.606 754.478 Q 34.759 754.150 34.829 754.014 Q 34.899 753.878 35.118 753.421 Q 35.338 752.963 35.445 752.673 Q 35.553 752.384 35.550 752.015 Q 35.548 751.647 35.278 750.871 Q 35.009 750.096 34.768 749.340 Q 34.528 748.583 34.414 748.210 Q 34.418 748.216 34.483 748.919 Q 34.547 749.623 35.003 750.904 Q 35.458 752.184 35.829 752.945 Q 36.199 753.705 36.397 754.062 Q 36.595 754.418 36.846 754.814 Q 37.097 755.209 38.593 756.512 "></path>
    <path id="STROKE_8f2e7ad2-2f96-484c-abd6-3396c901bad6" opacity="1.000" fill="none" stroke="#000000" stroke-width="0.500" stroke-opacity="1.000" stroke-linecap="round" stroke-linejoin="round" d="M 22.696 766.897 Q 22.626 766.851 22.564 766.802 Q 22.563 766.697 24.583 765.648 Q 26.604 764.598 28.881 763.396 Q 31.158 762.194 32.378 761.507 Q 33.598 760.819 34.338 760.385 Q 35.078 759.952 35.961 759.404 Q 36.845 758.856 38.263 757.931 Q 39.680 757.006 40.230 756.654 Q 40.780 756.302 41.462 755.903 Q 42.144 755.503 42.628 755.297 Q 43.112 755.091 43.430 755.018 Q 43.749 754.945 44.240 754.903 "></path>
    <path id="STROKE_79749f0f-d1b2-41c3-a079-9d32ee31761d" opacity="1.000" fill="none" stroke="#000000" stroke-width="0.500" stroke-opacity="1.000" stroke-linecap="round" stroke-linejoin="round" d="M 24.147 769.614 Q 24.190 769.702 24.466 770.579 Q 24.741 771.457 24.921 772.028 Q 25.100 772.600 25.299 773.160 "></path>
    <circle id="STROKE_c473d328-c0e3-4a07-85dc-bb5c05f1a92b" opacity="1.000" fill="#000000" stroke="#000000" stroke-width="0.1" stroke-opacity="1.000" fill-opacity="1.000" cx="23.995" cy="770.099" r="0.250"></circle>
    <path id="STROKE_50697078-8c16-4f7d-8716-5ee18f1a61d1" opacity="1.000" fill="none" stroke="#000000" stroke-width="0.500" stroke-opacity="1.000" stroke-linecap="round" stroke-linejoin="round" d="M 24.386 771.153 Q 24.389 771.102 24.320 770.672 Q 24.250 770.243 24.238 769.928 Q 24.225 769.612 24.257 769.484 Q 24.288 769.356 24.326 769.301 Q 24.364 769.245 24.388 769.230 Q 24.413 769.214 24.471 769.221 Q 24.528 769.228 24.538 769.239 Q 24.548 769.251 24.592 769.295 Q 24.637 769.340 24.918 769.871 Q 25.199 770.403 25.907 771.467 Q 25.924 771.475 26.095 771.463 Q 26.266 771.451 26.534 771.485 Q 26.645 771.534 27.203 771.942 Q 27.371 771.973 27.609 771.942 Q 27.847 771.912 28.045 771.830 Q 28.242 771.748 28.369 771.691 Q 28.495 771.634 28.542 771.617 Q 28.589 771.600 28.821 771.450 Q 29.053 771.299 29.147 771.215 Q 29.240 771.131 29.391 770.966 Q 29.543 770.801 29.597 770.732 Q 29.651 770.664 29.781 770.463 Q 29.911 770.261 29.932 770.223 Q 29.954 770.184 30.301 769.810 Q 30.397 769.782 30.674 769.700 Q 30.952 769.618 31.266 769.479 Q 31.580 769.340 31.819 769.106 Q 32.058 768.871 32.131 768.757 Q 32.204 768.642 32.220 768.597 Q 32.235 768.552 32.241 768.473 Q 32.246 768.394 32.096 767.886 "></path>
    <path id="STROKE_cf8eee9e-feb4-45fc-b715-325fc2f280bd" opacity="1.000" fill="none" stroke="#000000" stroke-width="0.500" stroke-opacity="1.000" stroke-linecap="round" stroke-linejoin="round" d="M 30.047 764.584 Q 29.913 765.133 29.893 765.318 Q 29.872 765.503 29.888 765.853 Q 29.904 766.202 30.140 766.926 Q 30.375 767.650 31.132 768.322 Q 31.165 768.322 31.362 768.345 Q 31.559 768.369 31.771 768.404 Q 31.983 768.439 32.159 768.425 Q 32.336 768.410 32.401 768.390 Q 32.467 768.370 32.719 768.207 Q 32.970 768.044 33.083 767.959 Q 33.195 767.875 33.277 767.834 Q 33.359 767.794 33.478 767.763 Q 33.598 767.733 33.692 767.695 Q 33.787 767.656 34.278 767.181 Q 34.270 767.193 34.209 767.246 Q 34.149 767.299 34.095 767.417 Q 34.041 767.535 34.041 767.670 Q 34.040 767.804 34.087 767.982 Q 34.133 768.160 34.479 768.399 Q 34.824 768.638 34.968 768.723 Q 35.112 768.808 35.214 768.927 Q 35.315 769.046 35.305 769.303 Q 35.295 769.560 35.135 769.901 Q 34.976 770.242 34.627 770.596 Q 34.277 770.950 33.456 771.160 Q 33.391 771.048 33.475 770.872 Q 33.558 770.697 34.340 769.951 Q 35.123 769.205 35.549 768.802 Q 35.976 768.399 36.213 768.139 Q 36.450 767.879 36.610 767.615 Q 36.771 767.351 37.175 766.915 Q 37.580 766.479 37.864 766.282 Q 38.149 766.086 38.322 766.014 Q 38.494 765.942 38.889 765.801 Q 39.285 765.660 39.473 765.581 Q 39.661 765.502 39.784 765.480 Q 39.907 765.459 40.278 765.426 Q 40.297 765.418 41.166 764.910 "></path>
    <path id="STROKE_e53ae9c3-f0f0-42a6-a6db-f48aaf6baf03" opacity="1.000" fill="none" stroke="#000000" stroke-width="0.500" stroke-opacity="1.000" stroke-linecap="round" stroke-linejoin="round" d="M 42.280 763.707 Q 42.521 763.404 43.329 762.696 "></path>
    <circle id="STROKE_c7d94690-409a-4e5b-8303-b498f005aa9f" opacity="1.000" fill="#000000" stroke="#000000" stroke-width="0.1" stroke-opacity="1.000" fill-opacity="1.000" cx="96.187" cy="725.518" r="0.250"></circle>
    <path id="STROKE_b6aed989-636f-4b24-85b4-2a5922b5ff56" opacity="1.000" fill="none" stroke="#000000" stroke-width="0.500" stroke-opacity="1.000" stroke-linecap="round" stroke-linejoin="round" d="M 58.282 750.602 Q 58.453 750.442 59.200 749.829 Q 59.948 749.216 61.086 748.614 Q 62.223 748.013 63.839 747.178 Q 65.454 746.344 66.515 745.742 Q 67.576 745.140 68.641 744.538 Q 69.706 743.936 70.482 743.505 Q 71.258 743.074 71.870 742.741 Q 72.483 742.408 73.921 741.585 Q 75.359 740.763 76.868 739.910 Q 78.377 739.057 80.323 738.223 Q 80.318 738.230 80.243 738.263 Q 80.168 738.295 80.011 738.425 "></path>
    <path id="STROKE_1eaa8b6a-7039-4dd6-8dc9-f0b59d1fee08" opacity="1.000" fill="none" stroke="#000000" stroke-width="0.500" stroke-opacity="1.000" stroke-linecap="round" stroke-linejoin="round" d="M 59.569 741.723 Q 59.527 741.580 58.905 738.092 Q 58.918 738.086 59.888 743.562 Q 59.850 743.553 59.781 743.188 Q 59.712 742.824 59.817 741.865 Q 59.923 740.906 60.420 739.588 Q 60.917 738.270 61.409 737.337 Q 61.900 736.404 62.202 735.994 Q 62.503 735.584 62.765 735.495 Q 62.829 735.511 62.879 736.265 Q 62.928 737.018 62.786 737.758 Q 62.645 738.497 62.509 739.041 Q 62.373 739.585 62.224 740.372 Q 62.075 741.159 62.046 741.804 Q 62.018 742.449 62.088 742.788 Q 62.159 743.127 62.241 743.306 Q 62.324 743.485 62.452 743.559 Q 62.581 743.633 62.786 743.628 Q 62.990 743.623 63.334 743.429 Q 63.678 743.234 63.978 743.048 Q 64.277 742.862 64.539 742.764 Q 64.801 742.666 64.951 742.646 Q 65.101 742.625 65.558 742.604 Q 66.016 742.584 66.231 742.542 Q 66.447 742.500 66.603 742.439 Q 66.759 742.379 66.846 742.298 Q 66.934 742.217 66.983 742.110 Q 67.033 742.003 67.043 741.908 Q 67.053 741.813 67.044 741.747 Q 67.036 741.681 66.957 741.443 Q 66.879 741.205 66.864 741.161 Q 66.849 741.117 66.715 740.694 Q 66.580 740.272 66.519 740.093 Q 66.458 739.915 66.423 739.855 Q 66.388 739.795 66.374 739.780 Q 66.360 739.766 66.313 739.724 Q 66.267 739.683 66.358 739.577 Q 66.450 739.471 66.586 739.367 Q 66.723 739.263 67.018 739.350 Q 67.313 739.436 67.783 739.722 Q 68.253 740.008 68.360 740.012 Q 68.468 740.016 68.740 740.006 Q 69.012 739.996 69.137 739.971 Q 69.262 739.946 69.486 739.839 Q 69.709 739.731 69.811 739.535 Q 69.912 739.339 69.939 739.135 Q 69.966 738.930 69.941 738.795 Q 69.917 738.659 69.814 738.473 Q 69.781 738.304 69.727 738.127 Q 69.673 737.951 69.521 737.726 Q 69.369 737.502 69.296 737.425 Q 69.224 737.349 69.205 737.329 Q 69.186 737.310 69.441 737.367 Q 69.696 737.423 70.050 737.390 Q 70.404 737.357 70.661 737.090 Q 70.917 736.822 71.083 736.222 Q 71.250 735.622 71.325 735.063 Q 71.401 734.503 71.410 734.220 Q 71.419 733.937 71.397 733.806 Q 71.376 733.674 71.343 733.592 Q 71.310 733.509 71.151 733.299 Q 70.992 733.088 70.579 732.857 Q 70.166 732.625 69.768 732.650 Q 69.665 732.779 69.869 733.241 Q 70.072 733.704 70.299 733.979 Q 70.525 734.254 70.866 734.516 Q 71.207 734.777 72.287 735.487 Q 72.312 735.503 72.321 735.583 Q 72.331 735.663 72.238 736.154 Q 72.145 736.645 72.069 737.086 Q 71.994 737.527 72.000 737.791 Q 72.006 738.055 72.074 738.253 Q 72.141 738.451 72.265 738.537 Q 72.389 738.622 72.502 738.648 Q 72.615 738.673 72.714 738.680 Q 72.813 738.688 73.075 738.664 Q 73.337 738.641 73.706 738.603 Q 74.074 738.565 74.741 738.575 Q 74.998 738.479 75.424 738.403 Q 75.851 738.327 77.102 738.472 "></path>
    <path id="STROKE_af02a14e-28cb-4190-9f45-50ee492eab3f" opacity="1.000" fill="none" stroke="#000000" stroke-width="0.500" stroke-opacity="1.000" stroke-linecap="round" stroke-linejoin="round" d="M 62.010 744.350 Q 62.062 744.335 63.206 743.680 Q 64.351 743.025 65.108 742.549 Q 65.864 742.074 67.244 740.957 Q 68.625 739.839 69.545 739.051 Q 70.465 738.263 71.010 737.778 Q 71.555 737.292 72.132 736.836 Q 72.709 736.381 73.003 736.182 Q 73.297 735.983 73.691 735.794 Q 74.085 735.604 74.338 735.551 Q 74.592 735.499 74.747 735.512 Q 74.902 735.525 74.992 735.607 Q 75.082 735.690 75.239 736.051 "></path>
    <circle id="STROKE_9623af8c-931e-43b0-8958-d00f987e09a7" opacity="1.000" fill="#000000" stroke="#000000" stroke-width="0.1" stroke-opacity="1.000" fill-opacity="1.000" cx="96.475" cy="726.910" r="0.250"></circle>
    <circle id="STROKE_1bbbc66c-8a13-4d54-a238-8d068d1bce97" opacity="1.000" fill="#000000" stroke="#000000" stroke-width="0.1" stroke-opacity="1.000" fill-opacity="1.000" cx="98.719" cy="731.832" r="0.250"></circle>
    <path id="STROKE_6d44405b-a568-434b-9659-c33eb84b7d2b" opacity="1.000" fill="none" stroke="#000000" stroke-width="0.500" stroke-opacity="1.000" stroke-linecap="round" stroke-linejoin="round" d="M 64.692 751.028 Q 64.744 751.163 64.945 752.670 Q 65.145 754.177 64.977 755.430 Q 64.924 755.427 64.713 755.013 Q 64.503 754.599 64.485 753.452 Q 64.468 752.305 64.640 751.178 Q 64.813 750.051 64.971 749.402 Q 65.129 748.753 65.281 748.343 Q 65.434 747.933 65.621 747.675 Q 65.807 747.416 65.940 747.335 Q 66.072 747.253 66.091 747.249 Q 66.110 747.244 66.191 747.255 Q 66.272 747.266 66.428 747.520 Q 66.585 747.773 66.634 748.138 Q 66.682 748.503 66.602 749.340 Q 66.522 750.177 66.390 750.812 Q 66.259 751.446 66.148 751.990 Q 66.038 752.534 66.073 753.225 Q 66.168 753.337 66.763 753.180 Q 67.358 753.023 67.788 752.824 Q 68.217 752.625 68.475 752.562 Q 68.733 752.499 68.932 752.478 Q 69.130 752.457 69.394 752.469 Q 69.659 752.480 69.874 752.471 Q 70.090 752.461 70.537 752.244 Q 70.985 752.026 71.222 751.852 Q 71.460 751.678 71.618 751.557 Q 71.775 751.437 71.871 751.359 Q 71.967 751.281 72.147 751.065 Q 72.327 750.849 72.423 750.720 Q 72.519 750.592 72.660 750.468 Q 72.801 750.344 72.836 750.319 Q 72.871 750.294 73.028 750.282 Q 73.186 750.270 73.337 750.306 Q 73.489 750.342 73.674 750.390 Q 73.859 750.438 74.072 750.488 Q 74.286 750.539 74.455 750.546 Q 74.624 750.554 75.071 750.339 Q 75.519 750.125 75.765 749.949 Q 76.010 749.774 76.151 749.658 Q 76.292 749.541 76.517 749.173 Q 76.741 748.805 76.858 748.559 Q 76.974 748.312 77.306 747.974 Q 77.638 747.635 77.988 747.353 Q 78.338 747.070 78.446 746.962 Q 78.554 746.853 78.619 746.790 Q 78.683 746.727 78.714 746.642 Q 78.745 746.557 78.721 746.208 Q 78.697 745.860 78.458 745.322 Q 78.219 744.783 78.027 744.372 Q 77.834 743.961 77.711 743.350 Q 77.696 743.343 78.123 743.671 Q 78.549 743.998 81.220 745.444 "></path>
    <path id="STROKE_472ab7ad-efa7-4a4f-bcf9-56cc749eff69" opacity="1.000" fill="none" stroke="#000000" stroke-width="0.500" stroke-opacity="1.000" stroke-linecap="round" stroke-linejoin="round" d="M 76.958 742.861 Q 77.076 743.003 78.164 744.600 Q 79.251 746.196 79.522 746.496 Q 79.793 746.796 80.131 747.048 Q 80.468 747.300 80.710 747.422 Q 80.951 747.544 81.941 747.766 "></path>
  </g>
  <g id="New_Layer_1" opacity="1.000">
    <path id="STROKE_c87603b4-cb59-46e7-8df3-c448f8b29b8a" opacity="1.000" fill="none" stroke="#000000" stroke-width="0.971" stroke-opacity="1.000" stroke-linecap="round" stroke-linejoin="round" d="M -52.999 662.321 Q -52.816 662.215 -50.301 659.696 Q -47.786 657.178 -44.381 654.172 "></path>
    <path id="STROKE_829ecc73-0ce1-4a1f-b9e8-0b887058b44d" opacity="1.000" fill="none" stroke="#000000" stroke-width="0.971" stroke-opacity="1.000" stroke-linecap="round" stroke-linejoin="round" d="M -52.297 660.383 Q -52.347 660.884 -51.608 661.961 Q -50.870 663.039 -50.353 663.542 Q -49.835 664.046 -48.908 665.215 Q -47.980 666.384 -47.078 667.356 Q -46.176 668.328 -45.695 668.979 Q -45.213 669.631 -45.079 669.936 Q -44.944 670.241 -44.629 670.794 Q -44.314 671.348 -44.117 671.741 Q -43.920 672.135 -43.217 673.098 Q -42.513 674.060 -41.801 675.005 Q -41.089 675.949 -40.447 676.754 Q -39.804 677.558 -38.999 678.714 Q -38.194 679.869 -37.180 681.302 Q -36.166 682.735 -35.561 683.481 Q -34.957 684.227 -33.815 686.065 Q -32.673 687.902 -32.202 688.880 Q -31.731 689.858 -31.436 690.308 Q -31.141 690.759 -30.998 690.987 Q -30.854 691.215 -30.751 691.448 Q -30.647 691.680 -30.064 692.688 Q -29.480 693.697 -29.221 694.167 Q -28.962 694.637 -28.008 696.067 Q -27.054 697.497 -26.633 698.103 Q -26.212 698.709 -25.407 699.527 Q -24.602 700.346 -24.007 701.627 Q -23.412 702.909 -21.876 704.746 "></path>
    <path id="STROKE_13ab837e-9c30-4be8-b9ca-2dce64f6bd79" opacity="1.000" fill="none" stroke="#000000" stroke-width="0.971" stroke-opacity="1.000" stroke-linecap="round" stroke-linejoin="round" d="M 99.301 741.636 Q 99.615 740.982 101.302 738.661 "></path>
    <path id="STROKE_25045129-62ac-4cf5-ba2c-637fc6cf80fa" opacity="1.000" fill="none" stroke="#000000" stroke-width="0.971" stroke-opacity="1.000" stroke-linecap="round" stroke-linejoin="round" d="M 95.088 731.167 Q 95.169 731.300 96.857 733.175 Q 98.545 735.049 102.399 737.820 "></path>
    <path id="STROKE_fa8b17e4-bd41-4c27-9a7d-b90d16f02417" opacity="1.000" fill="none" stroke="#000000" stroke-width="0.971" stroke-opacity="1.000" stroke-linecap="round" stroke-linejoin="round" d="M -50.653 664.466 Q -50.872 664.662 -52.179 666.342 Q -53.487 668.022 -57.574 674.721 Q -57.291 674.752 -56.530 674.741 "></path>
    <path id="STROKE_3a1b8cbb-3302-47c9-ad14-d294adb69422" opacity="1.000" fill="none" stroke="#000000" stroke-width="0.971" stroke-opacity="1.000" stroke-linecap="round" stroke-linejoin="round" d="M -56.794 673.258 Q -56.560 673.458 -56.256 673.578 Q -55.952 673.698 -55.024 674.392 Q -54.097 675.086 -53.622 675.734 Q -53.148 676.382 -52.457 677.381 Q -51.767 678.379 -50.088 679.954 Q -48.409 681.529 -46.913 683.587 Q -45.418 685.644 -44.425 686.951 Q -43.432 688.258 -42.924 688.815 Q -42.416 689.373 -41.091 691.306 Q -39.766 693.240 -38.973 694.333 Q -38.179 695.426 -36.630 697.263 Q -35.081 699.099 -34.136 700.219 Q -33.191 701.339 -32.147 702.459 Q -31.103 703.579 -30.569 704.210 Q -30.034 704.841 -29.717 705.214 Q -29.400 705.587 -28.994 706.048 Q -28.588 706.509 -28.429 706.683 Q -28.270 706.858 -27.829 707.336 Q -27.387 707.815 -25.770 709.821 Q -24.153 711.828 -23.382 712.948 Q -22.612 714.069 -21.831 715.047 Q -21.050 716.025 -20.621 716.508 Q -20.192 716.991 -19.762 717.594 Q -19.333 718.198 -18.689 718.998 Q -18.046 719.799 -17.430 720.437 Q -16.814 721.075 -16.303 721.803 Q -15.792 722.532 -14.572 723.937 Q -13.352 725.343 -12.643 726.161 Q -11.934 726.980 -11.608 727.522 Q -11.283 728.065 -11.003 728.573 Q -10.723 729.082 -10.317 729.553 "></path>
    <path id="STROKE_af7b7d58-7e80-4385-8568-76216817a6fc" opacity="1.000" fill="none" stroke="#000000" stroke-width="0.971" stroke-opacity="1.000" stroke-linecap="round" stroke-linejoin="round" d="M 86.324 713.663 Q 86.684 714.138 87.704 715.528 Q 88.724 716.919 90.402 718.398 Q 92.080 719.877 93.306 720.770 Q 94.533 721.663 95.980 722.398 Q 97.428 723.134 99.207 724.484 "></path>
    <path id="STROKE_f10652d5-fe92-40a0-9b0e-20d7c393ca7c" opacity="1.000" fill="none" stroke="#000000" stroke-width="0.971" stroke-opacity="1.000" stroke-linecap="round" stroke-linejoin="round" d="M 100.048 725.805 Q 100.039 726.406 99.378 727.854 Q 98.716 729.301 98.357 730.376 Q 97.999 731.451 97.908 732.218 "></path>
    <path id="STROKE_8dcade71-ec6e-4646-aaa3-3888f041fca8" opacity="1.000" fill="none" stroke="#000000" stroke-width="2.700" stroke-opacity="1.000" stroke-linecap="round" stroke-linejoin="round" d="M 99.368 693.160 Q 99.577 693.119 101.451 693.083 Q 103.325 693.046 104.635 693.121 Q 105.945 693.195 108.617 693.351 Q 111.289 693.506 112.698 693.629 Q 114.108 693.751 118.749 693.268 Q 123.391 692.785 126.423 692.317 Q 129.456 691.848 132.296 691.544 Q 135.136 691.240 136.928 691.030 Q 138.719 690.820 140.414 690.728 Q 142.109 690.637 143.403 690.599 Q 144.697 690.560 146.403 690.652 Q 148.109 690.744 149.563 691.116 Q 151.017 691.489 151.716 691.745 Q 152.416 692.001 153.280 692.324 Q 154.144 692.647 154.929 692.938 Q 155.713 693.229 157.641 693.572 "></path>
    <path id="STROKE_269e8aaa-62e8-4dff-9781-ce2136a8e9ed" opacity="1.000" fill="none" stroke="#000000" stroke-width="2.700" stroke-opacity="1.000" stroke-linecap="round" stroke-linejoin="round" d="M 155.982 683.720 Q 156.250 683.977 158.132 685.931 Q 160.014 687.884 161.081 688.918 Q 162.148 689.952 162.894 691.041 Q 163.640 692.130 163.885 692.798 Q 164.130 693.467 164.143 693.701 Q 164.156 693.935 163.868 694.686 Q 163.580 695.438 162.187 697.002 Q 160.794 698.567 159.369 700.102 Q 157.943 701.636 157.189 702.530 Q 156.436 703.425 155.714 704.346 "></path>
  </g>
  <g id="Tablet" opacity="1.000">
    <path id="STROKE_e8897db0-594b-4cf0-b2ff-089f0069a1ff" opacity="1.000" fill="none" stroke="#000000" stroke-width="0.500" stroke-opacity="1.000" stroke-linecap="round" stroke-linejoin="round" d="M 187.082 612.679 L 290.903 612.679 L 290.903 774.995 L 187.082 774.995 Z"></path>
    <path id="STROKE_8ca7b5f4-535b-4c5d-a978-b481fbfec49e" opacity="1.000" fill="none" stroke="#000000" stroke-width="0.971" stroke-opacity="1.000" stroke-linecap="round" stroke-linejoin="round" d="M 187.875 608.264 L 290.157 608.264 "></path>
    <path id="STROKE_3eda224d-f216-4558-abb5-5b2c925fbb94" opacity="1.000" fill="none" stroke="#000000" stroke-width="0.971" stroke-opacity="1.000" stroke-linecap="round" stroke-linejoin="round" d="M 294.381 613.236 L 294.381 779.048 "></path>
    <path id="STROKE_a029bba6-cda1-423f-9248-517c5e7887e6" opacity="1.000" fill="none" stroke="#000000" stroke-width="0.971" stroke-opacity="1.000" stroke-linecap="round" stroke-linejoin="round" d="M 288.797 786.780 L 189.409 786.780 "></path>
    <path id="STROKE_4fe6d233-afcb-402b-88ca-d05f93c77d16" opacity="1.000" fill="none" stroke="#000000" stroke-width="0.971" stroke-opacity="1.000" stroke-linecap="round" stroke-linejoin="round" d="M 183.934 781.041 L 183.934 613.133 "></path>
    <path id="STROKE_da4a5c4c-22a9-4152-bf92-b277722b63f4" opacity="1.000" fill="none" stroke="#000000" stroke-width="0.971" stroke-opacity="1.000" stroke-linecap="round" stroke-linejoin="round" d="M 183.767 613.348 Q 183.837 613.256 183.868 613.016 Q 183.898 612.777 183.913 612.679 Q 183.928 612.581 183.906 612.468 Q 183.884 612.354 183.893 612.290 Q 183.902 612.226 183.910 612.198 Q 183.919 612.170 183.928 612.150 Q 183.936 612.130 183.942 612.111 Q 183.947 612.093 183.953 612.069 Q 183.958 612.045 183.952 612.066 Q 183.947 612.088 183.974 612.012 Q 184.001 611.937 184.012 611.842 Q 184.023 611.748 184.020 611.671 Q 184.018 611.594 184.057 611.414 Q 184.097 611.234 184.112 611.134 Q 184.128 611.033 184.164 610.868 Q 184.199 610.703 184.253 610.578 Q 184.307 610.452 184.328 610.417 Q 184.348 610.382 184.366 610.351 Q 184.385 610.320 184.415 610.275 Q 184.446 610.229 184.424 610.250 Q 184.403 610.272 184.465 610.180 Q 184.527 610.087 184.577 610.044 Q 184.626 610.001 184.657 609.964 Q 184.688 609.927 184.731 609.854 Q 184.773 609.782 184.818 609.717 Q 184.863 609.651 184.857 609.665 Q 184.851 609.679 184.874 609.642 Q 184.898 609.605 185.060 609.452 Q 185.222 609.298 185.361 609.174 Q 185.500 609.049 185.592 608.972 Q 185.685 608.894 185.738 608.863 Q 185.792 608.832 185.808 608.826 Q 185.824 608.820 185.865 608.791 Q 185.905 608.763 185.918 608.755 Q 185.931 608.747 185.985 608.714 Q 186.038 608.681 186.066 608.658 Q 186.093 608.636 186.098 608.632 Q 186.103 608.629 186.105 608.628 Q 186.107 608.627 186.101 608.627 Q 186.096 608.628 186.141 608.597 Q 186.186 608.566 186.214 608.560 Q 186.242 608.555 186.234 608.558 Q 186.227 608.561 186.238 608.554 Q 186.250 608.547 186.501 608.447 Q 186.752 608.346 186.983 608.267 Q 187.214 608.188 187.439 608.127 Q 187.663 608.067 187.806 608.049 Q 187.949 608.032 188.107 608.044 "></path>
    <path id="STROKE_95765da4-dd11-4ef6-8d56-ffe5b7bc0393" opacity="1.000" fill="none" stroke="#000000" stroke-width="0.971" stroke-opacity="1.000" stroke-linecap="round" stroke-linejoin="round" d="M 289.795 608.495 Q 289.859 608.480 290.063 608.432 Q 290.267 608.383 290.435 608.410 Q 290.603 608.436 290.705 608.442 Q 290.806 608.447 290.818 608.464 Q 290.830 608.480 290.921 608.518 Q 291.013 608.556 291.056 608.558 Q 291.100 608.560 291.140 608.568 Q 291.179 608.577 291.178 608.575 Q 291.177 608.573 291.188 608.574 Q 291.199 608.574 291.180 608.576 Q 291.160 608.577 291.299 608.587 Q 291.438 608.596 291.563 608.581 Q 291.688 608.566 291.807 608.601 Q 291.925 608.637 291.980 608.656 Q 292.035 608.676 292.146 608.724 Q 292.257 608.771 292.343 608.832 Q 292.430 608.892 292.449 608.911 Q 292.468 608.930 292.516 608.974 Q 292.563 609.017 292.556 609.011 Q 292.548 609.004 292.548 609.004 Q 292.547 609.003 292.560 609.015 Q 292.572 609.028 292.586 609.040 Q 292.599 609.053 292.619 609.064 Q 292.638 609.076 292.715 609.161 Q 292.792 609.246 292.851 609.316 Q 292.910 609.386 292.944 609.423 Q 292.978 609.459 292.985 609.466 Q 292.992 609.473 292.987 609.470 Q 292.983 609.467 293.000 609.487 Q 293.017 609.506 293.264 609.764 Q 293.511 610.022 293.633 610.161 Q 293.755 610.300 293.805 610.369 Q 293.854 610.438 293.888 610.500 Q 293.921 610.562 293.939 610.595 Q 293.957 610.628 293.972 610.650 Q 293.986 610.673 293.988 610.678 Q 293.991 610.683 293.986 610.676 Q 293.982 610.669 294.003 610.703 Q 294.024 610.737 294.065 610.831 Q 294.107 610.926 294.128 610.983 Q 294.150 611.041 294.154 611.050 Q 294.159 611.059 294.156 611.053 Q 294.154 611.048 294.160 611.072 Q 294.167 611.095 294.215 611.216 Q 294.264 611.338 294.292 611.443 Q 294.319 611.547 294.330 611.596 Q 294.341 611.644 294.349 611.663 Q 294.357 611.682 294.356 611.690 Q 294.356 611.698 294.356 611.689 Q 294.356 611.680 294.363 611.794 Q 294.370 611.908 294.416 612.131 Q 294.462 612.355 294.473 612.512 Q 294.483 612.669 294.501 612.902 Q 294.518 613.136 294.619 613.497 "></path>
    <path id="STROKE_5649378c-0224-4735-8019-cafa207e88e4" opacity="1.000" fill="none" stroke="#000000" stroke-width="0.971" stroke-opacity="1.000" stroke-linecap="round" stroke-linejoin="round" d="M 289.021 786.855 Q 289.196 786.737 289.343 786.716 Q 289.490 786.694 289.601 786.710 Q 289.712 786.726 289.817 786.709 Q 289.921 786.693 289.984 786.688 Q 290.046 786.683 290.057 786.676 Q 290.067 786.668 290.048 786.679 Q 290.029 786.689 290.140 786.632 Q 290.251 786.574 290.450 786.499 Q 290.649 786.424 290.760 786.391 Q 290.870 786.357 290.860 786.365 Q 290.851 786.373 291.088 786.300 Q 291.326 786.227 291.453 786.161 Q 291.581 786.095 291.637 786.045 Q 291.694 785.996 291.762 785.944 Q 291.831 785.892 291.853 785.876 Q 291.876 785.860 291.881 785.854 Q 291.887 785.847 291.864 785.876 Q 291.842 785.904 291.992 785.779 Q 292.143 785.655 292.253 785.564 Q 292.362 785.473 292.884 784.723 "></path>
    <path id="STROKE_d509b811-0f68-4693-bf85-2ade39da271b" opacity="1.000" fill="none" stroke="#000000" stroke-width="0.971" stroke-opacity="1.000" stroke-linecap="round" stroke-linejoin="round" d="M 189.753 786.899 Q 189.705 786.912 189.543 786.823 Q 189.382 786.735 189.150 786.789 Q 188.919 786.843 188.827 786.895 Q 188.735 786.948 188.680 786.939 Q 188.625 786.930 188.579 786.929 Q 188.534 786.927 188.551 786.928 Q 188.567 786.928 188.544 786.922 Q 188.520 786.915 188.548 786.928 Q 188.575 786.941 188.384 786.924 Q 188.192 786.908 188.060 786.862 Q 187.929 786.815 187.888 786.800 Q 187.848 786.785 187.841 786.783 Q 187.834 786.781 187.821 786.777 Q 187.809 786.772 187.747 786.752 Q 187.686 786.731 187.675 786.728 Q 187.664 786.726 187.683 786.731 Q 187.701 786.736 187.646 786.724 Q 187.590 786.712 187.531 786.691 Q 187.472 786.670 187.476 786.670 Q 187.480 786.671 187.463 786.666 Q 187.446 786.662 187.354 786.645 Q 187.262 786.629 187.167 786.605 Q 187.071 786.581 186.999 786.571 Q 186.928 786.561 186.877 786.553 Q 186.826 786.545 186.762 786.535 Q 186.699 786.525 186.661 786.514 Q 186.623 786.504 186.597 786.496 Q 186.570 786.487 186.510 786.461 Q 186.450 786.435 186.472 786.449 Q 186.493 786.464 186.399 786.412 Q 186.305 786.360 186.236 786.308 Q 186.167 786.256 186.142 786.239 Q 186.118 786.222 186.104 786.209 Q 186.090 786.195 186.087 786.195 Q 186.083 786.194 186.086 786.195 Q 186.090 786.197 186.002 786.141 Q 185.913 786.085 185.927 786.091 Q 185.825 785.998 185.657 785.918 Q 185.489 785.837 185.322 785.714 Q 185.155 785.591 185.084 785.512 Q 185.013 785.434 184.989 785.392 Q 184.965 785.351 184.942 785.313 Q 184.919 785.275 184.899 785.244 Q 184.880 785.213 184.879 785.212 Q 184.877 785.210 184.875 785.209 Q 184.873 785.208 184.856 785.181 Q 184.838 785.153 184.814 785.108 Q 184.790 785.063 184.766 785.019 Q 184.743 784.975 184.735 784.958 Q 184.727 784.941 184.706 784.891 Q 184.685 784.841 184.638 784.734 Q 184.590 784.626 184.562 784.573 Q 184.534 784.519 184.523 784.492 Q 184.512 784.464 184.517 784.462 Q 184.522 784.461 184.473 784.405 Q 184.423 784.348 184.347 784.028 Q 184.270 783.707 184.254 783.548 Q 184.237 783.388 184.222 783.328 Q 184.207 783.268 184.206 783.269 Q 184.205 783.269 184.188 783.229 Q 184.171 783.190 184.155 783.155 Q 184.140 783.120 184.146 783.116 Q 184.153 783.112 184.130 783.121 Q 184.107 783.130 184.057 782.729 Q 184.008 782.328 184.003 781.994 Q 183.998 781.660 183.981 781.455 Q 183.965 781.250 184.010 781.145 Q 184.056 781.040 184.096 780.878 Q 184.136 780.717 184.152 780.536 "></path>
    <path id="STROKE_caf40f0d-9bcf-42ce-bcd1-23e0949ebd91" opacity="1.000" fill="none" stroke="#000000" stroke-width="0.971" stroke-opacity="1.000" stroke-linecap="round" stroke-linejoin="round" d="M 292.981 784.530 Q 292.966 784.558 293.051 784.476 Q 293.137 784.393 293.200 784.324 Q 293.263 784.255 293.298 784.214 Q 293.333 784.172 293.334 784.171 Q 293.336 784.169 293.347 784.154 Q 293.358 784.139 293.363 784.126 Q 293.368 784.113 293.364 784.125 Q 293.360 784.138 293.364 784.124 Q 293.368 784.110 293.366 784.124 Q 293.363 784.138 293.387 784.060 Q 293.411 783.981 293.441 783.934 Q 293.472 783.887 293.492 783.863 Q 293.512 783.838 293.507 783.842 Q 293.503 783.846 293.507 783.837 Q 293.510 783.827 293.530 783.767 Q 293.551 783.706 293.571 783.667 Q 293.591 783.628 293.591 783.630 Q 293.592 783.631 293.592 783.631 Q 293.592 783.630 293.658 783.489 Q 293.723 783.347 293.819 783.083 Q 293.914 782.818 293.967 782.669 Q 294.020 782.520 294.040 782.468 Q 294.059 782.417 294.079 782.376 Q 294.098 782.336 294.106 782.333 Q 294.138 782.256 294.132 782.263 Q 294.150 782.194 294.152 782.185 Q 294.155 782.176 294.155 782.179 Q 294.141 782.186 294.233 781.917 Q 294.325 781.648 294.397 781.515 Q 294.469 781.382 294.492 781.307 Q 294.515 781.232 294.519 781.220 Q 294.523 781.207 294.525 781.177 Q 294.527 781.148 294.522 781.103 Q 294.517 781.058 294.502 781.005 Q 294.488 780.952 294.485 780.938 Q 294.482 780.923 294.485 780.928 Q 294.487 780.932 294.457 780.746 Q 294.427 780.561 294.412 780.454 Q 294.397 780.346 294.398 780.308 Q 294.398 780.270 294.389 780.248 Q 294.381 780.225 294.371 780.191 Q 294.361 780.157 294.365 780.176 Q 294.369 780.194 294.364 780.175 Q 294.359 780.155 294.361 780.114 Q 294.363 780.072 294.361 780.076 Q 294.360 780.080 294.325 779.919 Q 294.291 779.758 294.286 779.168 "></path>
    <path id="STROKE_484890eb-7c61-4527-befd-3160d8dd05bb" opacity="1.000" fill="none" stroke="#000000" stroke-width="0.500" stroke-opacity="1.000" stroke-linecap="round" stroke-linejoin="round" d="M 242.023 780.663 Q 242.023 780.704 242.023 780.745 Q 242.022 780.786 242.021 780.827 Q 242.019 780.868 242.017 780.909 Q 242.014 780.949 242.011 780.990 Q 242.007 781.031 242.003 781.072 Q 241.999 781.112 241.993 781.153 Q 241.988 781.194 241.981 781.234 Q 241.975 781.275 241.968 781.315 Q 241.960 781.355 241.952 781.395 Q 241.944 781.436 241.934 781.476 Q 241.925 781.516 241.915 781.555 Q 241.905 781.595 241.893 781.635 Q 241.882 781.674 241.870 781.714 Q 241.858 781.753 241.845 781.792 Q 241.832 781.831 241.818 781.870 Q 241.804 781.908 241.789 781.947 Q 241.774 781.985 241.758 782.023 Q 241.742 782.061 241.725 782.099 Q 241.709 782.137 241.691 782.174 Q 241.673 782.212 241.655 782.249 Q 241.636 782.286 241.617 782.322 Q 241.597 782.359 241.577 782.395 Q 241.556 782.431 241.535 782.467 Q 241.514 782.503 241.492 782.538 Q 241.470 782.573 241.447 782.608 Q 241.424 782.643 241.400 782.677 Q 241.377 782.712 241.352 782.745 Q 241.328 782.779 241.302 782.812 Q 241.277 782.846 241.251 782.878 Q 241.225 782.911 241.198 782.943 Q 241.171 782.975 241.143 783.007 Q 241.115 783.039 241.087 783.070 Q 241.058 783.101 241.029 783.131 Q 241.000 783.161 240.970 783.191 Q 240.940 783.221 240.910 783.250 Q 240.879 783.279 240.848 783.307 Q 240.816 783.336 240.784 783.364 Q 240.752 783.391 240.720 783.418 Q 240.687 783.446 240.654 783.472 Q 240.620 783.498 240.587 783.524 Q 240.553 783.550 240.518 783.575 Q 240.484 783.600 240.448 783.624 Q 240.413 783.648 240.378 783.671 Q 240.342 783.695 240.306 783.718 Q 240.269 783.740 240.233 783.762 Q 240.196 783.784 240.159 783.805 Q 240.121 783.826 240.083 783.847 Q 240.046 783.867 240.007 783.886 Q 239.969 783.906 239.930 783.925 Q 239.892 783.943 239.852 783.961 Q 239.813 783.979 239.774 783.996 Q 239.734 784.013 239.694 784.029 Q 239.654 784.046 239.614 784.061 Q 239.573 784.076 239.533 784.091 Q 239.492 784.105 239.451 784.119 Q 239.410 784.132 239.368 784.145 Q 239.327 784.158 239.285 784.170 Q 239.244 784.182 239.202 784.193 Q 239.160 784.204 239.118 784.214 Q 239.075 784.224 239.033 784.233 Q 238.990 784.242 238.948 784.250 Q 238.905 784.259 238.862 784.266 Q 238.819 784.273 238.776 784.280 Q 238.733 784.286 238.690 784.292 Q 238.647 784.297 238.604 784.302 Q 238.561 784.306 238.517 784.310 Q 238.474 784.314 238.430 784.317 Q 238.387 784.319 238.343 784.321 Q 238.300 784.323 238.256 784.324 Q 238.213 784.325 238.169 784.325 Q 238.126 784.325 238.082 784.324 Q 238.039 784.323 237.995 784.321 Q 237.952 784.319 237.908 784.317 Q 237.865 784.314 237.821 784.310 Q 237.778 784.306 237.735 784.302 Q 237.691 784.297 237.648 784.292 Q 237.605 784.286 237.562 784.280 Q 237.519 784.273 237.476 784.266 Q 237.433 784.259 237.391 784.250 Q 237.348 784.242 237.306 784.233 Q 237.263 784.224 237.221 784.214 Q 237.179 784.203 237.137 784.193 Q 237.095 784.182 237.053 784.170 Q 237.012 784.158 236.970 784.145 Q 236.929 784.132 236.888 784.119 Q 236.847 784.105 236.806 784.091 Q 236.765 784.076 236.725 784.061 Q 236.684 784.046 236.644 784.029 Q 236.604 784.013 236.565 783.996 Q 236.525 783.979 236.486 783.961 Q 236.447 783.943 236.408 783.925 Q 236.369 783.906 236.331 783.886 Q 236.293 783.867 236.255 783.847 Q 236.217 783.826 236.180 783.805 Q 236.143 783.784 236.106 783.762 Q 236.069 783.740 236.033 783.718 Q 235.997 783.695 235.961 783.671 Q 235.925 783.648 235.890 783.624 Q 235.855 783.600 235.821 783.575 Q 235.786 783.550 235.752 783.524 Q 235.718 783.498 235.685 783.472 Q 235.652 783.446 235.619 783.419 Q 235.586 783.391 235.554 783.364 Q 235.522 783.336 235.491 783.307 Q 235.460 783.279 235.429 783.250 Q 235.398 783.221 235.369 783.191 Q 235.339 783.161 235.309 783.131 Q 235.280 783.101 235.252 783.070 Q 235.223 783.039 235.196 783.007 Q 235.168 782.975 235.141 782.943 Q 235.114 782.911 235.088 782.878 Q 235.062 782.846 235.036 782.812 Q 235.011 782.779 234.987 782.745 Q 234.962 782.712 234.938 782.677 Q 234.915 782.643 234.892 782.608 Q 234.869 782.573 234.847 782.538 Q 234.825 782.503 234.803 782.467 Q 234.782 782.431 234.762 782.395 Q 234.742 782.359 234.722 782.322 Q 234.703 782.286 234.684 782.249 Q 234.665 782.212 234.648 782.174 Q 234.630 782.137 234.613 782.099 Q 234.596 782.061 234.581 782.023 Q 234.565 781.985 234.550 781.947 Q 234.535 781.908 234.521 781.870 Q 234.507 781.831 234.494 781.792 Q 234.481 781.753 234.469 781.714 Q 234.456 781.674 234.445 781.635 Q 234.434 781.595 234.424 781.555 Q 234.414 781.516 234.404 781.476 Q 234.395 781.436 234.387 781.395 Q 234.378 781.355 234.371 781.315 Q 234.364 781.275 234.357 781.234 Q 234.351 781.194 234.346 781.153 Q 234.340 781.112 234.336 781.072 Q 234.331 781.031 234.328 780.990 Q 234.324 780.949 234.322 780.909 Q 234.319 780.868 234.318 780.827 Q 234.316 780.786 234.316 780.745 Q 234.316 780.704 234.316 780.663 Q 234.316 780.622 234.318 780.581 Q 234.319 780.540 234.322 780.500 Q 234.324 780.459 234.328 780.418 Q 234.331 780.377 234.336 780.336 Q 234.340 780.296 234.345 780.255 Q 234.351 780.214 234.357 780.174 Q 234.364 780.134 234.371 780.093 Q 234.378 780.053 234.387 780.013 Q 234.395 779.973 234.404 779.933 Q 234.414 779.893 234.424 779.853 Q 234.434 779.813 234.445 779.773 Q 234.456 779.734 234.469 779.695 Q 234.481 779.655 234.494 779.616 Q 234.507 779.577 234.521 779.539 Q 234.535 779.500 234.550 779.461 Q 234.565 779.423 234.581 779.385 Q 234.596 779.347 234.613 779.309 Q 234.630 779.271 234.648 779.234 Q 234.665 779.196 234.684 779.159 Q 234.703 779.122 234.722 779.086 Q 234.742 779.049 234.762 779.013 Q 234.782 778.977 234.803 778.941 Q 234.825 778.905 234.847 778.870 Q 234.869 778.835 234.892 778.800 Q 234.915 778.765 234.938 778.731 Q 234.962 778.697 234.987 778.663 Q 235.011 778.629 235.036 778.596 Q 235.062 778.562 235.088 778.530 Q 235.114 778.497 235.141 778.465 Q 235.168 778.433 235.196 778.401 Q 235.223 778.370 235.252 778.339 Q 235.280 778.308 235.309 778.277 Q 235.339 778.247 235.369 778.217 Q 235.398 778.187 235.429 778.158 Q 235.460 778.129 235.491 778.101 Q 235.522 778.072 235.554 778.044 Q 235.586 778.017 235.619 777.990 Q 235.652 777.963 235.685 777.936 Q 235.718 777.910 235.752 777.884 Q 235.786 777.858 235.821 777.833 Q 235.855 777.809 235.890 777.784 Q 235.925 777.760 235.961 777.737 Q 235.997 777.713 236.033 777.691 Q 236.069 777.668 236.106 777.646 Q 236.143 777.624 236.180 777.603 Q 236.217 777.582 236.255 777.561 Q 236.293 777.541 236.331 777.522 Q 236.369 777.502 236.408 777.483 Q 236.447 777.465 236.486 777.447 Q 236.525 777.429 236.565 777.412 Q 236.604 777.395 236.645 777.379 Q 236.684 777.363 236.725 777.347 Q 236.765 777.332 236.806 777.317 Q 236.847 777.303 236.888 777.289 Q 236.929 777.276 236.970 777.263 Q 237.012 777.250 237.053 777.238 Q 237.095 777.227 237.137 777.216 Q 237.179 777.205 237.221 777.194 Q 237.263 777.184 237.306 777.175 Q 237.348 777.166 237.391 777.158 Q 237.434 777.150 237.476 777.142 Q 237.519 777.135 237.562 777.128 Q 237.605 777.122 237.648 777.116 Q 237.692 777.111 237.735 777.106 Q 237.778 777.102 237.821 777.098 Q 237.865 777.094 237.908 777.092 Q 237.952 777.089 237.995 777.087 Q 238.039 777.085 238.082 777.084 Q 238.126 777.083 238.169 777.083 Q 238.213 777.083 238.256 777.084 Q 238.300 777.085 238.343 777.087 Q 238.387 777.089 238.430 777.091 Q 238.474 777.094 238.517 777.098 Q 238.561 777.102 238.604 777.106 Q 238.647 777.111 238.690 777.116 Q 238.733 777.122 238.776 777.128 Q 238.819 777.135 238.862 777.142 Q 238.905 777.150 238.948 777.158 Q 238.990 777.166 239.033 777.175 Q 239.075 777.184 239.118 777.194 Q 239.160 777.205 239.202 777.215 Q 239.244 777.226 239.285 777.238 Q 239.327 777.250 239.368 777.263 Q 239.410 777.276 239.451 777.289 Q 239.492 777.303 239.533 777.317 Q 239.573 777.332 239.614 777.347 Q 239.654 777.363 239.694 777.379 Q 239.734 777.395 239.774 777.412 Q 239.813 777.429 239.853 777.447 Q 239.892 777.465 239.930 777.483 Q 239.969 777.502 240.007 777.522 Q 240.046 777.541 240.084 777.562 Q 240.121 777.582 240.159 777.603 Q 240.196 777.624 240.233 777.646 Q 240.269 777.668 240.306 777.691 Q 240.342 777.713 240.378 777.737 Q 240.413 777.760 240.448 777.784 Q 240.484 777.809 240.518 777.833 Q 240.553 777.859 240.587 777.884 Q 240.620 777.910 240.654 777.936 Q 240.687 777.963 240.720 777.990 Q 240.752 778.017 240.784 778.044 Q 240.816 778.072 240.848 778.101 Q 240.879 778.129 240.910 778.158 Q 240.940 778.187 240.970 778.217 Q 241.000 778.247 241.029 778.277 Q 241.058 778.308 241.087 778.339 Q 241.115 778.370 241.143 778.401 Q 241.171 778.433 241.198 778.465 Q 241.225 778.497 241.251 778.530 Q 241.277 778.562 241.302 778.596 Q 241.328 778.629 241.352 778.663 Q 241.377 778.697 241.400 778.731 Q 241.424 778.765 241.447 778.800 Q 241.470 778.835 241.492 778.870 Q 241.514 778.905 241.535 778.941 Q 241.556 778.977 241.577 779.013 Q 241.597 779.049 241.617 779.086 Q 241.636 779.122 241.655 779.159 Q 241.673 779.196 241.691 779.234 Q 241.709 779.271 241.725 779.309 Q 241.742 779.347 241.758 779.385 Q 241.774 779.423 241.789 779.461 Q 241.804 779.500 241.818 779.539 Q 241.832 779.577 241.845 779.616 Q 241.858 779.655 241.870 779.695 Q 241.882 779.734 241.893 779.774 Q 241.905 779.813 241.915 779.853 Q 241.925 779.893 241.934 779.933 Q 241.944 779.973 241.952 780.013 Q 241.960 780.053 241.968 780.093 Q 241.975 780.134 241.981 780.174 Q 241.988 780.215 241.993 780.255 Q 241.999 780.296 242.003 780.336 Q 242.007 780.377 242.011 780.418 Q 242.014 780.459 242.017 780.500 Q 242.019 780.541 242.021 780.581 Q 242.022 780.622 242.023 780.663 Z"></path>
    <circle id="STROKE_8c12d625-3433-4224-a0b8-fda36e90f281" opacity="1.000" fill="#000000" stroke="#000000" stroke-width="0.1" stroke-opacity="1.000" fill-opacity="1.000" cx="326.046" cy="726.807" r="0.250"></circle>
  </g>
  <g id="Form_" opacity="1.000">
    <g id="TEXT_b5e38e1a-15d7-4c91-a39e-2b8d3e571570" opacity="1.000" transform="matrix(0.385809 0.000000 0.000000 0.385809 204.232162 623.455261)">
      <text x="0" y="0" text-anchor="start" alignment-baseline="mathematical" font-size="24.000" font-weight="lighter" fill="#000000" font-family="'Helvetica Neue', Helvetica, Arial, sans-serif">
        <tspan x="0" dy="1.000em">DIGITISED FORM</tspan>
      </text>
    </g>
    <g id="TEXT_3e798bf2-2cbc-439f-b067-faa6095dd364" opacity="1.000" transform="matrix(0.231217 0.000000 0.000000 0.231217 194.337875 647.041870)">
      <text x="0" y="0" text-anchor="start" alignment-baseline="mathematical" font-size="24.000" font-weight="lighter" fill="#000000" font-family="'Helvetica Neue', Helvetica, Arial, sans-serif">
        <tspan x="0" dy="1.000em">Location</tspan>
      </text>
    </g>
    <path id="STROKE_caf41ca0-e663-472f-ad9f-ef88eea4288a" opacity="1.000" fill="none" stroke="#000000" stroke-width="0.500" stroke-opacity="1.000" stroke-linecap="round" stroke-linejoin="round" d="M 285.888 654.362 L 222.362 654.389 "></path>
    <g id="TEXT_95f8e4ff-416a-4a1d-a1c4-ee2cae77fae4" opacity="1.000" transform="matrix(0.231217 0.000000 0.000000 0.231217 194.433792 662.947388)">
      <text x="0" y="0" text-anchor="start" alignment-baseline="mathematical" font-size="24.000" font-weight="lighter" fill="#000000" font-family="'Helvetica Neue', Helvetica, Arial, sans-serif">
        <tspan x="0" dy="1.000em">Discipline</tspan>
      </text>
    </g>
    <path id="STROKE_7185dc65-1f59-4a6a-9406-b063823edaaa" opacity="1.000" fill="none" stroke="#000000" stroke-width="0.500" stroke-opacity="1.000" stroke-linecap="round" stroke-linejoin="round" d="M 286.088 670.195 L 222.562 670.222 "></path>
    <g id="TEXT_cb83e59d-ca06-400b-9588-6c51a3e98190" opacity="1.000" transform="matrix(0.231217 0.000000 0.000000 0.231217 194.421036 678.956848)">
      <text x="0" y="0" text-anchor="start" alignment-baseline="mathematical" font-size="24.000" font-weight="lighter" fill="#000000" font-family="'Helvetica Neue', Helvetica, Arial, sans-serif">
        <tspan x="0" dy="1.000em">Owner</tspan>
      </text>
    </g>
    <path id="STROKE_3a789dfc-d226-48b0-a9e6-02729cbaf98d" opacity="1.000" fill="none" stroke="#000000" stroke-width="0.500" stroke-opacity="1.000" stroke-linecap="round" stroke-linejoin="round" d="M 286.222 685.844 L 222.695 685.871 "></path>
    <g id="TEXT_56fff290-8aee-4443-b869-f1cac1e72fef" opacity="1.000" transform="matrix(0.231217 0.000000 0.000000 0.231217 194.341797 696.999695)">
      <text x="0" y="0" text-anchor="start" alignment-baseline="mathematical" font-size="24.000" font-weight="lighter" fill="#000000" font-family="'Helvetica Neue', Helvetica, Arial, sans-serif">
        <tspan x="0" dy="1.000em">Risks</tspan>
      </text>
    </g>
    <path id="STROKE_89397c44-0022-4141-b479-a0cef6abf1dd" opacity="1.000" fill="none" stroke="#000000" stroke-width="0.500" stroke-opacity="1.000" stroke-linecap="round" stroke-linejoin="round" d="M 286.172 703.826 L 222.645 703.853 "></path>
    <path id="STROKE_c7ecfae5-df93-441e-a99d-ab1c5532c2ee" opacity="1.000" fill="none" stroke="#000000" stroke-width="0.500" stroke-opacity="1.000" stroke-linecap="round" stroke-linejoin="round" d="M 229.895 758.190 L 252.521 758.190 L 252.521 766.856 L 229.895 766.856 Z"></path>
    <g id="TEXT_6989aa4d-5996-4236-bb6b-8ab06845cba4" opacity="1.000" transform="matrix(0.179610 0.000000 0.000000 0.179610 234.512283 760.745789)">
      <text x="0" y="0" text-anchor="start" alignment-baseline="mathematical" font-size="24.000" font-weight="lighter" fill="#000000" font-family="'Helvetica Neue', Helvetica, Arial, sans-serif">
        <tspan x="0" dy="1.000em">Submit</tspan>
      </text>
    </g>
    <path id="STROKE_f29237a5-90fe-4d1a-bd14-283f44b216df" opacity="1.000" fill="none" stroke="#000000" stroke-width="0.500" stroke-opacity="1.000" stroke-linecap="round" stroke-linejoin="round" d="M 286.116 710.498 L 222.589 710.525 "></path>
    <path id="STROKE_b4af259c-8024-4c03-a94e-edbd0dfdb37f" opacity="1.000" fill="none" stroke="#000000" stroke-width="0.500" stroke-opacity="1.000" stroke-linecap="round" stroke-linejoin="round" d="M 286.194 717.259 L 222.667 717.286 "></path>
    <path id="STROKE_c4f36bc7-1728-40a9-a138-80549d2c7636" opacity="1.000" fill="none" stroke="#000000" stroke-width="0.500" stroke-opacity="1.000" stroke-linecap="round" stroke-linejoin="round" d="M 286.306 724.199 L 222.779 724.226 "></path>
    <g id="TEXT_8fc11036-b172-4680-89a9-b1511f4b6b9a" opacity="1.000" transform="matrix(0.231217 0.000000 0.000000 0.231217 194.490967 728.875977)">
      <text x="0" y="0" text-anchor="start" alignment-baseline="mathematical" font-size="24.000" font-weight="lighter" fill="#000000" font-family="'Helvetica Neue', Helvetica, Arial, sans-serif">
        <tspan x="0" dy="1.000em">Approver</tspan>
      </text>
    </g>
    <path id="STROKE_1d50bf43-e5ba-440b-8afd-09937ad35233" opacity="1.000" fill="none" stroke="#000000" stroke-width="0.500" stroke-opacity="1.000" stroke-linecap="round" stroke-linejoin="round" d="M 286.244 736.419 L 222.717 736.445 "></path>
    <circle id="STROKE_0caea26b-074a-4d03-8a51-9ff9efc937ff" opacity="1.000" fill="#000000" stroke="#000000" stroke-width="0.1" stroke-opacity="1.000" fill-opacity="1.000" cx="293.741" cy="730.087" r="0.250"></circle>
    <path id="STROKE_65da8d86-ffb0-48a3-9137-64f00ebdfad3" opacity="1.000" fill="none" stroke="#000000" stroke-width="0.500" stroke-opacity="1.000" stroke-linecap="round" stroke-linejoin="round" d="M 283.019 734.002 Q 283.036 734.026 283.142 734.152 Q 283.248 734.278 283.379 734.439 Q 283.511 734.599 283.633 734.742 Q 283.755 734.884 283.843 734.964 Q 283.930 735.044 283.974 735.077 Q 284.017 735.110 284.090 735.147 Q 284.111 735.138 284.282 734.920 Q 284.453 734.701 284.546 734.570 Q 284.638 734.439 284.705 734.356 Q 284.773 734.274 284.830 734.210 Q 284.888 734.147 284.912 734.119 Q 284.936 734.092 284.945 734.080 Q 284.955 734.069 285.079 733.935 "></path>
    <circle id="STROKE_af9636d0-7ea7-4b9a-a096-423e7e1b7846" opacity="1.000" fill="#000000" stroke="#000000" stroke-width="0.1" stroke-opacity="1.000" fill-opacity="1.000" cx="284.800" cy="734.195" r="0.250"></circle>
    <circle id="STROKE_4b9ede1b-4bfb-4c65-bd88-b5613574d0dd" opacity="1.000" fill="#000000" stroke="#000000" stroke-width="0.1" stroke-opacity="1.000" fill-opacity="1.000" cx="284.425" cy="734.318" r="0.250"></circle>
    <circle id="STROKE_44462327-8e7e-4ed9-8a1f-b0ce408e4e2a" opacity="1.000" fill="#000000" stroke="#000000" stroke-width="0.1" stroke-opacity="1.000" fill-opacity="1.000" cx="283.681" cy="734.318" r="0.250"></circle>
  </g>
  <g id="Text" opacity="1.000" display="none">
    <path id="STROKE_d5283ed2-c282-4f52-83a1-28ad1c002ba7" opacity="1.000" display="none" fill="none" stroke="#000000" stroke-width="2.700" stroke-opacity="1.000" stroke-linecap="round" stroke-linejoin="round" d="M 302.586 696.403 Q 303.733 696.781 304.838 697.108 Q 305.943 697.436 308.200 697.451 Q 310.457 697.466 312.294 696.959 Q 314.131 696.452 315.043 695.961 Q 315.954 695.471 316.364 695.221 Q 316.773 694.971 318.041 693.619 Q 319.309 692.266 320.368 690.420 Q 321.428 688.573 322.317 685.240 Q 323.207 681.908 323.686 680.033 Q 324.164 678.159 324.820 676.390 Q 325.477 674.620 326.799 672.311 Q 328.121 670.002 329.365 668.494 Q 330.610 666.986 331.369 666.197 Q 332.128 665.409 333.891 663.892 Q 335.654 662.376 336.476 661.822 Q 337.298 661.268 339.184 660.441 Q 341.069 659.615 344.174 659.656 Q 347.279 659.696 349.272 660.087 Q 351.265 660.478 353.922 660.846 "></path>
    <path id="STROKE_3482af3d-f61f-43c9-a9c4-6ccdedc38e64" opacity="1.000" display="none" fill="none" stroke="#000000" stroke-width="2.700" stroke-opacity="1.000" stroke-linecap="round" stroke-linejoin="round" d="M 349.456 653.147 Q 352.403 653.255 354.018 653.892 Q 355.633 654.529 356.405 655.508 Q 357.177 656.487 357.442 657.246 Q 357.706 658.005 357.119 659.867 Q 356.532 661.730 355.465 663.197 Q 354.399 664.665 353.830 665.303 Q 353.262 665.941 352.942 666.330 Q 352.623 666.718 351.923 667.736 "></path>
    <path id="STROKE_3dc09bdd-be04-4ef6-ac42-0757bebdf163" opacity="1.000" display="none" fill="none" stroke="#000000" stroke-width="2.700" stroke-opacity="1.000" stroke-linecap="round" stroke-linejoin="round" d="M 304.458 697.126 Q 305.383 697.089 307.873 697.420 Q 310.364 697.750 312.232 698.252 Q 314.101 698.753 315.395 699.283 Q 316.689 699.812 318.495 700.781 Q 320.300 701.751 321.547 702.421 Q 322.795 703.092 323.784 703.706 Q 324.773 704.320 325.792 705.097 Q 326.811 705.874 328.304 707.296 Q 329.797 708.718 331.247 710.585 Q 332.697 712.453 333.299 713.396 Q 333.900 714.339 334.466 716.197 Q 335.032 718.056 335.261 720.224 Q 335.490 722.393 335.678 723.877 Q 335.866 725.361 336.449 726.713 Q 337.032 728.065 337.498 728.512 Q 337.963 728.958 338.549 729.233 Q 339.135 729.508 339.592 729.630 Q 340.049 729.753 341.371 729.840 Q 342.694 729.927 344.996 729.371 Q 347.297 728.816 349.839 727.622 "></path>
    <path id="STROKE_8610c6f7-9bba-4964-9358-fba2f42e6ed1" opacity="1.000" display="none" fill="none" stroke="#000000" stroke-width="2.700" stroke-opacity="1.000" stroke-linecap="round" stroke-linejoin="round" d="M 349.626 721.540 Q 350.426 722.330 351.675 723.169 Q 352.924 724.008 353.524 724.523 Q 354.125 725.038 354.563 725.729 Q 355.001 726.420 355.065 727.079 Q 355.128 727.738 354.972 728.221 Q 354.816 728.703 354.388 729.321 Q 353.960 729.939 352.298 731.232 Q 350.636 732.524 348.350 733.790 "></path>
    <g id="TEXT_2bea04ee-8c29-4757-a2e1-54853e63cbc0" opacity="1.000" display="none" transform="matrix(0.568883 0.000000 0.000000 0.568883 368.568756 641.749939)">
      <text x="0" y="0" text-anchor="start" alignment-baseline="mathematical" font-size="24.000" font-weight="lighter" fill="#000000" font-family="'Helvetica Neue', Helvetica, Arial, sans-serif">
        <tspan x="0" dy="1.000em">Automated</tspan>
        <tspan x="0" dy="1.200em">workflows</tspan>
      </text>
    </g>
    <g id="TEXT_e5d68b48-72c4-4e91-9630-07be0dff9c7c" opacity="1.000" display="none" transform="matrix(0.693614 0.000000 0.000000 0.693614 368.895935 721.385803)">
      <text x="0" y="0" text-anchor="start" alignment-baseline="mathematical" font-size="24.000" font-weight="lighter" fill="#000000" font-family="'Helvetica Neue', Helvetica, Arial, sans-serif">
        <tspan x="0" dy="1.000em">Scripts</tspan>
      </text>
    </g>
  </g>
</svg>