<?xml version="1.0" encoding="UTF-8" standalone="yes"?>
<svg xmlns="http://www.w3.org/2000/svg" xmlns:xlink="http://www.w3.org/1999/xlink" width="391.597pt" height="274.415pt" version="1.1" viewBox="-233.695 531.698 391.597 274.415">
  <!--
	Exported with Concepts: Smarter Sketching
	Version: 2024.09.6 on Android 13
	https://concepts.app/
	-->
  <title>Drawing</title>
  <desc>Drawing exported from Concepts: Smarter Sketching</desc>
  <defs></defs>
  <g id="Pen" opacity="1.000">
    <path id="STROKE_c34c82ad-e8a7-412d-8df2-b76d03500e06" opacity="1.000" fill="none" stroke="#ffffff" stroke-width="1.600" stroke-opacity="1.000" stroke-linecap="round" stroke-linejoin="round" d="M -227.996 537.397 L 152.202 537.397 L 152.202 800.413 L -227.996 800.414 Z"></path>
    <path id="STROKE_42838c99-2c7f-481e-994d-7b077e37253d" opacity="1.000" fill="none" stroke="#ffffff" stroke-width="1.600" stroke-opacity="1.000" stroke-linecap="round" stroke-linejoin="round" d="M 150.524 744.960 L -226.551 744.709 "></path>
    <path id="STROKE_5b1f5493-9d57-405b-8bca-5997d47e4cc3" opacity="1.000" fill="none" stroke="#ffffff" stroke-width="1.600" stroke-opacity="1.000" stroke-linecap="round" stroke-linejoin="round" d="M 36.323 746.391 L 36.271 799.711 "></path>
    <path id="STROKE_37d45e4c-d32e-4d16-a639-23cfa7f264be" opacity="1.000" fill="none" stroke="#ffffff" stroke-width="1.600" stroke-opacity="1.000" stroke-linecap="round" stroke-linejoin="round" d="M -135.829 745.791 L -135.882 799.111 "></path>
    <path id="STROKE_5fdff9ec-3186-4130-bff6-c02676252dac" opacity="1.000" fill="none" stroke="#ffffff" stroke-width="1.600" stroke-opacity="1.000" stroke-linecap="round" stroke-linejoin="round" d="M -137.029 754.734 L -227.115 754.868 "></path>
    <path id="STROKE_8034078f-db8f-4187-b5ce-bb639e5914f1" opacity="1.000" fill="none" stroke="#ffffff" stroke-width="1.600" stroke-opacity="1.000" stroke-linecap="round" stroke-linejoin="round" d="M -136.332 763.712 L -226.419 763.846 "></path>
    <path id="STROKE_2e0c9d27-bb63-4118-b686-7d8661e8bb47" opacity="1.000" fill="none" stroke="#ffffff" stroke-width="1.600" stroke-opacity="1.000" stroke-linecap="round" stroke-linejoin="round" d="M -136.076 772.434 L -226.162 772.567 "></path>
    <path id="STROKE_b6408bf5-d26d-43aa-b406-22ad3bc76ffa" opacity="1.000" fill="none" stroke="#ffffff" stroke-width="1.600" stroke-opacity="1.000" stroke-linecap="round" stroke-linejoin="round" d="M -136.149 781.943 L -226.236 782.076 "></path>
    <path id="STROKE_5498fff5-8dc0-4111-960b-43fa04f86397" opacity="1.000" fill="none" stroke="#ffffff" stroke-width="1.600" stroke-opacity="1.000" stroke-linecap="round" stroke-linejoin="round" d="M -136.369 790.884 L -226.455 791.018 "></path>
    <path id="STROKE_a9649424-6911-420e-b4a5-c43e4c64ccd6" opacity="1.000" fill="none" stroke="#ffffff" stroke-width="1.600" stroke-opacity="1.000" stroke-linecap="round" stroke-linejoin="round" d="M 150.546 763.199 L 38.067 763.311 "></path>
    <path id="STROKE_4dcfa4b2-5676-4e75-b77e-27c58c0bd285" opacity="1.000" fill="none" stroke="#ffffff" stroke-width="1.600" stroke-opacity="1.000" stroke-linecap="round" stroke-linejoin="round" d="M 150.916 781.469 L 38.437 781.581 "></path>
    <path id="STROKE_a2fea0a6-bee9-4dc2-a7b4-5bf85c034e32" opacity="1.000" fill="none" stroke="#ffffff" stroke-width="1.600" stroke-opacity="1.000" stroke-linecap="round" stroke-linejoin="round" d="M 113.815 763.864 L 113.773 780.570 "></path>
    <path id="STROKE_6cf8c8ee-504d-4742-a81f-1bb85f521751" opacity="1.000" fill="none" stroke="#ffffff" stroke-width="1.600" stroke-opacity="1.000" stroke-linecap="round" stroke-linejoin="round" d="M 73.328 764.459 L 73.287 781.166 "></path>
  </g>
  <g id="New_Layer_2" opacity="1.000">
    <g id="TEXT_dce23252-6b54-4c39-b434-3cf319373c8f" opacity="1.000" transform="matrix(0.565666 0.000000 -0.000000 0.565666 -100.076843 690.526660)">
      <text x="0" y="0" text-anchor="start" alignment-baseline="mathematical" font-size="24.000" font-weight="lighter" fill="#bb3e45" font-family="'Helvetica Neue', Helvetica, Arial, sans-serif">
        <tspan x="0" dy="1.000em">221223-BR-MB-00-ST-5011-NG</tspan>
      </text>
    </g>
    <g id="TEXT_92e8854f-feea-4576-8a0f-866e9b9663d7" opacity="1.000" transform="matrix(0.565666 0.000000 -0.000000 0.565666 -100.076843 713.868579)">
      <text x="0" y="0" text-anchor="start" alignment-baseline="mathematical" font-size="24.000" font-weight="lighter" fill="#0e8f57" font-family="'Helvetica Neue', Helvetica, Arial, sans-serif">
        <tspan x="0" dy="1.000em">221223-BR-MB-00-DR-ST-5011</tspan>
      </text>
    </g>
    <g id="TEXT_fc795e4d-72c0-4309-88f0-9e79640a9b1d" opacity="1.000" transform="matrix(0.565666 0.000000 -0.000000 0.565666 -72.734589 779.322144)">
      <text x="0" y="0" text-anchor="start" alignment-baseline="mathematical" font-size="24.000" font-weight="lighter" fill="#bb3e45" font-family="'Helvetica Neue', Helvetica, Arial, sans-serif">
        <tspan x="0" dy="1.000em">X1</tspan>
      </text>
    </g>
    <g id="TEXT_eb4e24d8-6f45-4e92-b7ee-f238885ae780" opacity="1.000" transform="matrix(0.565666 0.000000 -0.000000 0.565666 -44.297577 779.797546)">
      <text x="0" y="0" text-anchor="start" alignment-baseline="mathematical" font-size="24.000" font-weight="lighter" fill="#0e8f57" font-family="'Helvetica Neue', Helvetica, Arial, sans-serif">
        <tspan x="0" dy="1.000em">C01</tspan>
      </text>
    </g>
    <path id="STROKE_de9fa3f8-d11c-4a11-8fec-bdcefd94099d" opacity="1.000" fill="none" stroke="#bb3e45" stroke-width="0.971" stroke-opacity="1.000" stroke-linecap="round" stroke-linejoin="round" d="M -71.528 764.785 Q -71.841 764.501 -72.172 764.198 Q -72.020 764.139 -70.213 765.060 Q -68.406 765.981 -66.215 767.558 Q -64.024 769.135 -62.366 770.280 Q -60.707 771.425 -59.418 772.079 Q -58.128 772.733 -57.429 772.984 Q -56.729 773.235 -56.247 773.421 "></path>
    <path id="STROKE_c05d3cc9-dc2c-4e72-b94b-08b0542352da" opacity="1.000" fill="none" stroke="#bb3e45" stroke-width="0.971" stroke-opacity="1.000" stroke-linecap="round" stroke-linejoin="round" d="M -71.869 775.447 Q -71.897 775.283 -70.759 773.501 Q -69.622 771.719 -68.629 770.411 Q -67.636 769.103 -67.153 768.421 Q -66.670 767.739 -66.438 767.452 Q -66.207 767.164 -65.622 766.394 Q -65.037 765.624 -64.654 765.125 Q -64.272 764.627 -64.037 764.292 Q -63.802 763.956 -63.194 763.209 Q -62.586 762.462 -62.185 762.011 Q -61.785 761.561 -61.492 761.225 "></path>
    <path id="STROKE_4e6238e3-1f62-4458-bed7-68900f6e8f00" opacity="1.000" fill="none" stroke="#0e8f57" stroke-width="0.971" stroke-opacity="1.000" stroke-linecap="round" stroke-linejoin="round" d="M -40.833 769.823 Q -40.854 770.504 -40.115 771.123 Q -39.376 771.742 -38.964 772.279 Q -38.551 772.817 -38.219 773.293 Q -37.886 773.769 -37.704 773.943 Q -37.521 774.117 -37.353 774.115 Q -37.184 774.112 -36.994 773.968 Q -36.804 773.824 -36.654 773.674 Q -36.504 773.524 -35.714 772.416 Q -34.924 771.307 -34.429 770.540 Q -33.934 769.772 -33.096 768.699 Q -32.258 767.626 -31.502 766.801 Q -30.745 765.977 -30.341 765.560 Q -29.936 765.144 -29.595 764.813 Q -29.253 764.482 -27.275 762.987 "></path>
    <path id="STROKE_223326a2-503e-42cb-b363-fa22b1dc9573" opacity="1.000" fill="none" stroke="#bb3e45" stroke-width="0.971" stroke-opacity="1.000" stroke-linecap="round" stroke-linejoin="round" d="M 95.558 696.796 Q 95.245 696.512 94.914 696.209 Q 95.066 696.150 96.873 697.070 Q 98.680 697.991 100.871 699.568 Q 103.063 701.145 104.721 702.290 Q 106.379 703.435 107.668 704.089 Q 108.958 704.743 109.658 704.995 Q 110.357 705.246 110.839 705.431 "></path>
    <path id="STROKE_73de6c13-891f-4bd0-9d52-470825bb10ab" opacity="1.000" fill="none" stroke="#bb3e45" stroke-width="0.971" stroke-opacity="1.000" stroke-linecap="round" stroke-linejoin="round" d="M 95.217 707.457 Q 95.189 707.293 96.327 705.511 Q 97.464 703.729 98.457 702.421 Q 99.450 701.114 99.933 700.432 Q 100.416 699.750 100.648 699.462 Q 100.879 699.175 101.464 698.404 Q 102.049 697.634 102.432 697.136 Q 102.814 696.638 103.049 696.302 Q 103.284 695.966 103.892 695.219 Q 104.500 694.473 104.901 694.022 Q 105.302 693.571 105.594 693.236 "></path>
    <path id="STROKE_0ee4a3c5-8004-4a02-8ee0-1495ec4d4049" opacity="1.000" fill="none" stroke="#0e8f57" stroke-width="0.971" stroke-opacity="1.000" stroke-linecap="round" stroke-linejoin="round" d="M 95.009 723.831 Q 94.988 724.513 95.727 725.131 Q 96.466 725.750 96.878 726.288 Q 97.290 726.826 97.623 727.302 Q 97.956 727.777 98.138 727.952 Q 98.321 728.126 98.489 728.123 Q 98.658 728.121 98.848 727.977 Q 99.038 727.833 99.188 727.682 Q 99.338 727.532 100.128 726.424 Q 100.918 725.316 101.413 724.548 Q 101.908 723.780 102.746 722.707 Q 103.584 721.634 104.340 720.810 Q 105.097 719.985 105.501 719.569 Q 105.906 719.152 106.247 718.821 Q 106.589 718.490 108.567 716.995 "></path>
    <path id="STROKE_2b115f83-e7b7-4792-a36f-96643810bab8" opacity="1.000" fill="none" stroke="#ffffff" stroke-width="0.971" stroke-opacity="1.000" stroke-linecap="round" stroke-linejoin="round" d="M -12.252 777.333 Q -12.593 776.807 -12.515 776.174 Q -12.436 775.541 -12.073 775.111 Q -11.710 774.681 -11.131 773.968 Q -10.551 773.254 -8.826 772.135 Q -7.101 771.017 -5.661 770.314 Q -4.222 769.611 -3.055 769.140 Q -1.888 768.669 0.365 768.151 Q 2.618 767.635 4.863 767.336 Q 7.108 767.036 9.912 766.920 Q 12.717 766.803 15.483 766.581 Q 18.248 766.359 20.229 766.391 Q 22.210 766.422 23.164 766.421 Q 24.117 766.419 26.065 766.738 Q 28.012 767.056 29.139 767.246 Q 30.266 767.436 31.330 767.824 Q 32.393 768.211 32.835 768.446 Q 33.278 768.682 33.712 768.914 Q 34.147 769.147 36.608 770.056 Q 39.069 770.965 40.415 771.435 Q 41.761 771.905 42.470 772.255 Q 43.179 772.606 43.509 772.793 Q 43.839 772.981 43.789 772.969 Q 43.740 772.957 43.738 772.938 Q 43.737 772.919 43.895 773.157 "></path>
    <path id="STROKE_5d32e3d0-6941-4cf1-b737-b7339e6dfcaf" opacity="1.000" fill="none" stroke="#ffffff" stroke-width="0.971" stroke-opacity="1.000" stroke-linecap="round" stroke-linejoin="round" d="M 44.392 769.007 Q 44.690 769.283 46.162 770.709 Q 47.634 772.135 48.878 774.077 Q 48.308 774.352 48.419 774.263 Q 48.186 774.213 41.260 776.140 Q 41.273 776.140 41.285 776.140 "></path>
    <path id="STROKE_4cc5e3ff-ce69-43bc-91d7-8da160685f87" opacity="1.000" fill="none" stroke="#ffffff" stroke-width="0.971" stroke-opacity="1.000" stroke-linecap="round" stroke-linejoin="round" d="M 115.389 711.148 Q 115.766 711.486 116.515 712.212 Q 117.263 712.937 118.259 714.055 Q 119.254 715.172 119.441 715.406 Q 119.627 715.640 119.930 716.060 Q 120.232 716.479 120.516 716.888 Q 120.800 717.297 121.918 719.383 Q 123.035 721.469 124.005 724.286 Q 124.974 727.103 125.409 728.954 Q 125.844 730.805 126.262 733.497 Q 126.680 736.188 126.824 737.745 Q 126.968 739.303 127.065 741.869 Q 127.161 744.436 127.091 748.812 Q 127.021 753.188 126.936 755.540 Q 126.851 757.892 126.726 760.313 Q 126.601 762.734 126.505 764.137 Q 126.409 765.541 126.151 767.798 Q 125.892 770.055 125.383 772.538 Q 124.874 775.021 124.563 776.125 Q 124.252 777.230 123.910 778.281 Q 123.569 779.332 122.529 781.966 Q 121.489 784.600 120.846 786.035 Q 120.203 787.469 118.640 791.123 "></path>
    <path id="STROKE_b9ddf7fd-9947-4c50-8856-35915f928aea" opacity="1.000" fill="none" stroke="#ffffff" stroke-width="0.971" stroke-opacity="1.000" stroke-linecap="round" stroke-linejoin="round" d="M 116.884 791.621 Q 117.016 791.260 116.627 789.251 Q 116.239 787.241 115.579 785.143 Q 115.598 785.024 115.721 786.284 Q 115.844 787.544 116.152 788.650 Q 116.460 789.756 116.831 790.504 Q 117.201 791.252 117.442 791.495 Q 117.683 791.737 117.934 791.883 Q 118.186 792.028 118.578 792.088 Q 118.971 792.147 119.595 791.999 Q 120.219 791.851 122.356 791.210 Q 124.494 790.569 126.756 790.221 "></path>
  </g>
  <g id="New_Layer_1" opacity="1.000">
    <path id="STROKE_51eacbd3-729e-42d8-a479-7f3d93c145ba" opacity="1.000" fill="none" stroke="#ffffff" stroke-width="1.600" stroke-opacity="1.000" stroke-linecap="round" stroke-linejoin="round" d="M -159.318 609.701 L -85.038 609.701 L -85.038 683.980 L -159.317 683.980 Z"></path>
    <path id="STROKE_a4748d9b-5d96-4081-a145-7a03c702c8e4" opacity="1.000" fill="none" stroke="#ffffff" stroke-width="2.500" stroke-opacity="1.000" stroke-linecap="round" stroke-linejoin="round" stroke-dasharray="0.250,3.750" d="M -135.038 624.433 Q -135.037 624.518 -135.038 624.603 Q -135.039 624.689 -135.042 624.774 Q -135.045 624.859 -135.050 624.945 Q -135.056 625.030 -135.063 625.115 Q -135.070 625.200 -135.080 625.285 Q -135.089 625.370 -135.101 625.455 Q -135.113 625.540 -135.126 625.624 Q -135.140 625.709 -135.156 625.793 Q -135.171 625.877 -135.189 625.961 Q -135.207 626.045 -135.227 626.129 Q -135.247 626.212 -135.269 626.295 Q -135.291 626.378 -135.315 626.461 Q -135.338 626.543 -135.364 626.625 Q -135.390 626.707 -135.419 626.789 Q -135.447 626.870 -135.477 626.951 Q -135.507 627.032 -135.539 627.112 Q -135.571 627.192 -135.605 627.272 Q -135.639 627.352 -135.674 627.430 Q -135.710 627.509 -135.748 627.587 Q -135.786 627.665 -135.826 627.743 Q -135.866 627.820 -135.907 627.896 Q -135.949 627.973 -135.993 628.048 Q -136.036 628.124 -136.082 628.198 Q -136.127 628.273 -136.174 628.347 Q -136.222 628.420 -136.271 628.493 Q -136.320 628.566 -136.370 628.637 Q -136.421 628.709 -136.474 628.779 Q -136.526 628.850 -136.581 628.919 Q -136.635 628.989 -136.691 629.057 Q -136.747 629.125 -136.805 629.193 Q -136.862 629.260 -136.922 629.326 Q -136.981 629.392 -137.042 629.456 Q -137.103 629.521 -137.165 629.584 Q -137.228 629.648 -137.292 629.710 Q -137.356 629.772 -137.422 629.833 Q -137.487 629.893 -137.554 629.953 Q -137.621 630.012 -137.690 630.070 Q -137.758 630.128 -137.828 630.185 Q -137.898 630.241 -137.970 630.296 Q -138.041 630.351 -138.113 630.405 Q -138.186 630.458 -138.260 630.510 Q -138.334 630.562 -138.409 630.613 Q -138.484 630.664 -138.561 630.713 Q -138.637 630.761 -138.715 630.809 Q -138.793 630.856 -138.871 630.902 Q -138.950 630.948 -139.030 630.992 Q -139.110 631.036 -139.191 631.078 Q -139.272 631.121 -139.354 631.161 Q -139.436 631.202 -139.519 631.241 Q -139.602 631.280 -139.686 631.318 Q -139.769 631.355 -139.854 631.391 Q -139.939 631.426 -140.025 631.460 Q -140.110 631.494 -140.197 631.526 Q -140.283 631.558 -140.371 631.588 Q -140.458 631.618 -140.546 631.647 Q -140.634 631.675 -140.722 631.702 Q -140.811 631.728 -140.900 631.753 Q -140.990 631.778 -141.079 631.801 Q -141.169 631.823 -141.260 631.844 Q -141.350 631.865 -141.441 631.885 Q -141.532 631.904 -141.623 631.921 Q -141.715 631.938 -141.806 631.953 Q -141.898 631.969 -141.990 631.982 Q -142.082 631.996 -142.175 632.007 Q -142.267 632.019 -142.360 632.029 Q -142.452 632.038 -142.545 632.046 Q -142.638 632.054 -142.731 632.059 Q -142.824 632.065 -142.917 632.069 Q -143.011 632.073 -143.104 632.075 Q -143.197 632.077 -143.290 632.077 Q -143.384 632.077 -143.477 632.075 Q -143.570 632.073 -143.663 632.069 Q -143.757 632.065 -143.850 632.059 Q -143.943 632.054 -144.036 632.046 Q -144.128 632.038 -144.221 632.029 Q -144.314 632.019 -144.406 632.007 Q -144.499 631.996 -144.591 631.982 Q -144.683 631.969 -144.775 631.954 Q -144.866 631.938 -144.958 631.921 Q -145.049 631.904 -145.140 631.885 Q -145.231 631.865 -145.321 631.844 Q -145.412 631.823 -145.501 631.801 Q -145.591 631.778 -145.681 631.753 Q -145.770 631.728 -145.858 631.702 Q -145.947 631.675 -146.035 631.647 Q -146.123 631.618 -146.210 631.588 Q -146.298 631.558 -146.384 631.526 Q -146.470 631.494 -146.556 631.460 Q -146.642 631.426 -146.727 631.391 Q -146.811 631.355 -146.895 631.318 Q -146.979 631.280 -147.062 631.241 Q -147.145 631.202 -147.227 631.161 Q -147.309 631.121 -147.390 631.078 Q -147.471 631.036 -147.551 630.992 Q -147.631 630.948 -147.709 630.902 Q -147.788 630.856 -147.866 630.809 Q -147.944 630.761 -148.020 630.713 Q -148.096 630.664 -148.172 630.613 Q -148.247 630.563 -148.321 630.510 Q -148.395 630.458 -148.467 630.405 Q -148.540 630.351 -148.611 630.296 Q -148.683 630.241 -148.752 630.185 Q -148.822 630.128 -148.891 630.070 Q -148.959 630.012 -149.026 629.953 Q -149.094 629.893 -149.159 629.833 Q -149.225 629.772 -149.289 629.710 Q -149.353 629.648 -149.415 629.584 Q -149.478 629.521 -149.539 629.456 Q -149.600 629.392 -149.659 629.326 Q -149.718 629.260 -149.776 629.193 Q -149.834 629.125 -149.890 629.057 Q -149.946 628.989 -150.000 628.919 Q -150.054 628.850 -150.107 628.779 Q -150.160 628.709 -150.210 628.637 Q -150.261 628.566 -150.310 628.493 Q -150.359 628.420 -150.406 628.347 Q -150.454 628.273 -150.499 628.198 Q -150.545 628.124 -150.588 628.048 Q -150.632 627.973 -150.673 627.896 Q -150.715 627.820 -150.755 627.743 Q -150.795 627.665 -150.833 627.587 Q -150.870 627.509 -150.906 627.430 Q -150.942 627.352 -150.976 627.272 Q -151.010 627.192 -151.042 627.112 Q -151.074 627.032 -151.104 626.951 Q -151.134 626.870 -151.162 626.789 Q -151.190 626.707 -151.216 626.625 Q -151.242 626.543 -151.266 626.461 Q -151.290 626.378 -151.312 626.295 Q -151.334 626.212 -151.354 626.129 Q -151.374 626.045 -151.392 625.961 Q -151.409 625.877 -151.425 625.793 Q -151.441 625.709 -151.455 625.625 Q -151.468 625.540 -151.480 625.455 Q -151.491 625.370 -151.501 625.286 Q -151.510 625.201 -151.518 625.115 Q -151.525 625.030 -151.530 624.945 Q -151.536 624.860 -151.539 624.774 Q -151.542 624.689 -151.543 624.603 Q -151.544 624.518 -151.543 624.433 Q -151.542 624.347 -151.539 624.262 Q -151.536 624.176 -151.530 624.091 Q -151.525 624.006 -151.518 623.921 Q -151.510 623.836 -151.501 623.751 Q -151.491 623.666 -151.480 623.581 Q -151.468 623.496 -151.455 623.411 Q -151.441 623.327 -151.425 623.243 Q -151.409 623.159 -151.392 623.075 Q -151.374 622.991 -151.354 622.907 Q -151.334 622.824 -151.312 622.741 Q -151.290 622.658 -151.266 622.575 Q -151.242 622.493 -151.216 622.411 Q -151.190 622.329 -151.162 622.247 Q -151.134 622.166 -151.104 622.085 Q -151.074 622.004 -151.042 621.924 Q -151.010 621.844 -150.976 621.764 Q -150.942 621.684 -150.906 621.606 Q -150.870 621.527 -150.833 621.449 Q -150.795 621.371 -150.755 621.293 Q -150.715 621.216 -150.673 621.140 Q -150.632 621.063 -150.588 620.988 Q -150.545 620.912 -150.499 620.838 Q -150.454 620.763 -150.407 620.689 Q -150.359 620.616 -150.310 620.543 Q -150.261 620.470 -150.210 620.399 Q -150.160 620.327 -150.107 620.257 Q -150.054 620.186 -150.000 620.117 Q -149.946 620.047 -149.890 619.979 Q -149.834 619.911 -149.776 619.843 Q -149.718 619.776 -149.659 619.710 Q -149.600 619.644 -149.539 619.580 Q -149.478 619.515 -149.415 619.452 Q -149.353 619.388 -149.289 619.326 Q -149.225 619.264 -149.159 619.203 Q -149.094 619.143 -149.027 619.083 Q -148.959 619.024 -148.891 618.966 Q -148.822 618.908 -148.753 618.851 Q -148.683 618.795 -148.611 618.740 Q -148.540 618.685 -148.467 618.631 Q -148.395 618.578 -148.321 618.526 Q -148.247 618.473 -148.172 618.423 Q -148.096 618.372 -148.020 618.323 Q -147.944 618.274 -147.866 618.227 Q -147.788 618.180 -147.710 618.134 Q -147.631 618.088 -147.551 618.044 Q -147.471 618.000 -147.390 617.958 Q -147.309 617.915 -147.227 617.875 Q -147.145 617.834 -147.062 617.795 Q -146.979 617.756 -146.895 617.718 Q -146.811 617.681 -146.727 617.646 Q -146.642 617.610 -146.556 617.576 Q -146.470 617.542 -146.384 617.510 Q -146.298 617.478 -146.210 617.448 Q -146.123 617.418 -146.035 617.389 Q -145.947 617.361 -145.858 617.334 Q -145.770 617.308 -145.681 617.283 Q -145.591 617.258 -145.501 617.235 Q -145.412 617.213 -145.321 617.192 Q -145.231 617.171 -145.140 617.151 Q -145.049 617.132 -144.958 617.115 Q -144.866 617.098 -144.775 617.082 Q -144.683 617.067 -144.591 617.054 Q -144.499 617.040 -144.406 617.029 Q -144.314 617.017 -144.221 617.007 Q -144.128 616.998 -144.035 616.990 Q -143.943 616.982 -143.850 616.977 Q -143.756 616.971 -143.663 616.967 Q -143.570 616.963 -143.477 616.961 Q -143.384 616.959 -143.290 616.959 Q -143.197 616.959 -143.104 616.961 Q -143.011 616.963 -142.917 616.967 Q -142.824 616.971 -142.731 616.977 Q -142.638 616.982 -142.545 616.990 Q -142.452 616.998 -142.360 617.007 Q -142.267 617.017 -142.175 617.029 Q -142.082 617.040 -141.990 617.054 Q -141.898 617.067 -141.806 617.082 Q -141.714 617.098 -141.623 617.115 Q -141.532 617.132 -141.441 617.151 Q -141.350 617.171 -141.260 617.192 Q -141.169 617.213 -141.079 617.235 Q -140.989 617.258 -140.900 617.283 Q -140.811 617.308 -140.722 617.334 Q -140.634 617.361 -140.546 617.389 Q -140.458 617.418 -140.370 617.448 Q -140.283 617.478 -140.197 617.510 Q -140.110 617.542 -140.025 617.576 Q -139.939 617.610 -139.854 617.645 Q -139.769 617.681 -139.685 617.718 Q -139.602 617.756 -139.519 617.795 Q -139.436 617.834 -139.354 617.875 Q -139.272 617.915 -139.191 617.958 Q -139.110 618.000 -139.030 618.044 Q -138.950 618.088 -138.871 618.134 Q -138.792 618.180 -138.715 618.227 Q -138.637 618.275 -138.561 618.323 Q -138.484 618.372 -138.409 618.423 Q -138.334 618.473 -138.260 618.526 Q -138.186 618.578 -138.113 618.631 Q -138.041 618.685 -137.969 618.740 Q -137.898 618.795 -137.828 618.851 Q -137.758 618.908 -137.690 618.966 Q -137.621 619.024 -137.554 619.083 Q -137.487 619.143 -137.422 619.203 Q -137.356 619.264 -137.292 619.326 Q -137.228 619.388 -137.165 619.452 Q -137.103 619.515 -137.042 619.580 Q -136.981 619.645 -136.922 619.710 Q -136.862 619.776 -136.805 619.844 Q -136.747 619.911 -136.691 619.979 Q -136.635 620.047 -136.581 620.117 Q -136.526 620.186 -136.474 620.257 Q -136.421 620.327 -136.370 620.399 Q -136.320 620.471 -136.271 620.543 Q -136.221 620.616 -136.174 620.689 Q -136.127 620.763 -136.082 620.838 Q -136.036 620.912 -135.993 620.988 Q -135.949 621.063 -135.907 621.140 Q -135.866 621.216 -135.826 621.294 Q -135.786 621.371 -135.748 621.449 Q -135.710 621.527 -135.674 621.606 Q -135.639 621.685 -135.605 621.764 Q -135.571 621.844 -135.539 621.924 Q -135.507 622.004 -135.477 622.085 Q -135.446 622.166 -135.418 622.247 Q -135.390 622.329 -135.364 622.411 Q -135.338 622.493 -135.314 622.575 Q -135.291 622.658 -135.269 622.741 Q -135.247 622.824 -135.227 622.907 Q -135.207 622.991 -135.189 623.075 Q -135.171 623.159 -135.156 623.243 Q -135.140 623.327 -135.126 623.412 Q -135.113 623.496 -135.101 623.581 Q -135.089 623.666 -135.080 623.751 Q -135.070 623.836 -135.063 623.921 Q -135.056 624.006 -135.050 624.091 Q -135.045 624.177 -135.042 624.262 Q -135.039 624.347 -135.038 624.433 Z"></path>
    <path id="STROKE_a40fa3ff-84cd-4879-9280-f7a1cbccc9af" opacity="1.000" fill="none" stroke="#ffffff" stroke-width="2.500" stroke-opacity="1.000" stroke-linecap="round" stroke-linejoin="round" stroke-dasharray="0.250,3.750" d="M -93.719 624.764 Q -93.718 624.849 -93.719 624.934 Q -93.720 625.020 -93.723 625.105 Q -93.727 625.190 -93.732 625.276 Q -93.737 625.361 -93.745 625.446 Q -93.752 625.531 -93.761 625.616 Q -93.771 625.701 -93.782 625.786 Q -93.794 625.871 -93.808 625.955 Q -93.821 626.040 -93.837 626.124 Q -93.853 626.208 -93.871 626.292 Q -93.888 626.376 -93.908 626.459 Q -93.928 626.543 -93.950 626.626 Q -93.972 626.709 -93.996 626.792 Q -94.020 626.874 -94.046 626.956 Q -94.072 627.038 -94.100 627.120 Q -94.128 627.201 -94.158 627.282 Q -94.188 627.363 -94.220 627.443 Q -94.252 627.523 -94.286 627.603 Q -94.320 627.682 -94.356 627.761 Q -94.392 627.840 -94.430 627.918 Q -94.468 627.996 -94.507 628.073 Q -94.547 628.151 -94.589 628.227 Q -94.631 628.304 -94.674 628.379 Q -94.718 628.455 -94.763 628.529 Q -94.808 628.604 -94.856 628.677 Q -94.903 628.751 -94.952 628.824 Q -95.001 628.896 -95.052 628.968 Q -95.103 629.040 -95.155 629.110 Q -95.208 629.181 -95.262 629.250 Q -95.316 629.320 -95.372 629.388 Q -95.429 629.456 -95.486 629.523 Q -95.544 629.591 -95.603 629.657 Q -95.663 629.722 -95.723 629.787 Q -95.784 629.852 -95.847 629.915 Q -95.909 629.979 -95.973 630.041 Q -96.038 630.103 -96.103 630.164 Q -96.169 630.224 -96.236 630.284 Q -96.303 630.343 -96.371 630.401 Q -96.440 630.459 -96.510 630.516 Q -96.580 630.572 -96.651 630.627 Q -96.722 630.682 -96.795 630.736 Q -96.868 630.789 -96.941 630.841 Q -97.015 630.893 -97.091 630.944 Q -97.166 630.995 -97.242 631.043 Q -97.319 631.092 -97.396 631.140 Q -97.474 631.187 -97.553 631.233 Q -97.632 631.279 -97.711 631.323 Q -97.791 631.367 -97.872 631.409 Q -97.953 631.452 -98.035 631.492 Q -98.117 631.533 -98.200 631.572 Q -98.283 631.611 -98.367 631.649 Q -98.451 631.686 -98.536 631.721 Q -98.620 631.757 -98.706 631.791 Q -98.792 631.825 -98.878 631.857 Q -98.965 631.889 -99.052 631.919 Q -99.139 631.949 -99.227 631.978 Q -99.315 632.006 -99.404 632.032 Q -99.492 632.059 -99.582 632.084 Q -99.671 632.109 -99.761 632.131 Q -99.851 632.154 -99.941 632.175 Q -100.031 632.196 -100.122 632.216 Q -100.213 632.235 -100.305 632.252 Q -100.396 632.269 -100.488 632.284 Q -100.579 632.300 -100.672 632.313 Q -100.764 632.327 -100.856 632.338 Q -100.948 632.350 -101.041 632.359 Q -101.134 632.369 -101.227 632.377 Q -101.320 632.385 -101.413 632.390 Q -101.506 632.396 -101.599 632.400 Q -101.692 632.404 -101.785 632.406 Q -101.879 632.408 -101.972 632.408 Q -102.065 632.408 -102.158 632.406 Q -102.252 632.404 -102.345 632.400 Q -102.438 632.396 -102.531 632.390 Q -102.624 632.385 -102.717 632.377 Q -102.810 632.369 -102.902 632.359 Q -102.995 632.350 -103.088 632.338 Q -103.180 632.327 -103.272 632.313 Q -103.364 632.300 -103.456 632.285 Q -103.548 632.269 -103.639 632.252 Q -103.730 632.235 -103.821 632.216 Q -103.912 632.196 -104.003 632.175 Q -104.093 632.154 -104.183 632.131 Q -104.273 632.109 -104.362 632.084 Q -104.451 632.059 -104.540 632.032 Q -104.629 632.006 -104.717 631.978 Q -104.804 631.949 -104.892 631.919 Q -104.979 631.889 -105.065 631.857 Q -105.152 631.825 -105.238 631.791 Q -105.323 631.757 -105.408 631.721 Q -105.493 631.686 -105.577 631.649 Q -105.661 631.611 -105.744 631.572 Q -105.827 631.533 -105.909 631.492 Q -105.990 631.452 -106.071 631.409 Q -106.152 631.367 -106.232 631.323 Q -106.312 631.279 -106.391 631.233 Q -106.470 631.187 -106.547 631.140 Q -106.625 631.092 -106.701 631.043 Q -106.778 630.995 -106.853 630.944 Q -106.928 630.893 -107.002 630.841 Q -107.076 630.789 -107.149 630.736 Q -107.221 630.682 -107.293 630.627 Q -107.364 630.572 -107.434 630.516 Q -107.504 630.459 -107.572 630.401 Q -107.641 630.343 -107.708 630.284 Q -107.775 630.224 -107.841 630.164 Q -107.906 630.103 -107.970 630.041 Q -108.034 629.979 -108.097 629.915 Q -108.159 629.852 -108.220 629.787 Q -108.281 629.723 -108.340 629.657 Q -108.400 629.591 -108.457 629.524 Q -108.515 629.456 -108.571 629.388 Q -108.627 629.320 -108.681 629.250 Q -108.736 629.181 -108.788 629.110 Q -108.841 629.040 -108.892 628.968 Q -108.943 628.897 -108.992 628.824 Q -109.041 628.751 -109.088 628.678 Q -109.135 628.604 -109.181 628.529 Q -109.226 628.455 -109.270 628.379 Q -109.313 628.304 -109.355 628.227 Q -109.396 628.151 -109.436 628.073 Q -109.476 627.996 -109.514 627.918 Q -109.552 627.840 -109.588 627.761 Q -109.624 627.682 -109.658 627.603 Q -109.692 627.523 -109.724 627.443 Q -109.756 627.363 -109.786 627.282 Q -109.816 627.201 -109.844 627.120 Q -109.872 627.038 -109.898 626.956 Q -109.924 626.874 -109.948 626.792 Q -109.972 626.709 -109.994 626.626 Q -110.016 626.543 -110.035 626.459 Q -110.055 626.376 -110.073 626.292 Q -110.091 626.208 -110.107 626.124 Q -110.122 626.040 -110.136 625.955 Q -110.150 625.871 -110.161 625.786 Q -110.173 625.701 -110.182 625.616 Q -110.192 625.531 -110.199 625.446 Q -110.206 625.361 -110.212 625.276 Q -110.217 625.191 -110.220 625.105 Q -110.223 625.020 -110.224 624.934 Q -110.225 624.849 -110.224 624.764 Q -110.223 624.678 -110.220 624.593 Q -110.217 624.507 -110.212 624.422 Q -110.206 624.337 -110.199 624.252 Q -110.192 624.166 -110.182 624.081 Q -110.173 623.997 -110.161 623.912 Q -110.150 623.827 -110.136 623.742 Q -110.122 623.658 -110.107 623.574 Q -110.091 623.490 -110.073 623.406 Q -110.055 623.322 -110.035 623.238 Q -110.016 623.155 -109.994 623.072 Q -109.972 622.989 -109.948 622.906 Q -109.924 622.824 -109.898 622.742 Q -109.872 622.660 -109.844 622.578 Q -109.816 622.497 -109.786 622.416 Q -109.756 622.335 -109.724 622.255 Q -109.692 622.174 -109.658 622.095 Q -109.624 622.015 -109.588 621.937 Q -109.552 621.858 -109.514 621.780 Q -109.476 621.702 -109.436 621.624 Q -109.397 621.547 -109.355 621.471 Q -109.313 621.394 -109.270 621.319 Q -109.226 621.243 -109.181 621.169 Q -109.135 621.094 -109.088 621.020 Q -109.041 620.947 -108.992 620.874 Q -108.943 620.801 -108.892 620.730 Q -108.841 620.658 -108.788 620.588 Q -108.736 620.517 -108.681 620.448 Q -108.627 620.378 -108.571 620.310 Q -108.515 620.241 -108.457 620.174 Q -108.400 620.107 -108.340 620.041 Q -108.281 619.975 -108.220 619.911 Q -108.159 619.846 -108.097 619.783 Q -108.034 619.719 -107.970 619.657 Q -107.906 619.595 -107.841 619.534 Q -107.775 619.474 -107.708 619.414 Q -107.641 619.355 -107.572 619.297 Q -107.504 619.239 -107.434 619.182 Q -107.364 619.126 -107.293 619.071 Q -107.221 619.016 -107.149 618.962 Q -107.076 618.909 -107.002 618.856 Q -106.928 618.804 -106.853 618.754 Q -106.778 618.703 -106.701 618.654 Q -106.625 618.605 -106.547 618.558 Q -106.470 618.511 -106.391 618.465 Q -106.312 618.419 -106.232 618.375 Q -106.152 618.331 -106.071 618.289 Q -105.990 618.246 -105.909 618.205 Q -105.827 618.165 -105.744 618.126 Q -105.661 618.087 -105.577 618.049 Q -105.493 618.012 -105.408 617.976 Q -105.323 617.941 -105.238 617.907 Q -105.152 617.873 -105.065 617.841 Q -104.979 617.809 -104.892 617.779 Q -104.804 617.749 -104.716 617.720 Q -104.629 617.692 -104.540 617.665 Q -104.451 617.639 -104.362 617.614 Q -104.273 617.589 -104.183 617.566 Q -104.093 617.544 -104.003 617.523 Q -103.912 617.502 -103.821 617.482 Q -103.730 617.463 -103.639 617.446 Q -103.548 617.429 -103.456 617.413 Q -103.364 617.398 -103.272 617.385 Q -103.180 617.371 -103.088 617.359 Q -102.995 617.348 -102.902 617.338 Q -102.810 617.329 -102.717 617.321 Q -102.624 617.313 -102.531 617.307 Q -102.438 617.302 -102.345 617.298 Q -102.252 617.294 -102.158 617.292 Q -102.065 617.290 -101.972 617.290 Q -101.879 617.290 -101.785 617.292 Q -101.692 617.294 -101.599 617.298 Q -101.506 617.302 -101.413 617.307 Q -101.320 617.313 -101.227 617.321 Q -101.134 617.329 -101.041 617.338 Q -100.948 617.348 -100.856 617.359 Q -100.764 617.371 -100.671 617.385 Q -100.579 617.398 -100.488 617.413 Q -100.396 617.429 -100.305 617.446 Q -100.213 617.463 -100.122 617.482 Q -100.031 617.501 -99.941 617.522 Q -99.851 617.544 -99.761 617.566 Q -99.671 617.589 -99.582 617.614 Q -99.492 617.639 -99.404 617.665 Q -99.315 617.692 -99.227 617.720 Q -99.139 617.749 -99.052 617.779 Q -98.965 617.809 -98.878 617.841 Q -98.792 617.873 -98.706 617.907 Q -98.620 617.941 -98.536 617.976 Q -98.451 618.012 -98.367 618.049 Q -98.283 618.087 -98.200 618.126 Q -98.117 618.165 -98.035 618.205 Q -97.953 618.246 -97.872 618.289 Q -97.791 618.331 -97.711 618.375 Q -97.631 618.419 -97.553 618.465 Q -97.474 618.511 -97.396 618.558 Q -97.319 618.605 -97.242 618.654 Q -97.166 618.703 -97.091 618.754 Q -97.015 618.804 -96.941 618.856 Q -96.867 618.909 -96.795 618.962 Q -96.722 619.016 -96.651 619.071 Q -96.580 619.126 -96.510 619.182 Q -96.440 619.239 -96.371 619.297 Q -96.303 619.355 -96.236 619.414 Q -96.169 619.474 -96.103 619.534 Q -96.037 619.595 -95.973 619.657 Q -95.909 619.719 -95.847 619.783 Q -95.784 619.846 -95.723 619.911 Q -95.662 619.975 -95.603 620.041 Q -95.544 620.107 -95.486 620.174 Q -95.428 620.242 -95.372 620.310 Q -95.316 620.378 -95.262 620.448 Q -95.208 620.517 -95.155 620.588 Q -95.103 620.658 -95.052 620.730 Q -95.001 620.801 -94.952 620.874 Q -94.903 620.947 -94.856 621.020 Q -94.808 621.094 -94.763 621.169 Q -94.718 621.243 -94.674 621.319 Q -94.630 621.394 -94.589 621.471 Q -94.547 621.547 -94.507 621.624 Q -94.468 621.702 -94.430 621.780 Q -94.392 621.858 -94.356 621.937 Q -94.320 622.015 -94.286 622.095 Q -94.252 622.175 -94.220 622.255 Q -94.188 622.335 -94.158 622.416 Q -94.128 622.497 -94.100 622.578 Q -94.072 622.660 -94.046 622.742 Q -94.020 622.824 -93.996 622.906 Q -93.972 622.989 -93.950 623.072 Q -93.928 623.155 -93.908 623.238 Q -93.888 623.322 -93.871 623.406 Q -93.853 623.490 -93.837 623.574 Q -93.821 623.658 -93.808 623.743 Q -93.794 623.827 -93.782 623.912 Q -93.771 623.997 -93.761 624.082 Q -93.752 624.167 -93.745 624.252 Q -93.737 624.337 -93.732 624.422 Q -93.727 624.507 -93.723 624.593 Q -93.720 624.678 -93.719 624.764 Z"></path>
    <path id="STROKE_58509ffe-bc7c-48bc-b8e5-4935f3bcd6d0" opacity="1.000" fill="none" stroke="#ffffff" stroke-width="2.500" stroke-opacity="1.000" stroke-linecap="round" stroke-linejoin="round" stroke-dasharray="0.250,3.750" d="M -135.109 668.710 Q -135.107 668.795 -135.109 668.881 Q -135.110 668.966 -135.113 669.051 Q -135.116 669.137 -135.121 669.222 Q -135.126 669.307 -135.134 669.392 Q -135.141 669.478 -135.151 669.563 Q -135.160 669.648 -135.172 669.732 Q -135.183 669.817 -135.197 669.902 Q -135.211 669.986 -135.226 670.070 Q -135.242 670.155 -135.260 670.238 Q -135.278 670.322 -135.298 670.406 Q -135.317 670.489 -135.339 670.572 Q -135.361 670.655 -135.385 670.738 Q -135.409 670.820 -135.435 670.902 Q -135.461 670.984 -135.489 671.066 Q -135.517 671.147 -135.547 671.228 Q -135.577 671.309 -135.609 671.389 Q -135.641 671.470 -135.675 671.549 Q -135.709 671.629 -135.745 671.708 Q -135.781 671.786 -135.819 671.864 Q -135.857 671.943 -135.897 672.020 Q -135.936 672.097 -135.978 672.173 Q -136.020 672.250 -136.063 672.325 Q -136.107 672.401 -136.152 672.475 Q -136.198 672.550 -136.245 672.624 Q -136.292 672.697 -136.341 672.770 Q -136.390 672.843 -136.441 672.914 Q -136.492 672.986 -136.545 673.057 Q -136.597 673.127 -136.651 673.197 Q -136.706 673.266 -136.762 673.334 Q -136.818 673.403 -136.875 673.470 Q -136.933 673.537 -136.992 673.603 Q -137.052 673.669 -137.113 673.733 Q -137.174 673.798 -137.236 673.861 Q -137.299 673.925 -137.363 673.987 Q -137.427 674.049 -137.492 674.110 Q -137.558 674.171 -137.625 674.230 Q -137.692 674.289 -137.761 674.347 Q -137.829 674.405 -137.899 674.462 Q -137.969 674.518 -138.040 674.573 Q -138.112 674.628 -138.184 674.682 Q -138.257 674.736 -138.331 674.788 Q -138.405 674.840 -138.480 674.890 Q -138.555 674.941 -138.632 674.990 Q -138.708 675.039 -138.786 675.086 Q -138.863 675.133 -138.942 675.179 Q -139.021 675.225 -139.101 675.269 Q -139.181 675.313 -139.262 675.356 Q -139.342 675.398 -139.424 675.439 Q -139.506 675.479 -139.589 675.519 Q -139.672 675.558 -139.756 675.595 Q -139.840 675.632 -139.925 675.668 Q -140.010 675.703 -140.095 675.737 Q -140.181 675.771 -140.268 675.803 Q -140.354 675.835 -140.441 675.865 Q -140.528 675.895 -140.616 675.924 Q -140.704 675.952 -140.793 675.979 Q -140.882 676.005 -140.971 676.030 Q -141.060 676.055 -141.150 676.078 Q -141.240 676.101 -141.330 676.122 Q -141.421 676.143 -141.512 676.162 Q -141.603 676.181 -141.694 676.198 Q -141.785 676.215 -141.877 676.231 Q -141.969 676.246 -142.061 676.260 Q -142.153 676.273 -142.245 676.285 Q -142.338 676.296 -142.430 676.306 Q -142.523 676.315 -142.616 676.323 Q -142.709 676.331 -142.802 676.337 Q -142.895 676.342 -142.988 676.346 Q -143.081 676.350 -143.175 676.352 Q -143.268 676.354 -143.361 676.354 Q -143.454 676.354 -143.548 676.352 Q -143.641 676.350 -143.734 676.346 Q -143.827 676.342 -143.920 676.337 Q -144.013 676.331 -144.106 676.323 Q -144.199 676.315 -144.292 676.306 Q -144.384 676.296 -144.477 676.285 Q -144.569 676.273 -144.661 676.260 Q -144.753 676.246 -144.845 676.231 Q -144.937 676.215 -145.028 676.198 Q -145.120 676.181 -145.211 676.162 Q -145.301 676.143 -145.392 676.122 Q -145.482 676.101 -145.572 676.078 Q -145.662 676.055 -145.751 676.030 Q -145.841 676.005 -145.929 675.979 Q -146.018 675.952 -146.106 675.924 Q -146.194 675.895 -146.281 675.865 Q -146.368 675.835 -146.455 675.803 Q -146.541 675.771 -146.627 675.737 Q -146.712 675.703 -146.797 675.668 Q -146.882 675.632 -146.966 675.595 Q -147.050 675.558 -147.133 675.519 Q -147.216 675.479 -147.298 675.439 Q -147.380 675.398 -147.461 675.356 Q -147.542 675.313 -147.622 675.269 Q -147.701 675.225 -147.780 675.179 Q -147.859 675.133 -147.937 675.086 Q -148.014 675.039 -148.091 674.990 Q -148.167 674.941 -148.242 674.890 Q -148.318 674.840 -148.391 674.788 Q -148.465 674.736 -148.538 674.682 Q -148.611 674.628 -148.682 674.573 Q -148.753 674.518 -148.823 674.462 Q -148.893 674.405 -148.962 674.347 Q -149.030 674.289 -149.097 674.230 Q -149.164 674.171 -149.230 674.110 Q -149.295 674.049 -149.359 673.987 Q -149.424 673.925 -149.486 673.862 Q -149.549 673.798 -149.609 673.734 Q -149.670 673.669 -149.730 673.603 Q -149.789 673.537 -149.847 673.470 Q -149.904 673.403 -149.960 673.334 Q -150.016 673.266 -150.071 673.197 Q -150.125 673.127 -150.178 673.057 Q -150.230 672.986 -150.281 672.914 Q -150.332 672.843 -150.381 672.770 Q -150.430 672.697 -150.477 672.624 Q -150.524 672.550 -150.570 672.475 Q -150.615 672.401 -150.659 672.325 Q -150.702 672.250 -150.744 672.173 Q -150.786 672.097 -150.826 672.020 Q -150.865 671.943 -150.903 671.864 Q -150.941 671.786 -150.977 671.708 Q -151.013 671.629 -151.047 671.549 Q -151.081 671.470 -151.113 671.389 Q -151.145 671.309 -151.175 671.228 Q -151.205 671.147 -151.233 671.066 Q -151.261 670.984 -151.287 670.902 Q -151.313 670.820 -151.337 670.738 Q -151.361 670.655 -151.383 670.572 Q -151.405 670.489 -151.425 670.406 Q -151.445 670.322 -151.462 670.238 Q -151.480 670.155 -151.496 670.070 Q -151.512 669.986 -151.525 669.902 Q -151.539 669.817 -151.551 669.732 Q -151.562 669.648 -151.572 669.563 Q -151.581 669.478 -151.588 669.393 Q -151.596 669.307 -151.601 669.222 Q -151.606 669.137 -151.609 669.051 Q -151.613 668.966 -151.614 668.881 Q -151.615 668.795 -151.614 668.710 Q -151.613 668.624 -151.609 668.539 Q -151.606 668.454 -151.601 668.368 Q -151.596 668.283 -151.588 668.198 Q -151.581 668.113 -151.572 668.028 Q -151.562 667.943 -151.551 667.858 Q -151.539 667.773 -151.525 667.689 Q -151.512 667.604 -151.496 667.520 Q -151.480 667.436 -151.462 667.352 Q -151.445 667.268 -151.425 667.185 Q -151.405 667.101 -151.383 667.018 Q -151.361 666.935 -151.337 666.853 Q -151.313 666.770 -151.287 666.688 Q -151.261 666.606 -151.233 666.524 Q -151.205 666.443 -151.175 666.362 Q -151.145 666.281 -151.113 666.201 Q -151.081 666.121 -151.047 666.041 Q -151.013 665.962 -150.977 665.883 Q -150.941 665.804 -150.903 665.726 Q -150.865 665.648 -150.826 665.571 Q -150.786 665.493 -150.744 665.417 Q -150.702 665.341 -150.659 665.265 Q -150.615 665.190 -150.570 665.115 Q -150.524 665.040 -150.477 664.967 Q -150.430 664.893 -150.381 664.820 Q -150.332 664.748 -150.281 664.676 Q -150.230 664.604 -150.178 664.534 Q -150.125 664.463 -150.071 664.394 Q -150.016 664.324 -149.960 664.256 Q -149.904 664.188 -149.847 664.121 Q -149.789 664.053 -149.730 663.988 Q -149.670 663.922 -149.609 663.857 Q -149.549 663.792 -149.486 663.729 Q -149.424 663.665 -149.359 663.603 Q -149.295 663.541 -149.230 663.481 Q -149.164 663.420 -149.097 663.360 Q -149.030 663.301 -148.962 663.243 Q -148.893 663.185 -148.823 663.129 Q -148.753 663.072 -148.682 663.017 Q -148.611 662.962 -148.538 662.908 Q -148.465 662.855 -148.391 662.803 Q -148.318 662.751 -148.242 662.700 Q -148.167 662.650 -148.091 662.601 Q -148.014 662.552 -147.937 662.504 Q -147.859 662.457 -147.780 662.411 Q -147.701 662.365 -147.622 662.321 Q -147.542 662.277 -147.461 662.235 Q -147.380 662.192 -147.298 662.152 Q -147.216 662.111 -147.133 662.072 Q -147.050 662.033 -146.966 661.995 Q -146.882 661.958 -146.797 661.923 Q -146.712 661.887 -146.627 661.853 Q -146.541 661.819 -146.455 661.787 Q -146.368 661.755 -146.281 661.725 Q -146.194 661.695 -146.106 661.667 Q -146.018 661.638 -145.929 661.612 Q -145.841 661.585 -145.751 661.560 Q -145.662 661.535 -145.572 661.513 Q -145.482 661.490 -145.392 661.469 Q -145.301 661.448 -145.211 661.429 Q -145.120 661.409 -145.028 661.392 Q -144.937 661.375 -144.845 661.360 Q -144.753 661.344 -144.661 661.331 Q -144.569 661.317 -144.477 661.306 Q -144.384 661.294 -144.292 661.285 Q -144.199 661.275 -144.106 661.267 Q -144.013 661.260 -143.920 661.254 Q -143.827 661.248 -143.734 661.244 Q -143.641 661.240 -143.548 661.238 Q -143.454 661.236 -143.361 661.236 Q -143.268 661.236 -143.175 661.238 Q -143.081 661.240 -142.988 661.244 Q -142.895 661.248 -142.802 661.254 Q -142.709 661.260 -142.616 661.267 Q -142.523 661.275 -142.430 661.285 Q -142.338 661.294 -142.245 661.306 Q -142.153 661.317 -142.061 661.331 Q -141.969 661.344 -141.877 661.360 Q -141.785 661.375 -141.694 661.392 Q -141.602 661.409 -141.512 661.429 Q -141.421 661.448 -141.330 661.469 Q -141.240 661.490 -141.150 661.513 Q -141.060 661.536 -140.971 661.560 Q -140.882 661.585 -140.793 661.612 Q -140.704 661.638 -140.616 661.667 Q -140.528 661.695 -140.441 661.725 Q -140.354 661.755 -140.267 661.787 Q -140.181 661.819 -140.095 661.853 Q -140.010 661.887 -139.925 661.923 Q -139.840 661.958 -139.756 661.995 Q -139.672 662.033 -139.589 662.072 Q -139.506 662.111 -139.424 662.152 Q -139.342 662.192 -139.261 662.235 Q -139.180 662.277 -139.101 662.321 Q -139.021 662.366 -138.942 662.411 Q -138.863 662.457 -138.786 662.504 Q -138.708 662.552 -138.632 662.601 Q -138.555 662.650 -138.480 662.700 Q -138.405 662.751 -138.331 662.803 Q -138.257 662.855 -138.184 662.908 Q -138.111 662.962 -138.040 663.017 Q -137.969 663.072 -137.899 663.129 Q -137.829 663.185 -137.761 663.243 Q -137.692 663.301 -137.625 663.360 Q -137.558 663.420 -137.492 663.481 Q -137.427 663.541 -137.363 663.603 Q -137.299 663.666 -137.236 663.729 Q -137.174 663.792 -137.113 663.857 Q -137.052 663.922 -136.992 663.988 Q -136.933 664.054 -136.875 664.121 Q -136.818 664.188 -136.762 664.256 Q -136.706 664.324 -136.651 664.394 Q -136.597 664.463 -136.545 664.534 Q -136.492 664.604 -136.441 664.676 Q -136.390 664.748 -136.341 664.820 Q -136.292 664.893 -136.245 664.967 Q -136.198 665.040 -136.152 665.115 Q -136.107 665.190 -136.063 665.265 Q -136.020 665.341 -135.978 665.417 Q -135.936 665.493 -135.897 665.571 Q -135.857 665.648 -135.819 665.726 Q -135.781 665.804 -135.745 665.883 Q -135.709 665.962 -135.675 666.041 Q -135.641 666.121 -135.609 666.201 Q -135.577 666.281 -135.547 666.362 Q -135.517 666.443 -135.489 666.525 Q -135.461 666.606 -135.435 666.688 Q -135.409 666.770 -135.385 666.853 Q -135.361 666.935 -135.339 667.018 Q -135.317 667.101 -135.297 667.185 Q -135.278 667.268 -135.260 667.352 Q -135.242 667.436 -135.226 667.520 Q -135.211 667.604 -135.197 667.689 Q -135.183 667.773 -135.172 667.858 Q -135.160 667.943 -135.151 668.028 Q -135.141 668.113 -135.134 668.198 Q -135.126 668.283 -135.121 668.368 Q -135.116 668.454 -135.113 668.539 Q -135.110 668.625 -135.109 668.710 Z"></path>
    <path id="STROKE_e134af37-e0f9-4eeb-ae7c-eb15a1aa73bc" opacity="1.000" fill="none" stroke="#ffffff" stroke-width="2.500" stroke-opacity="1.000" stroke-linecap="round" stroke-linejoin="round" stroke-dasharray="0.250,3.750" d="M -93.790 669.041 Q -93.789 669.126 -93.790 669.212 Q -93.791 669.297 -93.794 669.382 Q -93.797 669.468 -93.803 669.553 Q -93.808 669.638 -93.815 669.724 Q -93.823 669.809 -93.832 669.894 Q -93.842 669.979 -93.853 670.063 Q -93.865 670.148 -93.878 670.233 Q -93.892 670.317 -93.908 670.401 Q -93.923 670.486 -93.941 670.569 Q -93.959 670.653 -93.979 670.737 Q -93.999 670.820 -94.021 670.903 Q -94.043 670.986 -94.067 671.069 Q -94.091 671.151 -94.117 671.233 Q -94.143 671.315 -94.171 671.397 Q -94.199 671.478 -94.229 671.559 Q -94.259 671.640 -94.291 671.720 Q -94.323 671.801 -94.357 671.880 Q -94.391 671.960 -94.427 672.039 Q -94.463 672.117 -94.500 672.195 Q -94.538 672.273 -94.578 672.351 Q -94.618 672.428 -94.660 672.504 Q -94.701 672.581 -94.745 672.656 Q -94.788 672.732 -94.834 672.807 Q -94.879 672.881 -94.926 672.955 Q -94.974 673.028 -95.023 673.101 Q -95.072 673.174 -95.123 673.245 Q -95.173 673.317 -95.226 673.388 Q -95.279 673.458 -95.333 673.528 Q -95.387 673.597 -95.443 673.665 Q -95.499 673.734 -95.557 673.801 Q -95.615 673.868 -95.674 673.934 Q -95.733 674.000 -95.794 674.064 Q -95.855 674.129 -95.918 674.193 Q -95.980 674.256 -96.044 674.318 Q -96.108 674.380 -96.174 674.441 Q -96.239 674.502 -96.306 674.561 Q -96.374 674.620 -96.442 674.678 Q -96.511 674.736 -96.580 674.793 Q -96.650 674.849 -96.722 674.904 Q -96.793 674.959 -96.866 675.013 Q -96.938 675.067 -97.012 675.119 Q -97.086 675.171 -97.161 675.221 Q -97.237 675.272 -97.313 675.321 Q -97.389 675.370 -97.467 675.417 Q -97.545 675.464 -97.623 675.510 Q -97.702 675.556 -97.782 675.600 Q -97.862 675.644 -97.943 675.687 Q -98.024 675.729 -98.106 675.770 Q -98.188 675.810 -98.271 675.849 Q -98.354 675.889 -98.438 675.926 Q -98.522 675.963 -98.606 675.999 Q -98.691 676.034 -98.777 676.068 Q -98.862 676.102 -98.949 676.134 Q -99.035 676.166 -99.123 676.196 Q -99.210 676.226 -99.298 676.255 Q -99.386 676.283 -99.474 676.310 Q -99.563 676.336 -99.652 676.361 Q -99.742 676.386 -99.831 676.409 Q -99.921 676.432 -100.012 676.453 Q -100.102 676.474 -100.193 676.493 Q -100.284 676.512 -100.375 676.529 Q -100.467 676.546 -100.558 676.562 Q -100.650 676.577 -100.742 676.591 Q -100.834 676.604 -100.927 676.616 Q -101.019 676.627 -101.112 676.637 Q -101.205 676.646 -101.297 676.654 Q -101.390 676.662 -101.483 676.668 Q -101.576 676.673 -101.670 676.677 Q -101.763 676.681 -101.856 676.683 Q -101.949 676.685 -102.043 676.685 Q -102.136 676.685 -102.229 676.683 Q -102.322 676.681 -102.415 676.677 Q -102.509 676.673 -102.602 676.668 Q -102.695 676.662 -102.788 676.654 Q -102.881 676.646 -102.973 676.637 Q -103.066 676.627 -103.158 676.616 Q -103.251 676.604 -103.343 676.591 Q -103.435 676.577 -103.527 676.562 Q -103.618 676.546 -103.710 676.529 Q -103.801 676.512 -103.892 676.493 Q -103.983 676.474 -104.073 676.453 Q -104.164 676.432 -104.254 676.409 Q -104.343 676.386 -104.433 676.361 Q -104.522 676.336 -104.611 676.310 Q -104.699 676.283 -104.787 676.255 Q -104.875 676.226 -104.962 676.196 Q -105.050 676.166 -105.136 676.134 Q -105.223 676.102 -105.308 676.068 Q -105.394 676.034 -105.479 675.999 Q -105.564 675.963 -105.647 675.926 Q -105.731 675.889 -105.814 675.849 Q -105.897 675.810 -105.979 675.770 Q -106.061 675.729 -106.142 675.687 Q -106.223 675.644 -106.303 675.600 Q -106.383 675.556 -106.462 675.510 Q -106.540 675.464 -106.618 675.417 Q -106.696 675.370 -106.772 675.321 Q -106.849 675.272 -106.924 675.221 Q -106.999 675.171 -107.073 675.119 Q -107.147 675.067 -107.219 675.013 Q -107.292 674.959 -107.363 674.904 Q -107.435 674.849 -107.505 674.793 Q -107.575 674.736 -107.643 674.678 Q -107.712 674.620 -107.779 674.561 Q -107.846 674.502 -107.911 674.441 Q -107.977 674.380 -108.041 674.318 Q -108.105 674.256 -108.167 674.193 Q -108.230 674.129 -108.291 674.064 Q -108.352 674.000 -108.411 673.934 Q -108.470 673.868 -108.528 673.801 Q -108.586 673.734 -108.642 673.665 Q -108.698 673.597 -108.752 673.528 Q -108.806 673.458 -108.859 673.388 Q -108.912 673.317 -108.962 673.245 Q -109.013 673.174 -109.062 673.101 Q -109.111 673.028 -109.159 672.955 Q -109.206 672.881 -109.251 672.807 Q -109.297 672.732 -109.340 672.656 Q -109.384 672.581 -109.426 672.504 Q -109.467 672.428 -109.507 672.351 Q -109.547 672.273 -109.585 672.195 Q -109.623 672.117 -109.658 672.039 Q -109.694 671.960 -109.728 671.880 Q -109.762 671.801 -109.794 671.720 Q -109.826 671.640 -109.856 671.559 Q -109.886 671.478 -109.914 671.397 Q -109.942 671.315 -109.968 671.233 Q -109.994 671.151 -110.018 671.069 Q -110.042 670.986 -110.064 670.903 Q -110.086 670.820 -110.106 670.737 Q -110.126 670.653 -110.144 670.569 Q -110.162 670.486 -110.177 670.401 Q -110.193 670.317 -110.207 670.233 Q -110.220 670.148 -110.232 670.063 Q -110.244 669.979 -110.253 669.894 Q -110.262 669.809 -110.270 669.724 Q -110.277 669.638 -110.282 669.553 Q -110.288 669.468 -110.291 669.382 Q -110.294 669.297 -110.295 669.212 Q -110.296 669.126 -110.295 669.041 Q -110.294 668.955 -110.291 668.870 Q -110.288 668.785 -110.282 668.699 Q -110.277 668.614 -110.270 668.529 Q -110.262 668.444 -110.253 668.359 Q -110.244 668.274 -110.232 668.189 Q -110.220 668.104 -110.207 668.020 Q -110.193 667.935 -110.177 667.851 Q -110.162 667.767 -110.144 667.683 Q -110.126 667.599 -110.106 667.516 Q -110.086 667.432 -110.064 667.349 Q -110.042 667.266 -110.018 667.184 Q -109.994 667.101 -109.968 667.019 Q -109.942 666.937 -109.914 666.855 Q -109.886 666.774 -109.856 666.693 Q -109.826 666.612 -109.794 666.532 Q -109.762 666.452 -109.728 666.372 Q -109.694 666.293 -109.658 666.214 Q -109.623 666.135 -109.585 666.057 Q -109.547 665.979 -109.507 665.902 Q -109.467 665.824 -109.426 665.748 Q -109.384 665.672 -109.340 665.596 Q -109.297 665.521 -109.251 665.446 Q -109.206 665.371 -109.159 665.298 Q -109.111 665.224 -109.062 665.151 Q -109.013 665.079 -108.962 665.007 Q -108.912 664.935 -108.859 664.865 Q -108.807 664.794 -108.752 664.725 Q -108.698 664.655 -108.642 664.587 Q -108.586 664.519 -108.528 664.452 Q -108.470 664.384 -108.411 664.319 Q -108.352 664.253 -108.291 664.188 Q -108.230 664.123 -108.167 664.060 Q -108.105 663.996 -108.041 663.934 Q -107.977 663.872 -107.911 663.812 Q -107.846 663.751 -107.779 663.692 Q -107.712 663.632 -107.643 663.574 Q -107.575 663.516 -107.505 663.460 Q -107.435 663.403 -107.363 663.348 Q -107.292 663.293 -107.219 663.239 Q -107.147 663.186 -107.073 663.134 Q -106.999 663.082 -106.924 663.031 Q -106.849 662.981 -106.772 662.932 Q -106.696 662.883 -106.618 662.835 Q -106.540 662.788 -106.462 662.742 Q -106.383 662.696 -106.303 662.652 Q -106.223 662.608 -106.142 662.566 Q -106.061 662.523 -105.979 662.483 Q -105.897 662.442 -105.814 662.403 Q -105.731 662.364 -105.647 662.327 Q -105.564 662.289 -105.479 662.254 Q -105.394 662.218 -105.308 662.184 Q -105.223 662.150 -105.136 662.118 Q -105.050 662.086 -104.962 662.056 Q -104.875 662.026 -104.787 661.998 Q -104.699 661.969 -104.611 661.943 Q -104.522 661.916 -104.433 661.891 Q -104.343 661.866 -104.254 661.844 Q -104.164 661.821 -104.073 661.800 Q -103.983 661.779 -103.892 661.760 Q -103.801 661.740 -103.710 661.723 Q -103.618 661.706 -103.527 661.691 Q -103.435 661.675 -103.343 661.662 Q -103.251 661.648 -103.158 661.637 Q -103.066 661.625 -102.973 661.616 Q -102.880 661.606 -102.788 661.598 Q -102.695 661.591 -102.602 661.585 Q -102.509 661.579 -102.415 661.575 Q -102.322 661.571 -102.229 661.569 Q -102.136 661.567 -102.042 661.567 Q -101.949 661.567 -101.856 661.569 Q -101.763 661.571 -101.670 661.575 Q -101.576 661.579 -101.483 661.585 Q -101.390 661.591 -101.297 661.598 Q -101.204 661.606 -101.112 661.616 Q -101.019 661.625 -100.927 661.637 Q -100.834 661.648 -100.742 661.662 Q -100.650 661.675 -100.558 661.691 Q -100.467 661.706 -100.375 661.723 Q -100.284 661.740 -100.193 661.760 Q -100.102 661.779 -100.012 661.800 Q -99.921 661.821 -99.831 661.844 Q -99.742 661.867 -99.652 661.891 Q -99.563 661.916 -99.474 661.943 Q -99.386 661.969 -99.298 661.998 Q -99.210 662.026 -99.123 662.056 Q -99.035 662.086 -98.949 662.118 Q -98.862 662.150 -98.777 662.184 Q -98.691 662.218 -98.606 662.254 Q -98.521 662.289 -98.438 662.327 Q -98.354 662.364 -98.271 662.403 Q -98.188 662.442 -98.106 662.483 Q -98.024 662.523 -97.943 662.566 Q -97.862 662.608 -97.782 662.652 Q -97.702 662.697 -97.623 662.742 Q -97.545 662.788 -97.467 662.835 Q -97.389 662.883 -97.313 662.932 Q -97.236 662.981 -97.161 663.031 Q -97.086 663.082 -97.012 663.134 Q -96.938 663.186 -96.866 663.239 Q -96.793 663.293 -96.722 663.348 Q -96.650 663.403 -96.580 663.460 Q -96.510 663.516 -96.442 663.574 Q -96.373 663.632 -96.306 663.692 Q -96.239 663.751 -96.174 663.812 Q -96.108 663.872 -96.044 663.934 Q -95.980 663.997 -95.918 664.060 Q -95.855 664.123 -95.794 664.188 Q -95.733 664.253 -95.674 664.319 Q -95.615 664.385 -95.557 664.452 Q -95.499 664.519 -95.443 664.587 Q -95.387 664.655 -95.333 664.725 Q -95.279 664.794 -95.226 664.865 Q -95.173 664.935 -95.123 665.007 Q -95.072 665.079 -95.023 665.151 Q -94.974 665.224 -94.926 665.298 Q -94.879 665.371 -94.834 665.446 Q -94.788 665.521 -94.745 665.596 Q -94.701 665.672 -94.660 665.748 Q -94.618 665.824 -94.578 665.902 Q -94.538 665.979 -94.500 666.057 Q -94.462 666.135 -94.427 666.214 Q -94.391 666.293 -94.357 666.372 Q -94.323 666.452 -94.291 666.532 Q -94.259 666.612 -94.229 666.693 Q -94.199 666.774 -94.171 666.856 Q -94.143 666.937 -94.117 667.019 Q -94.091 667.101 -94.067 667.184 Q -94.043 667.266 -94.021 667.349 Q -93.999 667.432 -93.979 667.516 Q -93.959 667.599 -93.941 667.683 Q -93.923 667.767 -93.908 667.851 Q -93.892 667.935 -93.878 668.020 Q -93.865 668.104 -93.853 668.189 Q -93.842 668.274 -93.832 668.359 Q -93.823 668.444 -93.815 668.529 Q -93.808 668.614 -93.803 668.699 Q -93.797 668.785 -93.794 668.870 Q -93.791 668.956 -93.790 669.041 Z"></path>
    <path id="STROKE_0b3c8f92-0d13-4a64-b328-b7fa4019b841" opacity="1.000" fill="none" stroke="#ffffff" stroke-width="1.600" stroke-opacity="1.000" stroke-linecap="round" stroke-linejoin="round" d="M 33.111 621.327 Q 33.242 621.832 33.289 623.532 Q 33.335 625.232 33.390 626.478 Q 33.444 627.724 33.488 628.596 Q 33.532 629.469 33.613 629.982 Q 33.694 630.496 33.682 630.872 Q 33.669 631.247 33.699 632.566 Q 33.729 633.885 33.760 634.659 Q 33.791 635.432 33.784 635.739 Q 33.777 636.045 33.783 636.128 Q 33.790 636.210 33.770 636.316 Q 33.749 636.422 33.724 636.552 Q 33.699 636.683 33.692 636.703 Q 33.685 636.722 33.700 636.650 Q 33.714 636.578 33.601 637.150 "></path>
    <path id="STROKE_d5a8f374-8cd5-4d57-81ad-92aa19fc399b" opacity="1.000" fill="none" stroke="#ffffff" stroke-width="1.600" stroke-opacity="1.000" stroke-linecap="round" stroke-linejoin="round" d="M 34.039 620.760 Q 34.232 620.387 36.158 618.888 Q 38.084 617.390 39.833 616.473 Q 41.583 615.555 42.897 614.960 Q 44.210 614.364 45.907 613.515 Q 47.603 612.666 49.683 611.031 Q 51.763 609.395 53.792 608.042 Q 55.821 606.688 57.090 606.010 Q 58.360 605.331 60.331 604.380 Q 62.301 603.429 63.757 602.561 Q 65.213 601.693 65.984 601.282 Q 66.755 600.871 68.226 599.872 Q 69.696 598.874 70.529 598.299 Q 71.363 597.725 71.790 597.258 "></path>
    <path id="STROKE_1795f72f-c34b-46f8-a8d8-5c239f1a6b96" opacity="1.000" fill="none" stroke="#ffffff" stroke-width="1.600" stroke-opacity="1.000" stroke-linecap="round" stroke-linejoin="round" d="M 30.766 619.291 Q 30.534 619.306 29.615 618.715 Q 28.696 618.124 27.741 617.095 Q 26.786 616.065 26.121 615.519 Q 25.456 614.973 24.894 614.433 Q 24.332 613.894 23.116 612.417 Q 21.899 610.940 20.512 609.670 Q 19.125 608.400 17.599 607.507 Q 16.072 606.614 14.577 605.685 Q 13.081 604.756 11.269 603.541 Q 9.456 602.325 7.782 601.078 Q 6.107 599.831 5.260 599.266 Q 4.413 598.700 -0.543 594.939 "></path>
    <path id="STROKE_89d5d5cf-2bb3-4b17-bc9d-60152860b5b9" opacity="1.000" fill="none" stroke="#ffffff" stroke-width="1.600" stroke-opacity="1.000" stroke-linecap="round" stroke-linejoin="round" d="M 31.565 619.936 Q 31.920 620.212 32.298 620.503 Q 32.675 620.793 32.693 620.814 Q 32.710 620.835 32.665 620.793 Q 32.619 620.751 32.827 620.941 "></path>
    <path id="STROKE_79b01e55-0101-4659-8c09-3043be141ca2" opacity="1.000" fill="none" stroke="#ffffff" stroke-width="1.600" stroke-opacity="1.000" stroke-linecap="round" stroke-linejoin="round" d="M 29.271 618.621 Q 29.916 619.008 32.054 620.167 "></path>
    <path id="STROKE_4b0f2592-9e0c-47c4-ab5e-408fb10dece0" opacity="1.000" fill="none" stroke="#ffffff" stroke-width="1.600" stroke-opacity="1.000" stroke-linecap="round" stroke-linejoin="round" d="M -0.955 593.779 Q -0.513 593.863 3.287 591.899 Q 7.088 589.936 9.161 588.806 Q 11.234 587.675 12.127 587.099 Q 13.021 586.523 17.214 584.795 Q 21.407 583.067 23.804 582.055 Q 26.200 581.043 27.183 580.496 Q 28.165 579.950 29.335 579.621 Q 30.505 579.292 31.391 578.906 Q 32.276 578.520 33.374 577.540 Q 34.472 576.560 35.752 575.715 Q 35.765 575.728 35.765 575.741 "></path>
    <path id="STROKE_06dcface-431c-4ed2-95ad-f9b7e6511121" opacity="1.000" fill="none" stroke="#ffffff" stroke-width="1.600" stroke-opacity="1.000" stroke-linecap="round" stroke-linejoin="round" d="M 72.022 597.233 Q 71.855 596.948 71.326 596.401 Q 70.797 595.853 69.956 595.072 Q 69.114 594.291 68.696 593.893 Q 68.278 593.496 68.049 593.141 Q 67.819 592.786 66.722 591.643 Q 65.625 590.499 64.744 589.295 Q 63.863 588.090 63.342 587.535 Q 62.821 586.980 61.521 586.181 Q 60.220 585.381 58.837 584.525 Q 57.453 583.669 56.689 583.319 Q 55.925 582.970 55.325 582.718 Q 54.726 582.466 53.518 582.045 Q 52.310 581.624 51.230 581.076 Q 50.150 580.529 49.385 579.907 Q 48.620 579.285 48.512 578.962 Q 48.403 578.640 47.331 577.608 Q 46.259 576.576 45.701 576.023 Q 45.144 575.471 44.898 575.305 Q 44.653 575.140 44.445 574.979 Q 44.237 574.819 44.026 574.696 Q 43.816 574.574 43.605 574.473 Q 43.395 574.372 43.480 574.419 Q 43.565 574.466 42.993 574.220 Q 42.421 573.973 42.014 573.861 Q 41.607 573.749 40.094 572.829 "></path>
    <path id="STROKE_1be6d44b-c01b-4cea-b334-48a74c590893" opacity="1.000" fill="none" stroke="#ffffff" stroke-width="1.600" stroke-opacity="1.000" stroke-linecap="round" stroke-linejoin="round" d="M 39.270 573.782 Q 38.973 574.079 37.664 574.691 Q 36.355 575.304 35.067 576.267 Q 33.779 577.230 31.513 578.266 "></path>
    <circle id="STROKE_a49dddea-9a04-488e-8fb5-6210cbef9a48" opacity="1.000" fill="#ffffff" stroke="#ffffff" stroke-width="0.1" stroke-opacity="1.000" fill-opacity="1.000" cx="38.806" cy="573.267" r="0.800"></circle>
    <path id="STROKE_52583061-8227-42c3-bbf8-ce3376b552f7" opacity="1.000" fill="none" stroke="#ffffff" stroke-width="1.600" stroke-opacity="1.000" stroke-linecap="round" stroke-linejoin="round" d="M -1.239 595.712 Q -1.015 596.369 -1.112 599.781 Q -1.209 603.193 -1.084 604.983 Q -0.959 606.773 -0.870 608.134 Q -0.780 609.494 -0.930 610.813 "></path>
    <path id="STROKE_3373473a-209e-4964-bc52-25290b2b9f46" opacity="1.000" fill="none" stroke="#ffffff" stroke-width="1.600" stroke-opacity="1.000" stroke-linecap="round" stroke-linejoin="round" d="M -2.063 612.823 Q -1.553 612.836 0.522 614.157 Q 2.597 615.478 4.328 616.882 Q 6.058 618.286 6.894 618.969 Q 7.731 619.652 8.141 619.903 Q 8.551 620.154 8.985 620.362 Q 9.418 620.570 10.526 621.112 Q 11.634 621.654 11.900 621.794 Q 12.166 621.934 12.788 622.395 Q 13.410 622.856 14.075 623.367 Q 14.740 623.878 15.362 624.479 Q 15.984 625.080 16.110 625.283 Q 16.236 625.485 16.880 625.792 Q 17.524 626.099 18.108 626.356 Q 18.692 626.612 18.918 626.795 Q 19.144 626.979 20.032 627.596 Q 20.921 628.214 21.713 628.936 Q 22.506 629.659 23.145 630.240 Q 23.784 630.821 24.698 631.263 Q 25.612 631.706 26.497 632.589 Q 27.381 633.471 27.831 633.981 Q 28.280 634.491 28.533 634.784 Q 28.786 635.076 28.930 635.253 Q 29.074 635.430 29.105 635.461 Q 29.135 635.492 29.146 635.504 Q 29.158 635.516 29.130 635.488 Q 29.102 635.459 29.148 635.506 Q 29.195 635.553 29.373 635.731 Q 29.550 635.909 29.537 635.896 Q 29.523 635.884 29.535 635.894 Q 29.547 635.903 29.503 635.872 Q 29.460 635.841 29.572 635.933 Q 29.683 636.025 29.822 636.124 Q 29.962 636.223 29.961 636.223 Q 29.959 636.223 30.337 636.417 Q 30.714 636.610 31.173 636.846 Q 31.632 637.081 32.209 637.485 "></path>
    <path id="STROKE_141eb6ba-40f6-47a5-aefa-8d18f8f0c8cb" opacity="1.000" fill="none" stroke="#ffffff" stroke-width="1.600" stroke-opacity="1.000" stroke-linecap="round" stroke-linejoin="round" d="M 72.692 598.779 Q 72.561 598.990 72.139 600.884 Q 71.718 602.778 71.415 604.890 Q 71.112 607.001 70.875 608.552 Q 70.639 610.103 70.584 610.458 Q 70.529 610.814 70.526 611.959 Q 70.523 613.104 70.527 614.344 "></path>
    <path id="STROKE_d82cdfc0-3611-4c1d-a383-6930530e3ca2" opacity="1.000" fill="none" stroke="#ffffff" stroke-width="1.600" stroke-opacity="1.000" stroke-linecap="round" stroke-linejoin="round" d="M 32.518 638.825 Q 32.725 638.378 34.534 637.621 Q 36.343 636.864 38.218 635.815 Q 40.092 634.766 41.093 634.143 Q 42.094 633.520 42.998 633.093 Q 43.902 632.666 45.180 632.053 Q 46.457 631.439 47.288 630.985 Q 48.119 630.532 48.695 629.981 Q 49.271 629.429 49.701 629.037 Q 50.131 628.644 51.872 627.800 "></path>
    <path id="STROKE_fa073da0-9265-4c88-a5cb-2ed293ab2814" opacity="1.000" fill="none" stroke="#ffffff" stroke-width="1.600" stroke-opacity="1.000" stroke-linecap="round" stroke-linejoin="round" d="M 53.658 626.865 Q 54.109 626.384 54.654 625.921 Q 55.199 625.457 55.697 625.108 Q 56.195 624.759 56.601 624.520 Q 57.008 624.281 57.275 624.141 Q 57.543 624.001 58.042 623.736 Q 58.541 623.471 59.455 622.743 Q 60.369 622.016 61.297 621.234 Q 62.224 620.451 62.587 620.135 Q 62.949 619.818 63.256 619.510 Q 63.563 619.203 64.242 618.816 Q 64.921 618.429 65.954 617.675 Q 66.988 616.920 67.445 616.700 Q 67.902 616.479 68.086 616.393 Q 68.270 616.308 68.536 616.094 Q 68.802 615.880 68.906 615.759 Q 69.011 615.638 68.993 615.665 Q 68.975 615.692 69.106 615.582 Q 69.236 615.473 69.348 615.402 Q 69.460 615.331 69.422 615.353 Q 69.384 615.374 69.398 615.368 Q 69.411 615.363 69.522 615.349 "></path>
    <path id="STROKE_0338c404-15cb-4cfa-8aa0-c4f758bfb9fc" opacity="1.000" fill="none" stroke="#ffffff" stroke-width="1.025" stroke-opacity="1.000" stroke-linecap="round" stroke-linejoin="round" d="M 22.821 631.922 L 23.065 631.426 Q 23.126 631.749 23.107 631.668 Q 23.129 631.799 23.131 631.855 Q 23.133 631.910 23.132 631.977 Q 23.131 632.043 23.132 632.127 Q 23.132 632.210 23.144 632.196 Q 23.156 632.182 23.124 632.257 Q 23.092 632.332 23.150 635.643 Q 23.208 638.954 23.293 640.795 Q 23.378 642.635 23.437 643.487 Q 23.495 644.339 23.525 646.462 Q 23.555 648.585 23.501 651.811 Q 23.447 655.038 23.352 656.786 Q 23.256 658.534 23.217 661.786 Q 23.178 665.038 23.179 666.737 Q 23.179 668.436 23.198 669.309 Q 23.216 670.182 23.222 670.864 Q 23.228 671.545 23.308 673.696 Q 23.387 675.848 23.451 678.443 Q 23.515 681.038 23.519 682.777 Q 23.524 684.517 23.531 685.490 Q 23.537 686.463 23.493 688.228 Q 23.448 689.993 23.429 691.292 "></path>
    <path id="STROKE_ad97b705-c95d-4757-8d8c-fff5f5540a44" opacity="1.000" fill="none" stroke="#ffffff" stroke-width="1.025" stroke-opacity="1.000" stroke-linecap="round" stroke-linejoin="round" d="M 40.214 636.609 Q 40.193 636.380 40.178 636.217 Q 40.163 636.053 40.161 636.031 Q 40.159 636.008 40.157 636.010 Q 40.155 636.011 40.152 635.961 Q 40.148 635.912 40.147 635.781 Q 40.147 635.649 40.148 635.634 Q 40.148 635.619 40.145 635.679 Q 40.141 635.739 40.164 635.292 Q 40.315 635.479 40.194 637.038 Q 40.073 638.597 39.980 640.754 Q 39.887 642.911 39.943 645.908 Q 39.998 648.904 40.052 650.308 Q 40.105 651.711 40.113 652.378 Q 40.122 653.044 40.134 654.041 Q 40.147 655.039 40.279 656.242 Q 40.411 657.445 40.408 658.443 Q 40.404 659.442 40.458 660.353 Q 40.512 661.265 40.531 662.089 Q 40.551 662.914 40.559 663.228 Q 40.567 663.543 40.592 665.961 Q 40.618 668.379 40.681 670.286 Q 40.745 672.192 40.754 673.026 Q 40.763 673.861 40.793 674.344 Q 40.824 674.828 40.862 676.827 Q 40.901 678.826 40.924 680.034 Q 40.947 681.241 40.930 682.371 Q 40.913 683.501 40.985 685.098 Q 41.057 686.695 41.012 688.758 Q 40.967 690.820 40.883 692.177 "></path>
    <path id="STROKE_d9ad41d6-17b4-43b4-bcbe-314507bb6b2c" opacity="1.000" fill="none" stroke="#ffffff" stroke-width="1.025" stroke-opacity="1.000" stroke-linecap="round" stroke-linejoin="round" d="M 41.151 707.017 L 41.314 708.805 "></path>
    <path id="STROKE_3f5352a1-706b-417f-b557-0d1721cd805e" opacity="1.000" fill="none" stroke="#ffffff" stroke-width="1.025" stroke-opacity="1.000" stroke-linecap="round" stroke-linejoin="round" d="M 23.092 706.716 Q 23.085 706.823 23.136 707.636 Q 23.187 708.449 23.191 708.993 Q 23.195 709.537 23.215 709.847 Q 23.235 710.156 23.315 710.489 "></path>
    <path id="STROKE_df780977-9ac7-4642-8ed6-12d751e3e108" opacity="1.000" fill="none" stroke="#ffffff" stroke-width="1.025" stroke-opacity="1.000" stroke-linecap="round" stroke-linejoin="round" d="M 23.648 710.889 Q 23.643 711.149 23.905 711.900 Q 24.167 712.651 24.491 712.994 Q 24.815 713.337 25.252 713.556 Q 25.690 713.775 25.944 713.878 Q 26.198 713.981 26.391 713.995 Q 26.585 714.010 26.764 713.980 Q 26.943 713.949 27.096 713.898 Q 27.249 713.846 27.318 713.813 Q 27.387 713.779 27.443 713.793 Q 27.499 713.806 28.147 713.466 Q 28.794 713.125 29.428 712.591 Q 30.062 712.057 30.680 711.792 Q 31.297 711.527 32.274 710.970 Q 33.252 710.413 34.078 710.003 Q 34.904 709.594 35.297 709.421 Q 35.690 709.249 35.950 709.161 Q 36.209 709.073 36.417 709.024 Q 36.625 708.974 36.677 708.954 Q 36.729 708.934 37.164 708.826 Q 37.598 708.717 37.768 708.711 Q 37.937 708.706 38.384 708.829 Q 38.831 708.953 39.131 709.029 Q 39.432 709.106 39.589 709.182 Q 39.747 709.258 40.046 709.515 Q 40.344 709.773 40.502 709.947 Q 40.659 710.122 40.730 710.231 Q 40.802 710.339 40.809 710.361 Q 40.817 710.383 40.921 710.553 Q 41.024 710.723 41.234 711.086 Q 41.444 711.448 41.416 712.043 Q 41.388 712.638 41.300 712.958 Q 41.212 713.278 41.100 713.414 Q 40.988 713.550 40.885 713.592 Q 40.782 713.634 40.625 713.684 Q 40.469 713.734 40.257 713.801 Q 40.045 713.869 38.878 713.673 Q 37.712 713.477 37.006 713.317 Q 36.301 713.156 35.626 712.915 Q 34.951 712.673 34.584 712.443 Q 34.217 712.213 33.950 711.907 Q 33.684 711.602 33.514 710.889 "></path>
    <path id="STROKE_55acd03a-39b2-4db2-b281-56e164f44db6" opacity="1.000" fill="none" stroke="#ffffff" stroke-width="1.025" stroke-opacity="1.000" stroke-linecap="round" stroke-linejoin="round" d="M 41.697 712.072 Q 41.624 711.925 41.322 710.486 Q 41.019 709.046 40.951 706.988 "></path>
    <path id="STROKE_a0bb2f6a-7928-496a-807c-c8c7d202b24d" opacity="1.000" fill="none" stroke="#ffffff" stroke-width="1.025" stroke-opacity="1.000" stroke-linecap="round" stroke-linejoin="round" d="M 49.998 628.054 Q 50.036 630.803 49.982 634.029 Q 49.928 637.255 49.833 639.004 Q 49.737 640.752 49.698 644.004 Q 49.659 647.256 49.660 648.955 Q 49.660 650.653 49.679 651.526 Q 49.698 652.400 49.703 653.081 Q 49.709 653.762 49.789 655.914 Q 49.869 658.065 49.932 660.661 Q 49.996 663.256 50.000 664.995 Q 50.005 666.734 50.012 667.708 Q 50.018 668.681 49.974 670.446 Q 49.929 672.210 49.913 673.319 Q 49.897 674.428 49.903 676.201 Q 49.910 677.974 49.888 679.445 Q 49.866 680.917 49.839 682.032 Q 49.812 683.147 49.824 684.482 Q 49.836 685.816 49.888 687.431 L 49.904 687.431 Q 49.902 687.511 49.946 687.090 "></path>
    <path id="STROKE_0bdf07c6-aae1-4da9-b756-ee8aae3e00e1" opacity="1.000" fill="none" stroke="#ffffff" stroke-width="1.025" stroke-opacity="1.000" stroke-linecap="round" stroke-linejoin="round" d="M 66.695 618.827 Q 66.675 618.597 66.659 618.434 Q 66.644 618.271 66.642 618.249 Q 66.641 618.226 66.639 618.227 Q 66.637 618.228 66.633 618.179 Q 66.629 618.130 66.628 617.998 Q 66.628 617.866 66.629 617.851 Q 66.630 617.836 66.626 617.896 Q 66.622 617.957 66.645 617.510 Q 66.796 617.697 66.675 619.256 Q 66.554 620.815 66.461 622.972 Q 66.368 625.129 66.424 628.125 Q 66.480 631.122 66.533 632.525 Q 66.586 633.929 66.594 634.595 Q 66.603 635.261 66.616 636.259 Q 66.628 637.257 66.761 638.460 Q 66.893 639.663 66.889 640.661 Q 66.885 641.659 66.939 642.571 Q 66.993 643.482 67.012 644.307 Q 67.032 645.131 67.040 645.446 Q 67.048 645.761 67.073 648.179 Q 67.099 650.597 67.162 652.503 Q 67.226 654.409 67.235 655.244 Q 67.244 656.079 67.274 656.562 Q 67.305 657.045 67.344 659.044 Q 67.383 661.043 67.405 662.251 Q 67.428 663.459 67.411 664.589 Q 67.394 665.719 67.466 667.316 Q 67.538 668.913 67.494 670.975 Q 67.449 673.037 67.383 674.088 Q 67.318 675.139 67.347 675.707 Q 67.376 676.276 67.387 676.656 Q 67.398 677.036 67.392 677.319 Q 67.386 677.601 67.408 678.457 Q 67.431 679.313 67.427 680.262 Q 67.424 681.212 67.436 682.892 Q 67.447 684.573 67.442 685.417 Q 67.436 686.261 67.481 687.163 Q 67.525 688.065 67.795 691.023 "></path>
    <path id="STROKE_87739afe-cae2-46e8-8889-df480798c4b4" opacity="1.000" fill="none" stroke="#ffffff" stroke-width="1.025" stroke-opacity="1.000" stroke-linecap="round" stroke-linejoin="round" d="M 49.663 688.090 Q 49.675 687.880 49.684 687.596 Q 49.693 687.311 49.713 686.890 Q 49.722 686.798 49.644 687.920 Q 49.566 689.041 49.617 689.854 Q 49.668 690.667 49.672 691.211 Q 49.676 691.754 49.696 692.064 Q 49.716 692.374 49.796 692.706 "></path>
    <path id="STROKE_5f3d2b05-29c5-410e-83d4-9a9280e15e19" opacity="1.000" fill="none" stroke="#ffffff" stroke-width="1.025" stroke-opacity="1.000" stroke-linecap="round" stroke-linejoin="round" d="M 50.129 693.106 L 50.127 693.219 "></path>
    <path id="STROKE_f8ddd7f6-149b-4b78-bdb8-4e04a4f7cf56" opacity="1.000" fill="none" stroke="#ffffff" stroke-width="1.025" stroke-opacity="1.000" stroke-linecap="round" stroke-linejoin="round" d="M 59.608 692.701 Q 59.733 692.630 60.559 692.221 Q 61.385 691.811 61.778 691.639 Q 62.172 691.467 62.431 691.379 Q 62.690 691.291 62.898 691.241 Q 63.106 691.192 63.158 691.172 Q 63.210 691.152 63.645 691.043 Q 64.079 690.935 64.249 690.929 Q 64.418 690.923 64.865 691.047 Q 65.312 691.171 65.612 691.247 Q 65.913 691.323 66.070 691.399 Q 66.228 691.475 66.782 691.952 "></path>
    <path id="STROKE_9dd0e0c7-620f-44ce-92e7-2c64d6e66b65" opacity="1.000" fill="none" stroke="#ffffff" stroke-width="1.025" stroke-opacity="1.000" stroke-linecap="round" stroke-linejoin="round" d="M 67.622 691.846 Q 67.500 691.264 67.428 689.090 "></path>
    <path id="STROKE_ed5f3aba-8720-4743-aa90-2dc88aff9edd" opacity="1.000" fill="none" stroke="#ffffff" stroke-width="1.025" stroke-opacity="1.000" stroke-linecap="round" stroke-linejoin="round" d="M 0.700 615.677 Q 0.747 615.326 1.034 614.744 Q 1.095 615.067 1.075 614.985 Q 1.097 615.116 1.099 615.172 Q 1.101 615.228 1.101 615.294 Q 1.100 615.361 1.100 615.444 Q 1.100 615.528 1.112 615.514 Q 1.124 615.500 1.092 615.575 Q 1.060 615.650 1.118 618.961 Q 1.177 622.272 1.262 624.112 Q 1.347 625.953 1.405 626.805 Q 1.464 627.657 1.494 629.780 Q 1.524 631.903 1.470 635.129 Q 1.416 638.355 1.320 640.104 Q 1.225 641.852 1.186 645.104 Q 1.147 648.356 1.147 650.055 Q 1.148 651.753 1.166 652.626 Q 1.185 653.500 1.191 654.181 Q 1.196 654.862 1.276 657.014 Q 1.356 659.165 1.419 661.761 Q 1.483 664.356 1.488 666.095 Q 1.493 667.834 1.499 668.808 Q 1.506 669.781 1.461 671.546 Q 1.417 673.310 1.400 674.419 Q 1.384 675.528 1.391 677.301 Q 1.397 679.074 1.375 680.545 Q 1.353 682.017 1.326 683.132 Q 1.299 684.247 1.311 685.582 Q 1.324 686.916 1.375 688.531 L 1.392 688.531 Q 1.389 688.611 1.434 688.190 "></path>
    <path id="STROKE_2f4305f8-a023-4038-a4c6-82c6498aed34" opacity="1.000" fill="none" stroke="#ffffff" stroke-width="1.025" stroke-opacity="1.000" stroke-linecap="round" stroke-linejoin="round" d="M 17.876 625.759 Q 17.856 626.229 17.911 629.225 Q 17.967 632.222 18.020 633.625 Q 18.074 635.029 18.082 635.695 Q 18.090 636.361 18.103 637.359 Q 18.116 638.357 18.248 639.560 Q 18.380 640.763 18.376 641.761 Q 18.372 642.759 18.426 643.671 Q 18.480 644.582 18.500 645.407 Q 18.519 646.231 18.527 646.546 Q 18.535 646.861 18.561 649.279 Q 18.586 651.697 18.650 653.603 Q 18.713 655.509 18.722 656.344 Q 18.731 657.179 18.762 657.662 Q 18.792 658.145 18.831 660.144 Q 18.870 662.143 18.893 663.351 Q 18.916 664.559 18.898 665.689 Q 18.881 666.819 18.953 668.416 Q 19.026 670.013 18.981 672.075 Q 18.936 674.137 18.870 675.188 Q 18.805 676.239 18.834 676.807 Q 18.864 677.376 18.875 677.756 Q 18.886 678.136 18.880 678.419 Q 18.874 678.701 18.896 679.557 Q 18.918 680.413 18.915 681.362 Q 18.912 682.312 18.923 683.992 Q 18.934 685.673 18.929 686.517 Q 18.924 687.361 18.968 688.263 Q 19.012 689.165 19.280 692.097 "></path>
    <path id="STROKE_07849bd9-441e-4c9b-9afd-c07dada8f292" opacity="1.000" fill="none" stroke="#ffffff" stroke-width="1.025" stroke-opacity="1.000" stroke-linecap="round" stroke-linejoin="round" d="M 1.150 689.190 Q 1.162 688.980 1.172 688.696 Q 1.181 688.411 1.200 687.990 Q 1.209 687.898 1.131 689.020 Q 1.053 690.141 1.105 690.954 Q 1.156 691.767 1.160 692.382 "></path>
    <path id="STROKE_ccde929c-38df-4948-ba84-fb0244663260" opacity="1.000" fill="none" stroke="#ffffff" stroke-width="1.025" stroke-opacity="1.000" stroke-linecap="round" stroke-linejoin="round" d="M 12.297 693.196 Q 12.872 692.911 13.266 692.739 Q 13.659 692.567 13.918 692.479 Q 14.177 692.391 14.385 692.341 Q 14.593 692.292 14.645 692.272 Q 14.698 692.252 15.132 692.143 Q 15.567 692.035 15.736 692.029 Q 15.906 692.023 16.352 692.147 Q 16.799 692.271 17.100 692.347 Q 17.400 692.423 17.558 692.499 Q 17.715 692.575 18.053 692.866 "></path>
    <path id="STROKE_038e7627-1a25-4939-8716-e579e632f83d" opacity="1.000" fill="none" stroke="#ffffff" stroke-width="1.025" stroke-opacity="1.000" stroke-linecap="round" stroke-linejoin="round" d="M 18.983 692.237 L 18.915 690.190 "></path>
  </g>
</svg>