<?xml version="1.0" encoding="UTF-8" standalone="yes"?>
<svg xmlns="http://www.w3.org/2000/svg" xmlns:xlink="http://www.w3.org/1999/xlink" width="558.394pt" height="237.297pt" version="1.1" viewBox="-217.016 683.819 558.394 237.297">
  <!--
	Exported with Concepts: Smarter Sketching
	Version: 2024.09.6 on Android 13
	https://concepts.app/
	-->
  <title>Formatting</title>
  <desc>Drawing exported from Concepts: Smarter Sketching</desc>
  <defs></defs>
  <g id="Pen" opacity="1.000">
    <path id="STROKE_d10733b5-beb9-4de8-85c9-2271909212a2" opacity="1.000" fill="none" stroke="#000000" stroke-width="1.980" stroke-opacity="1.000" stroke-linecap="round" stroke-linejoin="round" d="M -188.951 695.570 Q -188.275 696.507 -188.493 703.899 Q -188.712 711.291 -188.612 716.511 Q -188.512 721.731 -188.372 727.243 Q -188.233 732.756 -188.603 738.610 Q -188.972 744.464 -189.056 747.330 Q -189.139 750.195 -189.358 753.543 Q -189.577 756.891 -189.745 758.668 Q -189.912 760.446 -190.475 766.022 Q -191.038 771.598 -191.204 774.776 Q -191.371 777.955 -191.279 781.870 Q -191.186 785.785 -191.425 790.842 Q -191.663 795.899 -191.691 798.543 Q -191.719 801.187 -191.835 808.438 Q -191.952 815.689 -192.066 819.014 Q -192.181 822.339 -192.145 825.566 Q -192.110 828.794 -192.116 831.150 Q -192.123 833.505 -192.367 841.010 Q -192.611 848.514 -192.596 856.707 Q -192.580 864.900 -192.659 868.538 Q -192.738 872.176 -192.511 874.149 Q -192.283 876.122 -192.223 878.914 Q -192.163 881.705 -192.396 883.429 Q -192.628 885.153 -192.355 886.623 Q -192.081 888.094 -191.517 891.527 L -191.451 891.527 Q -191.384 891.360 -191.351 891.227 "></path>
    <path id="STROKE_d2e1967a-c308-45f8-8196-003a326da832" opacity="1.000" fill="none" stroke="#000000" stroke-width="1.980" stroke-opacity="1.000" stroke-linecap="round" stroke-linejoin="round" d="M -187.418 692.771 Q -186.528 691.836 -183.170 691.654 Q -179.811 691.471 -176.620 691.600 Q -173.429 691.729 -171.209 691.525 Q -168.989 691.321 -165.239 691.741 Q -161.489 692.162 -159.438 692.474 Q -157.387 692.787 -146.931 693.768 Q -136.476 694.749 -130.726 695.174 Q -124.976 695.598 -121.730 695.425 Q -118.483 695.251 -113.776 695.227 Q -109.068 695.202 -103.781 695.077 Q -98.494 694.951 -95.193 695.038 Q -91.892 695.125 -82.547 695.159 Q -73.201 695.193 -64.374 695.129 Q -55.547 695.064 -48.747 695.253 Q -41.948 695.441 -37.871 695.627 Q -33.793 695.812 -30.368 695.511 Q -26.943 695.210 -18.567 694.593 Q -10.191 693.977 -5.946 693.768 Q -1.701 693.559 0.586 693.530 Q 2.873 693.501 7.664 694.125 Q 12.455 694.748 15.045 695.141 Q 17.635 695.534 19.091 695.528 Q 20.546 695.522 21.907 695.571 Q 23.267 695.620 28.063 695.623 Q 32.858 695.626 35.808 695.623 Q 38.757 695.620 41.462 694.897 Q 44.168 694.174 51.362 696.237 "></path>
    <path id="STROKE_c5410d94-0b27-4f00-8310-cc3355f24bcf" opacity="1.000" fill="none" stroke="#000000" stroke-width="1.980" stroke-opacity="1.000" stroke-linecap="round" stroke-linejoin="round" d="M 55.895 699.637 Q 56.645 700.696 55.652 711.511 Q 54.659 722.327 54.213 731.148 Q 53.767 739.970 53.540 744.100 Q 53.314 748.231 52.985 752.579 Q 52.656 756.927 51.957 761.509 Q 51.258 766.091 51.040 776.685 Q 50.822 787.280 51.026 792.539 Q 51.230 797.799 50.788 805.602 Q 50.346 813.405 50.403 817.940 Q 50.459 822.474 50.365 828.147 Q 50.271 833.819 50.358 837.378 Q 50.445 840.937 50.528 842.632 Q 50.610 844.327 50.798 846.178 Q 50.986 848.029 51.309 851.371 Q 51.632 854.714 52.078 857.934 Q 52.524 861.155 53.636 865.932 Q 54.749 870.709 55.362 875.294 "></path>
    <path id="STROKE_bc5b7296-2cb7-4327-8567-49e4d0d0f0fc" opacity="1.000" fill="none" stroke="#000000" stroke-width="1.980" stroke-opacity="1.000" stroke-linecap="round" stroke-linejoin="round" d="M -209.616 890.294 Q -208.526 890.172 -193.592 890.479 Q -178.657 890.786 -169.466 891.152 Q -160.275 891.519 -154.682 891.589 Q -149.090 891.658 -145.398 891.425 Q -141.706 891.191 -133.316 890.793 Q -124.925 890.396 -120.266 890.469 Q -115.606 890.541 -112.280 890.643 Q -108.955 890.746 -101.431 891.885 Q -93.908 893.024 -87.392 894.825 Q -80.876 896.627 -77.536 897.517 Q -74.195 898.408 -72.471 898.547 Q -70.747 898.685 -69.278 898.567 Q -67.809 898.448 -65.841 894.753 Q -63.872 891.058 -62.926 886.588 Q -61.981 882.118 -60.828 878.328 Q -59.990 877.717 -59.326 883.303 Q -58.662 888.889 -58.445 894.429 Q -58.227 899.969 -57.811 904.469 Q -57.396 908.968 -55.729 913.459 Q -55.418 913.206 -55.308 910.056 Q -55.198 906.906 -54.251 904.259 Q -53.304 901.612 -52.634 900.490 Q -51.964 899.368 -50.150 898.399 Q -48.335 897.429 -41.375 897.578 Q -34.415 897.728 -26.795 897.206 Q -19.175 896.683 -14.965 895.714 Q -10.754 894.744 4.647 895.286 Q 20.048 895.828 27.909 895.999 Q 35.770 896.169 40.394 896.650 Q 45.017 897.131 47.727 897.676 Q 50.437 898.221 55.878 899.633 Q 61.320 901.044 71.627 900.293 "></path>
    <path id="STROKE_baab9e06-04ef-4f63-b777-9091f985dbc1" opacity="1.000" fill="none" stroke="#000000" stroke-width="1.980" stroke-opacity="1.000" stroke-linecap="round" stroke-linejoin="round" d="M 53.829 895.160 Q 55.325 894.378 55.575 886.620 Q 55.825 878.861 54.962 868.495 "></path>
    <circle id="STROKE_8fdd72d1-8962-4d94-9828-473c9e792791" opacity="1.000" fill="#000000" stroke="#000000" stroke-width="0.1" stroke-opacity="1.000" fill-opacity="1.000" cx="-179.352" cy="717.769" r="0.990"></circle>
    <circle id="STROKE_fe09da09-aeac-4d4f-a1af-cb97c2bfac79" opacity="1.000" fill="#000000" stroke="#000000" stroke-width="0.1" stroke-opacity="1.000" fill-opacity="1.000" cx="-182.151" cy="717.903" r="0.990"></circle>
    <path id="STROKE_a926e540-30cf-4963-b2be-f7145f0b18d3" opacity="1.000" fill="none" stroke="#000000" stroke-width="1.980" stroke-opacity="1.000" stroke-linecap="round" stroke-linejoin="round" d="M -185.085 716.236 Q -184.353 716.469 -183.460 716.995 Q -182.567 717.522 -178.125 717.289 Q -173.683 717.056 -170.068 716.792 Q -166.453 716.529 -163.900 716.700 Q -161.346 716.872 -159.838 717.089 Q -158.330 717.305 -154.511 716.680 Q -150.692 716.054 -145.824 716.008 Q -140.957 715.962 -138.002 715.580 Q -135.047 715.198 -133.778 714.934 Q -132.509 714.670 -130.291 714.656 Q -128.072 714.641 -127.385 714.536 Q -126.698 714.430 -123.230 714.285 Q -119.762 714.140 -113.613 714.836 Q -107.465 715.533 -104.337 715.943 Q -101.208 716.354 -99.615 716.532 Q -98.021 716.711 -96.404 716.810 Q -94.786 716.909 -92.020 717.349 Q -89.254 717.789 -80.035 718.143 Q -70.817 718.498 -65.645 718.618 Q -60.473 718.739 -58.195 718.458 Q -55.917 718.177 -52.161 718.096 Q -48.406 718.016 -43.922 717.691 Q -39.438 717.367 -32.239 717.156 Q -25.039 716.946 -21.467 716.786 Q -17.895 716.625 -14.463 717.095 Q -11.031 717.564 -2.558 717.593 Q 5.916 717.622 10.231 717.597 Q 14.546 717.572 16.988 717.638 Q 19.431 717.704 21.494 717.848 Q 23.558 717.991 25.725 718.035 Q 27.891 718.079 29.288 718.126 Q 30.684 718.173 34.981 718.444 Q 39.278 718.716 41.465 718.793 Q 43.652 718.869 44.780 719.115 Q 45.908 719.360 46.239 719.377 Q 46.570 719.394 47.112 719.472 Q 47.654 719.549 47.771 719.565 Q 47.889 719.581 48.192 719.625 Q 48.496 719.668 48.772 719.707 Q 49.048 719.746 49.103 719.729 Q 49.158 719.712 48.961 719.831 Q 48.764 719.950 51.050 719.983 Q 53.336 720.015 55.762 719.703 "></path>
    <path id="STROKE_6e745aa9-20cc-402a-a1d4-3bbbf80ffe90" opacity="1.000" fill="none" stroke="#000000" stroke-width="1.980" stroke-opacity="1.000" stroke-linecap="round" stroke-linejoin="round" d="M -129.023 697.970 Q -130.324 699.274 -129.923 705.296 Q -129.522 711.318 -129.139 714.916 Q -128.756 718.513 -128.879 723.582 Q -129.001 728.650 -129.312 734.506 Q -129.623 740.362 -130.041 744.913 Q -130.459 749.464 -131.485 754.831 Q -132.510 760.198 -132.208 766.375 Q -131.906 772.552 -131.070 776.316 Q -130.233 780.081 -131.574 787.189 Q -132.914 794.297 -133.962 802.403 Q -135.009 810.508 -135.483 814.489 Q -135.956 818.469 -136.139 820.826 Q -136.321 823.182 -135.919 826.924 Q -135.517 830.666 -136.026 837.631 Q -136.536 844.596 -136.903 848.531 Q -137.271 852.466 -136.852 856.083 Q -136.433 859.701 -136.650 864.466 Q -136.866 869.231 -137.399 873.017 Q -137.932 876.803 -134.222 883.827 "></path>
    <path id="STROKE_1cf54d0b-1e72-4628-bbab-c06dcf6eeabd" opacity="1.000" fill="none" stroke="#000000" stroke-width="1.980" stroke-opacity="1.000" stroke-linecap="round" stroke-linejoin="round" d="M -68.761 693.371 Q -68.323 694.594 -68.609 708.189 Q -68.894 721.785 -69.092 728.845 Q -69.291 735.906 -69.536 739.774 Q -69.781 743.643 -70.891 753.365 Q -72.002 763.087 -72.489 768.965 Q -72.977 774.843 -72.973 777.837 Q -72.970 780.831 -72.710 782.525 Q -72.450 784.219 -72.355 792.222 Q -72.260 800.225 -72.228 804.931 Q -72.196 809.638 -71.630 813.694 Q -71.063 817.750 -70.897 821.431 Q -70.731 825.113 -70.389 833.526 Q -70.046 841.940 -69.730 846.105 Q -69.413 850.269 -69.359 852.999 Q -69.305 855.729 -69.317 858.984 Q -69.329 862.238 -69.777 866.162 Q -70.225 870.087 -70.021 873.477 Q -69.818 876.867 -69.583 878.430 Q -69.348 879.992 -68.789 881.111 Q -68.230 882.230 -67.561 891.027 "></path>
    <path id="STROKE_8c66a3b3-190b-4b06-91f7-73c15735176f" opacity="1.000" fill="none" stroke="#000000" stroke-width="1.980" stroke-opacity="1.000" stroke-linecap="round" stroke-linejoin="round" d="M -10.299 695.770 Q -10.110 696.911 -9.933 705.095 Q -9.757 713.280 -9.603 720.264 Q -9.449 727.248 -9.729 731.738 Q -10.008 736.228 -10.267 740.613 Q -10.526 744.999 -10.623 747.575 Q -10.719 750.152 -11.132 753.780 Q -11.544 757.409 -11.542 764.643 Q -11.541 771.878 -11.731 776.114 Q -11.921 780.350 -12.259 781.950 Q -12.597 783.549 -13.117 789.735 Q -13.637 795.921 -14.513 806.783 Q -15.388 817.645 -15.743 826.387 Q -16.097 835.130 -16.099 839.227 Q -16.101 843.325 -16.042 844.978 Q -15.983 846.631 -15.921 847.605 Q -15.859 848.579 -15.903 849.386 Q -15.946 850.192 -15.444 854.639 Q -14.941 859.085 -14.774 861.362 Q -14.607 863.640 -14.253 865.988 Q -13.898 868.337 -13.698 872.631 Q -13.498 876.925 -12.954 880.089 Q -12.410 883.254 -11.993 884.670 Q -11.576 886.086 -11.353 886.784 Q -11.130 887.482 -11.153 888.649 Q -11.176 889.816 -11.169 890.498 Q -11.162 891.180 -11.165 891.156 Q -11.168 891.133 -11.156 890.937 Q -11.143 890.741 -11.232 892.493 "></path>
    <path id="STROKE_4a3687ac-279f-476d-9792-161f74b24dd8" opacity="1.000" fill="none" stroke="#000000" stroke-width="1.980" stroke-opacity="1.000" stroke-linecap="round" stroke-linejoin="round" d="M -171.819 704.170 Q -173.471 705.366 -175.419 707.570 Q -174.942 707.321 -173.717 706.213 Q -172.492 705.105 -171.396 704.427 Q -170.299 703.750 -170.014 703.758 Q -169.729 703.766 -168.969 704.312 Q -168.210 704.857 -167.535 705.524 Q -166.861 706.191 -166.866 706.177 Q -166.872 706.162 -166.847 706.198 Q -166.821 706.234 -166.394 706.734 Q -165.966 707.235 -165.886 707.137 Q -164.689 707.374 -164.886 707.303 Q -163.381 707.357 -163.486 707.237 Q -163.147 707.221 -160.975 706.302 Q -158.804 705.384 -157.508 704.714 Q -156.213 704.045 -155.520 704.085 Q -154.826 704.126 -154.459 704.419 Q -154.092 704.712 -153.908 704.806 Q -153.725 704.901 -153.514 705.029 Q -153.304 705.157 -153.385 705.094 Q -153.467 705.031 -152.868 705.385 Q -152.270 705.738 -150.820 705.112 Q -149.371 704.485 -148.504 704.259 Q -147.638 704.033 -146.796 704.938 Q -145.955 705.843 -141.822 707.436 "></path>
    <path id="STROKE_fe7ab864-e355-4a81-8596-19658727c67c" opacity="1.000" fill="none" stroke="#000000" stroke-width="1.980" stroke-opacity="1.000" stroke-linecap="round" stroke-linejoin="round" d="M -114.290 706.570 Q -113.021 706.162 -111.106 705.235 Q -109.192 704.308 -107.697 703.767 Q -106.202 703.227 -104.824 704.095 Q -103.445 704.964 -103.078 705.573 Q -102.710 706.182 -102.364 706.994 Q -102.019 707.807 -101.435 708.110 Q -100.852 708.413 -99.819 708.505 Q -98.786 708.598 -97.154 708.292 Q -95.522 707.986 -94.417 707.835 Q -93.312 707.685 -92.800 707.729 Q -92.289 707.772 -91.155 708.666 Q -90.022 709.559 -89.103 709.951 Q -88.185 710.342 -87.885 710.390 Q -87.585 710.437 -87.365 710.447 Q -87.146 710.456 -86.561 710.396 Q -85.975 710.335 -85.646 710.322 Q -85.317 710.308 -84.740 710.285 Q -84.164 710.262 -82.426 710.836 "></path>
    <path id="STROKE_7cea06d3-2885-4c36-ab7a-cbae12763e39" opacity="1.000" fill="none" stroke="#000000" stroke-width="1.980" stroke-opacity="1.000" stroke-linecap="round" stroke-linejoin="round" d="M -51.296 706.303 Q -51.232 706.267 -48.904 705.502 Q -46.576 704.737 -44.420 704.383 Q -42.264 704.029 -41.388 704.324 Q -40.511 704.619 -39.710 705.354 Q -38.909 706.089 -37.108 706.319 Q -35.307 706.548 -34.387 706.324 Q -33.467 706.101 -33.197 706.086 Q -32.927 706.071 -33.153 706.051 Q -33.378 706.030 -31.874 706.117 Q -30.371 706.204 -28.766 705.867 Q -27.161 705.530 -26.098 705.037 Q -26.287 706.867 -26.277 706.581 Q -26.267 706.294 -26.393 706.559 Q -26.518 706.823 -26.497 706.761 Q -26.476 706.699 -26.801 706.962 Q -27.127 707.225 -27.124 707.160 Q -27.120 707.096 -27.503 707.085 Q -27.885 707.074 -32.450 706.442 Q -37.015 705.811 -40.245 705.446 Q -43.474 705.081 -48.629 706.370 Q -48.435 706.721 -46.463 706.760 Q -44.490 706.800 -41.964 707.616 Q -39.437 708.432 -34.697 709.636 "></path>
    <path id="STROKE_c3077e0f-8f99-4df4-9ce8-dcba383dd166" opacity="1.000" fill="none" stroke="#000000" stroke-width="1.980" stroke-opacity="1.000" stroke-linecap="round" stroke-linejoin="round" d="M -0.767 707.370 Q 0.182 706.886 1.885 705.871 Q 3.588 704.856 4.593 704.397 Q 5.598 703.938 6.050 703.941 Q 6.502 703.943 7.300 704.307 Q 8.097 704.670 8.564 704.894 Q 9.031 705.118 8.927 705.043 Q 8.823 704.967 10.521 705.973 Q 12.219 706.978 14.425 707.031 Q 16.632 707.084 17.800 706.885 Q 18.968 706.686 22.379 705.589 Q 25.789 704.492 28.055 703.525 Q 30.321 702.558 32.785 703.559 Q 35.248 704.561 36.967 705.246 Q 38.686 705.931 40.563 705.770 "></path>
    <path id="STROKE_62cd7392-de02-4261-beec-a74bdeb62042" opacity="1.000" fill="none" stroke="#000000" stroke-width="1.980" stroke-opacity="1.000" stroke-linecap="round" stroke-linejoin="round" d="M 32.831 704.303 Q 33.511 705.428 33.779 706.434 Q 34.046 707.441 36.743 707.777 Q 39.440 708.114 44.563 710.636 "></path>
    <path id="STROKE_829e970e-5dd1-4882-ab97-e25aad163044" opacity="1.000" fill="none" stroke="#000000" stroke-width="1.980" stroke-opacity="1.000" stroke-linecap="round" stroke-linejoin="round" d="M -171.686 731.369 Q -170.796 731.651 -163.270 731.668 Q -155.744 731.686 -140.622 729.235 "></path>
    <path id="STROKE_02507a55-86c2-466e-937d-448773ac91bc" opacity="1.000" fill="none" stroke="#000000" stroke-width="1.980" stroke-opacity="1.000" stroke-linecap="round" stroke-linejoin="round" d="M -175.352 744.968 Q -174.413 745.100 -150.021 744.301 "></path>
    <path id="STROKE_8922cda0-3f36-414e-927d-7656a5f069b3" opacity="1.000" fill="none" stroke="#000000" stroke-width="1.980" stroke-opacity="1.000" stroke-linecap="round" stroke-linejoin="round" d="M -174.885 761.367 Q -173.218 760.888 -166.459 760.916 Q -159.699 760.945 -147.688 760.834 "></path>
    <path id="STROKE_cd3526ee-3cc6-47e0-b507-819964e8b2cc" opacity="1.000" fill="none" stroke="#000000" stroke-width="1.980" stroke-opacity="1.000" stroke-linecap="round" stroke-linejoin="round" d="M -174.085 779.433 Q -172.240 779.048 -153.754 779.499 "></path>
    <path id="STROKE_070f9fb3-1c3c-42c5-ac41-a0fb79290ac9" opacity="1.000" fill="none" stroke="#000000" stroke-width="1.980" stroke-opacity="1.000" stroke-linecap="round" stroke-linejoin="round" d="M -176.819 795.565 Q -176.183 794.282 -166.438 794.002 Q -156.692 793.723 -144.288 795.232 "></path>
    <path id="STROKE_499a5ff4-7917-4b28-bcaa-e63271773086" opacity="1.000" fill="none" stroke="#000000" stroke-width="1.980" stroke-opacity="1.000" stroke-linecap="round" stroke-linejoin="round" d="M -177.552 811.431 Q -176.388 810.107 -153.287 808.765 "></path>
    <path id="STROKE_ef90f7bb-05a9-47d0-8ee6-58e1e070cca8" opacity="1.000" fill="none" stroke="#000000" stroke-width="1.980" stroke-opacity="1.000" stroke-linecap="round" stroke-linejoin="round" d="M -179.218 826.497 Q -178.172 826.056 -171.871 824.592 Q -165.570 823.127 -160.903 822.442 Q -156.237 821.757 -150.687 823.164 "></path>
    <path id="STROKE_7180ea28-1e7b-47c9-97da-ad880c730e6f" opacity="1.000" fill="none" stroke="#000000" stroke-width="1.980" stroke-opacity="1.000" stroke-linecap="round" stroke-linejoin="round" d="M -178.618 835.563 Q -175.841 835.086 -170.531 834.410 Q -165.222 833.734 -158.020 834.963 "></path>
    <path id="STROKE_a3be9426-7855-4225-a4f5-9b18d39fcaec" opacity="1.000" fill="none" stroke="#000000" stroke-width="1.980" stroke-opacity="1.000" stroke-linecap="round" stroke-linejoin="round" d="M -182.151 850.362 Q -181.393 850.196 -175.550 850.008 Q -169.707 849.821 -164.503 848.830 Q -159.299 847.838 -150.287 847.096 "></path>
    <path id="STROKE_0beb9ec9-e1b2-4553-8ac0-6cc3d1ce9f7b" opacity="1.000" fill="none" stroke="#000000" stroke-width="1.980" stroke-opacity="1.000" stroke-linecap="round" stroke-linejoin="round" d="M -182.018 864.162 Q -181.187 864.030 -175.291 862.656 Q -169.395 861.281 -164.128 861.115 Q -158.861 860.948 -154.354 862.428 "></path>
    <path id="STROKE_3591dedd-f0f4-4a50-a39b-8b3d1bd248f5" opacity="1.000" fill="none" stroke="#000000" stroke-width="1.980" stroke-opacity="1.000" stroke-linecap="round" stroke-linejoin="round" d="M -177.885 875.361 Q -175.690 875.629 -152.954 877.428 "></path>
    <path id="STROKE_dd2300ba-e461-4aa2-b1c5-d6b0c438a8c3" opacity="1.000" fill="none" stroke="#000000" stroke-width="1.980" stroke-opacity="1.000" stroke-linecap="round" stroke-linejoin="round" d="M -109.891 730.702 Q -109.001 730.984 -101.475 731.002 Q -93.949 731.019 -78.827 728.569 "></path>
    <path id="STROKE_c2032516-2c14-4d50-ad00-f6e8645720f5" opacity="1.000" fill="none" stroke="#000000" stroke-width="1.980" stroke-opacity="1.000" stroke-linecap="round" stroke-linejoin="round" d="M -113.557 744.301 Q -112.618 744.433 -88.226 743.635 "></path>
    <path id="STROKE_97baa0be-a612-4070-99e1-c3b853ec557c" opacity="1.000" fill="none" stroke="#000000" stroke-width="1.980" stroke-opacity="1.000" stroke-linecap="round" stroke-linejoin="round" d="M -113.091 760.700 Q -111.423 760.222 -104.664 760.250 Q -97.904 760.278 -85.893 760.167 "></path>
    <path id="STROKE_222e9c31-da36-454e-8c58-abe9d9da9ef0" opacity="1.000" fill="none" stroke="#000000" stroke-width="1.980" stroke-opacity="1.000" stroke-linecap="round" stroke-linejoin="round" d="M -112.291 778.766 Q -110.445 778.382 -91.959 778.833 "></path>
    <path id="STROKE_565aceeb-62f6-43b6-a30b-579c1d8edcf7" opacity="1.000" fill="none" stroke="#000000" stroke-width="1.980" stroke-opacity="1.000" stroke-linecap="round" stroke-linejoin="round" d="M -115.024 794.899 Q -114.388 793.615 -104.643 793.336 Q -94.897 793.056 -82.493 794.565 "></path>
    <path id="STROKE_cb967fca-5b21-4275-96f5-8f99f4bbcfe3" opacity="1.000" fill="none" stroke="#000000" stroke-width="1.980" stroke-opacity="1.000" stroke-linecap="round" stroke-linejoin="round" d="M -115.757 810.764 Q -114.593 809.440 -91.492 808.098 "></path>
    <path id="STROKE_4d911da0-4fd7-47f2-b1f7-01ead8e18099" opacity="1.000" fill="none" stroke="#000000" stroke-width="1.980" stroke-opacity="1.000" stroke-linecap="round" stroke-linejoin="round" d="M -117.424 825.830 Q -116.378 825.390 -110.077 823.925 Q -103.775 822.461 -99.109 821.775 Q -94.442 821.090 -88.893 822.497 "></path>
    <path id="STROKE_132b6dc5-d130-4402-a9f7-4bac8253dbfd" opacity="1.000" fill="none" stroke="#000000" stroke-width="1.980" stroke-opacity="1.000" stroke-linecap="round" stroke-linejoin="round" d="M -116.824 834.897 Q -114.046 834.419 -108.736 833.743 Q -103.427 833.067 -96.225 834.297 "></path>
    <path id="STROKE_b7d15848-4cf3-479d-81c6-d21ea1dff03f" opacity="1.000" fill="none" stroke="#000000" stroke-width="1.980" stroke-opacity="1.000" stroke-linecap="round" stroke-linejoin="round" d="M -120.357 849.696 Q -119.598 849.529 -113.755 849.342 Q -107.912 849.154 -102.708 848.163 Q -97.504 847.172 -88.493 846.429 "></path>
    <path id="STROKE_13e59e96-77ec-48b0-bb61-9bc89392e61a" opacity="1.000" fill="none" stroke="#000000" stroke-width="1.980" stroke-opacity="1.000" stroke-linecap="round" stroke-linejoin="round" d="M -120.223 863.495 Q -119.393 863.363 -113.496 861.989 Q -107.600 860.615 -102.333 860.448 Q -97.066 860.282 -92.559 861.762 "></path>
    <path id="STROKE_4b39f4ea-b2c2-4246-ba28-d49570227988" opacity="1.000" fill="none" stroke="#000000" stroke-width="1.980" stroke-opacity="1.000" stroke-linecap="round" stroke-linejoin="round" d="M -116.090 874.694 Q -113.896 874.962 -91.159 876.761 "></path>
    <path id="STROKE_8cb5c0eb-d827-478f-9866-f8320c612eee" opacity="1.000" fill="none" stroke="#000000" stroke-width="1.980" stroke-opacity="1.000" stroke-linecap="round" stroke-linejoin="round" d="M -52.429 731.369 Q -51.539 731.651 -44.013 731.668 Q -36.487 731.686 -21.365 729.235 "></path>
    <path id="STROKE_7f0cfa3b-d6d0-4b52-9a51-f126531b0bb7" opacity="1.000" fill="none" stroke="#000000" stroke-width="1.980" stroke-opacity="1.000" stroke-linecap="round" stroke-linejoin="round" d="M -56.095 744.968 Q -55.157 745.100 -30.764 744.301 "></path>
    <path id="STROKE_ced9ccf0-1e45-4c94-ac24-bae9459eca3f" opacity="1.000" fill="none" stroke="#000000" stroke-width="1.980" stroke-opacity="1.000" stroke-linecap="round" stroke-linejoin="round" d="M -55.629 761.367 Q -53.961 760.888 -47.202 760.916 Q -40.442 760.945 -28.431 760.834 "></path>
    <path id="STROKE_b7a336a1-551b-4961-b53f-ec5c0e051c82" opacity="1.000" fill="none" stroke="#000000" stroke-width="1.980" stroke-opacity="1.000" stroke-linecap="round" stroke-linejoin="round" d="M -54.829 779.433 Q -52.983 779.049 -34.497 779.500 "></path>
    <path id="STROKE_a6f302fa-ed43-43d7-8990-20456625395f" opacity="1.000" fill="none" stroke="#000000" stroke-width="1.980" stroke-opacity="1.000" stroke-linecap="round" stroke-linejoin="round" d="M -57.562 795.565 Q -56.927 794.282 -47.181 794.002 Q -37.435 793.723 -25.031 795.232 "></path>
    <path id="STROKE_c7682cfc-9d23-498e-92cb-b061da740b07" opacity="1.000" fill="none" stroke="#000000" stroke-width="1.980" stroke-opacity="1.000" stroke-linecap="round" stroke-linejoin="round" d="M -58.295 811.431 Q -57.132 810.107 -34.031 808.765 "></path>
    <path id="STROKE_69c7fea3-0869-4094-829e-e59345abb761" opacity="1.000" fill="none" stroke="#000000" stroke-width="1.980" stroke-opacity="1.000" stroke-linecap="round" stroke-linejoin="round" d="M -59.962 826.497 Q -58.916 826.057 -52.615 824.592 Q -46.314 823.128 -41.647 822.442 Q -36.980 821.757 -31.431 823.164 "></path>
    <path id="STROKE_180e19c1-8785-4e23-b531-69bdac604024" opacity="1.000" fill="none" stroke="#000000" stroke-width="1.980" stroke-opacity="1.000" stroke-linecap="round" stroke-linejoin="round" d="M -59.362 835.563 Q -56.584 835.086 -51.275 834.410 Q -45.965 833.734 -38.763 834.963 "></path>
    <path id="STROKE_0c7e2ee5-53ab-4310-ba00-ee81b1a2e6a0" opacity="1.000" fill="none" stroke="#000000" stroke-width="1.980" stroke-opacity="1.000" stroke-linecap="round" stroke-linejoin="round" d="M -62.895 850.362 Q -62.136 850.196 -56.293 850.008 Q -50.450 849.821 -45.246 848.830 Q -40.043 847.838 -31.031 847.096 "></path>
    <path id="STROKE_62c6c354-17e6-49b0-8170-1ac2f2b0c8e5" opacity="1.000" fill="none" stroke="#000000" stroke-width="1.980" stroke-opacity="1.000" stroke-linecap="round" stroke-linejoin="round" d="M -62.761 864.162 Q -61.931 864.030 -56.035 862.656 Q -50.138 861.281 -44.871 861.115 Q -39.604 860.948 -35.097 862.429 "></path>
    <path id="STROKE_2c03d8c7-1552-4f3f-8a73-bf4e8391de26" opacity="1.000" fill="none" stroke="#000000" stroke-width="1.980" stroke-opacity="1.000" stroke-linecap="round" stroke-linejoin="round" d="M -58.628 875.361 Q -56.434 875.629 -33.697 877.428 "></path>
    <path id="STROKE_e79ac527-6e0a-45a8-a741-cd0d3f835b41" opacity="1.000" fill="none" stroke="#000000" stroke-width="1.980" stroke-opacity="1.000" stroke-linecap="round" stroke-linejoin="round" d="M 10.032 732.569 Q 10.922 732.851 18.448 732.868 Q 25.975 732.886 41.097 730.435 "></path>
    <path id="STROKE_b198db4f-1dab-478b-a7dc-362033b0d750" opacity="1.000" fill="none" stroke="#000000" stroke-width="1.980" stroke-opacity="1.000" stroke-linecap="round" stroke-linejoin="round" d="M 6.366 746.168 Q 7.305 746.300 31.697 745.501 "></path>
    <path id="STROKE_c690a272-6f54-4b4f-a343-0bd0453d60bf" opacity="1.000" fill="none" stroke="#000000" stroke-width="1.980" stroke-opacity="1.000" stroke-linecap="round" stroke-linejoin="round" d="M 6.833 762.567 Q 8.500 762.088 15.260 762.116 Q 22.019 762.145 34.030 762.034 "></path>
    <path id="STROKE_65619ff1-f917-4c9d-a3aa-cb7323077559" opacity="1.000" fill="none" stroke="#000000" stroke-width="1.980" stroke-opacity="1.000" stroke-linecap="round" stroke-linejoin="round" d="M 7.633 780.633 Q 9.478 780.248 27.964 780.699 "></path>
    <path id="STROKE_d86132a4-75cc-4859-b03a-7495a3fe6057" opacity="1.000" fill="none" stroke="#000000" stroke-width="1.980" stroke-opacity="1.000" stroke-linecap="round" stroke-linejoin="round" d="M 4.900 796.765 Q 5.535 795.482 15.280 795.202 Q 25.026 794.923 37.430 796.432 "></path>
    <path id="STROKE_388c20dd-5061-45a1-8be0-2a8a40c77a59" opacity="1.000" fill="none" stroke="#000000" stroke-width="1.980" stroke-opacity="1.000" stroke-linecap="round" stroke-linejoin="round" d="M 4.166 812.631 Q 5.330 811.307 28.431 809.965 "></path>
    <path id="STROKE_550a2d83-e0f9-4b3b-95b1-438972895ac9" opacity="1.000" fill="none" stroke="#000000" stroke-width="1.980" stroke-opacity="1.000" stroke-linecap="round" stroke-linejoin="round" d="M 2.500 827.697 Q 3.546 827.256 9.847 825.792 Q 16.148 824.327 20.815 823.642 Q 25.482 822.957 31.031 824.364 "></path>
    <path id="STROKE_a78fd3e8-027b-4364-817f-3644be1f529f" opacity="1.000" fill="none" stroke="#000000" stroke-width="1.980" stroke-opacity="1.000" stroke-linecap="round" stroke-linejoin="round" d="M 3.100 836.763 Q 5.877 836.286 11.187 835.610 Q 16.496 834.934 23.698 836.163 "></path>
    <path id="STROKE_746b93b6-ee94-4c74-8320-108bb626fbc0" opacity="1.000" fill="none" stroke="#000000" stroke-width="1.980" stroke-opacity="1.000" stroke-linecap="round" stroke-linejoin="round" d="M -0.433 851.562 Q 0.325 851.396 6.168 851.208 Q 12.011 851.021 17.215 850.030 Q 22.419 849.038 31.431 848.296 "></path>
    <path id="STROKE_230caab7-6b84-4bdb-8bf6-4e49f5de3a87" opacity="1.000" fill="none" stroke="#000000" stroke-width="1.980" stroke-opacity="1.000" stroke-linecap="round" stroke-linejoin="round" d="M -0.300 865.362 Q 0.531 865.230 6.427 863.856 Q 12.323 862.481 17.590 862.315 Q 22.857 862.148 27.364 863.628 "></path>
    <path id="STROKE_f58ce183-5ff8-4d19-b5b3-aa74b12f22ed" opacity="1.000" fill="none" stroke="#000000" stroke-width="1.980" stroke-opacity="1.000" stroke-linecap="round" stroke-linejoin="round" d="M 3.833 876.561 Q 6.028 876.829 28.764 878.628 "></path>
    <circle id="STROKE_264d6738-f932-4986-8505-686875d21124" opacity="1.000" fill="#000000" stroke="#000000" stroke-width="0.1" stroke-opacity="1.000" fill-opacity="1.000" cx="297.709" cy="892.939" r="0.945"></circle>
    <path id="STROKE_406e5bce-ec4e-4d7c-91c8-fc8d6e20a516" opacity="1.000" fill="none" stroke="#000000" stroke-width="2.700" stroke-opacity="1.000" stroke-linecap="round" stroke-linejoin="round" d="M 88.693 791.499 Q 90.385 790.112 103.782 789.067 Q 117.180 788.022 124.552 787.831 Q 131.925 787.640 135.219 787.400 Q 138.512 787.160 143.290 786.960 Q 148.067 786.759 150.790 786.959 Q 153.513 787.159 154.769 787.335 Q 156.026 787.512 158.820 788.032 "></path>
    <path id="STROKE_6c30dadd-ac9f-43c5-9b5a-4d24ef1da049" opacity="1.000" fill="none" stroke="#000000" stroke-width="2.700" stroke-opacity="1.000" stroke-linecap="round" stroke-linejoin="round" d="M 148.288 774.766 Q 148.704 775.108 152.453 776.764 Q 156.202 778.420 158.831 779.440 Q 161.460 780.459 164.220 781.989 Q 166.980 783.519 167.593 784.265 Q 168.207 785.010 168.337 786.568 Q 168.468 788.126 166.835 790.556 Q 165.202 792.986 160.991 795.969 Q 156.779 798.953 153.052 801.578 Q 149.326 804.203 147.829 805.330 Q 146.333 806.456 145.775 806.879 Q 145.217 807.302 145.105 807.409 Q 144.992 807.516 143.755 808.831 "></path>
    <path id="STROKE_ce03d7d2-7807-4db8-a1ae-1d5d7978080c" opacity="1.000" fill="none" stroke="#000000" stroke-width="1.891" stroke-opacity="1.000" stroke-linecap="round" stroke-linejoin="round" d="M 212.305 710.372 Q 212.652 708.615 212.809 706.285 Q 212.643 706.768 212.150 713.215 Q 211.657 719.661 211.334 725.294 Q 211.011 730.927 210.917 737.672 Q 210.822 744.417 210.885 748.133 Q 210.948 751.849 211.026 754.480 Q 211.103 757.112 210.906 761.291 Q 210.710 765.470 210.433 768.014 Q 210.156 770.558 210.402 773.077 "></path>
    <path id="STROKE_6d426c8d-9039-42c5-be33-c72ffdcbd148" opacity="1.000" fill="none" stroke="#000000" stroke-width="1.891" stroke-opacity="1.000" stroke-linecap="round" stroke-linejoin="round" d="M 210.290 770.390 Q 211.239 769.700 215.692 768.962 Q 220.145 768.224 227.437 768.482 Q 234.730 768.739 239.696 768.490 Q 244.661 768.241 249.130 767.901 Q 253.598 767.561 258.201 767.165 Q 262.804 766.770 269.368 766.798 Q 275.933 766.826 279.476 766.948 Q 283.019 767.071 287.483 767.713 Q 291.947 768.356 300.397 769.180 Q 308.846 770.004 315.487 770.118 Q 322.127 770.233 327.859 771.006 "></path>
    <path id="STROKE_7d8226e2-9f2d-4fbf-95c8-4e4702dbe836" opacity="1.000" fill="none" stroke="#000000" stroke-width="1.891" stroke-opacity="1.000" stroke-linecap="round" stroke-linejoin="round" d="M 323.660 763.279 Q 325.252 764.028 327.438 766.184 Q 329.624 768.340 330.961 770.294 Q 332.299 772.248 332.874 773.084 Q 333.449 773.921 333.805 774.781 Q 334.162 775.641 331.841 777.628 Q 329.520 779.615 326.454 781.244 Q 323.387 782.873 316.718 785.450 "></path>
    <path id="STROKE_35d69ac8-7b86-41a7-bb8a-f82f92ea5cb5" opacity="1.000" fill="none" stroke="#000000" stroke-width="1.891" stroke-opacity="1.000" stroke-linecap="round" stroke-linejoin="round" d="M 213.201 701.974 Q 213.316 702.008 203.236 718.294 L 203.292 718.322 Q 203.394 718.301 203.281 718.346 Q 203.167 718.391 203.696 718.018 Q 204.226 717.645 205.956 715.094 Q 207.685 712.542 210.163 708.095 Q 212.641 703.649 215.468 699.510 Q 215.764 699.220 216.261 702.710 Q 216.758 706.199 217.173 708.661 Q 217.588 711.123 218.987 712.759 Q 220.386 714.396 222.495 714.963 "></path>
    <path id="STROKE_8fef64bd-47cc-4ddf-8d69-f6de643f2aab" opacity="1.000" fill="none" stroke="#000000" stroke-width="1.891" stroke-opacity="1.000" stroke-linecap="round" stroke-linejoin="round" d="M 210.794 756.561 Q 211.725 756.417 213.976 755.465 Q 216.227 754.512 218.941 751.770 Q 221.656 749.027 223.583 746.709 Q 225.511 744.391 226.790 742.802 Q 228.070 741.213 228.705 740.552 Q 229.340 739.892 229.475 739.849 Q 229.610 739.806 230.782 738.575 Q 231.953 737.343 232.586 736.608 Q 233.218 735.873 234.485 734.591 Q 235.752 733.309 236.493 732.721 Q 237.235 732.134 237.557 731.851 Q 237.878 731.568 238.238 731.257 Q 238.598 730.946 238.664 730.883 Q 238.729 730.820 238.688 730.838 Q 238.647 730.856 238.760 730.863 Q 238.874 730.869 240.531 729.053 Q 242.187 727.236 243.102 726.317 Q 244.016 725.397 244.264 725.188 Q 244.513 724.979 244.443 725.033 Q 244.374 725.088 244.400 725.073 Q 244.425 725.057 244.418 725.060 Q 244.410 725.063 244.978 724.530 Q 245.546 723.998 245.463 724.070 Q 245.380 724.141 245.393 724.141 Q 245.406 724.140 245.568 723.970 Q 245.730 723.799 246.478 723.267 Q 247.225 722.735 247.624 722.568 Q 248.022 722.401 247.996 722.381 Q 248.700 721.772 248.584 721.849 Q 248.786 721.628 249.138 721.258 Q 249.490 720.888 249.772 720.699 Q 250.054 720.509 250.419 720.253 Q 250.783 719.997 250.856 719.965 Q 250.928 719.933 251.311 719.658 Q 251.693 719.383 251.956 719.178 Q 252.220 718.973 252.192 718.979 Q 252.164 718.984 252.181 718.976 Q 252.197 718.968 252.783 718.378 Q 253.379 718.899 255.045 720.832 Q 256.711 722.764 257.620 723.819 Q 258.529 724.875 259.048 725.273 Q 259.567 725.671 259.541 725.656 Q 259.514 725.640 259.651 725.780 Q 259.789 725.920 259.529 725.770 Q 259.269 725.620 261.245 726.690 Q 263.222 727.760 264.793 729.496 Q 266.365 731.232 267.029 732.118 Q 267.693 733.005 268.154 733.360 Q 268.615 733.715 268.797 733.895 Q 268.979 734.075 269.003 734.066 Q 269.028 734.058 268.941 734.013 Q 268.854 733.968 269.578 734.390 "></path>
    <path id="STROKE_bc0c3fa2-aa4b-497a-bea9-993cb8fce46e" opacity="1.000" fill="none" stroke="#000000" stroke-width="1.891" stroke-opacity="1.000" stroke-linecap="round" stroke-linejoin="round" d="M 270.754 735.118 Q 272.040 734.879 274.488 732.464 Q 276.937 730.049 279.033 728.321 Q 281.130 726.594 282.253 725.984 Q 283.377 725.375 284.333 724.774 Q 285.289 724.173 285.595 723.967 Q 285.901 723.762 286.164 723.464 Q 286.427 723.166 287.079 722.640 Q 287.732 722.114 288.436 721.472 Q 289.140 720.830 289.138 720.787 Q 289.136 720.744 289.542 720.467 Q 289.948 720.190 291.159 719.120 Q 292.370 718.050 293.198 717.195 Q 294.025 716.341 294.424 716.078 Q 294.823 715.815 294.952 715.700 Q 295.081 715.585 295.358 715.341 Q 295.634 715.096 295.726 715.024 Q 295.817 714.951 295.762 714.990 Q 295.708 715.028 295.742 715.005 Q 295.776 714.982 299.698 712.051 "></path>
    <path id="STROKE_5a189e1c-ae1a-45ce-a9ff-9174c6459892" opacity="1.000" fill="none" stroke="#000000" stroke-width="1.891" stroke-opacity="1.000" stroke-linecap="round" stroke-linejoin="round" d="M 298.019 711.827 Q 299.084 711.769 301.675 714.452 Q 304.266 717.135 306.847 719.725 Q 309.427 722.316 310.870 723.503 Q 312.313 724.690 312.969 725.265 Q 313.625 725.840 314.091 726.176 Q 314.558 726.513 314.368 726.305 Q 314.178 726.097 314.939 726.846 Q 315.700 727.596 316.198 728.262 Q 316.695 728.929 317.278 729.687 "></path>
    <path id="STROKE_ebe10efa-eaf9-42df-9bd6-b18c523ecf95" opacity="1.000" fill="none" stroke="#000000" stroke-width="1.891" stroke-opacity="1.000" stroke-linecap="round" stroke-linejoin="round" d="M 221.662 837.880 Q 221.626 838.134 224.749 838.117 Q 227.872 838.100 229.940 837.830 Q 232.009 837.560 232.892 837.453 Q 233.775 837.345 235.461 837.273 Q 237.146 837.201 238.123 837.093 Q 239.100 836.986 239.573 836.848 Q 240.047 836.710 240.234 836.696 Q 240.422 836.682 240.467 836.679 Q 240.511 836.676 240.446 836.694 Q 240.380 836.713 240.908 836.605 Q 241.437 836.498 242.095 836.407 Q 242.753 836.317 243.897 836.532 Q 245.040 836.747 245.720 836.901 Q 246.399 837.055 246.662 837.088 Q 246.925 837.121 246.836 837.100 Q 246.746 837.079 247.140 837.136 Q 247.534 837.194 248.506 837.341 Q 249.478 837.489 250.012 837.492 Q 250.547 837.494 251.068 837.370 Q 251.590 837.245 251.833 837.224 Q 252.076 837.203 252.551 837.589 "></path>
    <path id="STROKE_fbcca2d6-0f6f-449c-bb47-1a546497e221" opacity="1.000" fill="none" stroke="#000000" stroke-width="1.891" stroke-opacity="1.000" stroke-linecap="round" stroke-linejoin="round" d="M 275.872 838.025 Q 275.938 837.991 277.512 838.132 Q 279.086 838.273 282.293 837.884 Q 285.499 837.494 287.627 837.331 Q 289.755 837.168 290.590 837.334 Q 291.425 837.501 293.443 837.391 Q 295.460 837.281 297.647 837.158 Q 299.834 837.035 300.971 836.954 Q 302.108 836.874 302.596 836.930 Q 303.084 836.987 303.490 837.020 Q 303.896 837.053 304.250 837.008 Q 304.604 836.964 306.034 836.825 "></path>
    <path id="STROKE_a99f204b-c43d-4620-a6f6-2a6ea209f604" opacity="1.000" fill="none" stroke="#000000" stroke-width="1.891" stroke-opacity="1.000" stroke-linecap="round" stroke-linejoin="round" d="M 223.554 855.854 Q 224.216 855.421 231.129 854.818 Q 238.042 854.215 241.609 853.865 Q 245.176 853.516 246.967 853.398 Q 248.757 853.279 250.186 853.561 "></path>
    <path id="STROKE_52e79df5-171a-4a34-b102-0fd003e0ebe5" opacity="1.000" fill="none" stroke="#000000" stroke-width="1.891" stroke-opacity="1.000" stroke-linecap="round" stroke-linejoin="round" d="M 279.802 854.216 Q 279.789 853.958 285.262 853.502 Q 290.735 853.046 299.667 852.943 "></path>
    <path id="STROKE_4179c3a6-98bb-42ea-8050-c032b12da0f1" opacity="1.000" fill="none" stroke="#000000" stroke-width="1.891" stroke-opacity="1.000" stroke-linecap="round" stroke-linejoin="round" d="M 231.413 872.772 Q 232.189 872.444 236.828 871.890 Q 241.466 871.337 248.876 871.280 "></path>
    <path id="STROKE_9c4a37ee-0ce3-439d-b061-c703d7f5eb2c" opacity="1.000" fill="none" stroke="#000000" stroke-width="1.891" stroke-opacity="1.000" stroke-linecap="round" stroke-linejoin="round" d="M 266.122 832.568 Q 266.112 833.018 265.829 837.898 Q 265.546 842.778 265.342 845.468 Q 265.137 848.157 265.300 850.495 Q 265.463 852.832 265.449 854.741 Q 265.435 856.649 265.622 859.928 Q 265.809 863.208 266.123 866.814 Q 266.437 870.420 266.709 874.542 Q 266.980 878.663 266.954 880.995 Q 266.927 883.326 267.226 886.004 Q 267.526 888.681 267.624 890.887 Q 267.721 893.093 267.504 895.803 "></path>
    <path id="STROKE_509e7f59-3ec6-4b89-ac52-471192d0f28f" opacity="1.000" fill="none" stroke="#000000" stroke-width="1.891" stroke-opacity="1.000" stroke-linecap="round" stroke-linejoin="round" d="M 230.976 886.270 Q 229.904 885.962 225.155 887.016 Q 224.825 887.280 228.130 886.818 Q 231.435 886.355 235.372 886.209 Q 239.309 886.063 241.126 886.187 Q 242.943 886.311 245.418 885.800 Q 247.893 885.289 249.463 885.089 Q 251.033 884.889 252.151 884.997 "></path>
    <path id="STROKE_775fa01a-031a-476a-84e2-d5bd11d07d4d" opacity="1.000" fill="none" stroke="#000000" stroke-width="1.891" stroke-opacity="1.000" stroke-linecap="round" stroke-linejoin="round" d="M 278.310 886.270 Q 278.750 885.809 282.242 885.813 Q 285.735 885.818 289.357 885.721 Q 292.979 885.625 294.671 885.380 Q 296.363 885.135 298.780 884.866 Q 301.197 884.597 305.597 884.378 "></path>
    <path id="STROKE_495cf896-cf4d-4940-90e6-90ec2894b7cc" opacity="1.000" fill="none" stroke="#000000" stroke-width="1.891" stroke-opacity="1.000" stroke-linecap="round" stroke-linejoin="round" d="M 281.148 869.134 Q 281.626 868.883 287.157 868.838 Q 292.688 868.794 296.175 868.811 Q 299.663 868.828 302.250 869.024 "></path>
    <path id="STROKE_ee01293e-22ac-461c-a728-4e62565de5cc" opacity="1.000" fill="none" stroke="#000000" stroke-width="1.891" stroke-opacity="1.000" stroke-linecap="round" stroke-linejoin="round" d="M 219.516 899.005 Q 219.970 898.842 226.009 898.440 Q 232.049 898.039 235.672 897.650 Q 239.295 897.261 243.087 897.488 Q 246.879 897.715 250.665 897.588 Q 254.451 897.461 257.500 897.274 Q 260.548 897.087 262.573 897.053 Q 264.597 897.019 268.033 896.975 Q 271.468 896.932 273.363 896.899 Q 275.257 896.866 277.408 896.802 Q 279.558 896.738 280.634 896.662 Q 281.709 896.586 283.498 896.123 Q 285.286 895.661 287.066 895.603 Q 288.846 895.545 289.775 895.679 Q 290.704 895.814 292.279 895.456 Q 293.853 895.099 295.028 895.045 Q 296.203 894.992 297.005 895.121 Q 297.808 895.250 298.944 895.168 Q 300.079 895.086 300.761 895.026 Q 301.442 894.966 301.818 894.923 Q 302.194 894.881 302.608 894.825 Q 303.022 894.770 303.212 894.734 Q 303.403 894.697 303.572 894.649 Q 303.740 894.601 303.960 894.754 Q 304.179 894.907 305.762 895.137 Q 307.344 895.366 309.192 895.017 Q 311.040 894.667 314.693 894.675 "></path>
    <path id="STROKE_6ba9dae6-6b6b-407b-ba6b-e05f6bc5a975" opacity="1.000" fill="none" stroke="#000000" stroke-width="1.891" stroke-opacity="1.000" stroke-linecap="round" stroke-linejoin="round" d="M 282.276 906.573 Q 283.025 905.957 288.537 905.816 Q 294.049 905.675 298.027 905.352 Q 302.004 905.028 304.505 904.747 Q 307.007 904.466 309.017 904.244 "></path>
    <path id="STROKE_7cbae723-5c46-4389-9dd4-714a02676639" opacity="1.000" fill="none" stroke="#000000" stroke-width="1.891" stroke-opacity="1.000" stroke-linecap="round" stroke-linejoin="round" d="M 216.314 846.139 Q 216.876 846.072 218.562 846.042 Q 220.249 846.011 223.243 846.045 Q 226.238 846.078 230.437 846.076 Q 234.636 846.073 236.983 846.169 Q 239.330 846.265 242.991 846.081 Q 246.652 845.897 250.908 846.028 Q 255.164 846.160 259.126 846.257 Q 263.087 846.354 265.305 846.239 Q 267.523 846.125 269.657 846.268 Q 271.792 846.412 274.735 846.313 Q 277.678 846.214 281.978 846.286 Q 286.278 846.359 288.472 846.395 Q 290.667 846.430 291.501 846.476 Q 292.334 846.521 293.901 846.673 Q 295.468 846.824 297.050 846.864 Q 298.633 846.904 300.357 846.674 Q 302.081 846.444 302.992 846.439 Q 303.903 846.433 305.284 846.257 Q 306.665 846.080 308.750 846.612 Q 310.836 847.144 313.274 847.194 "></path>
    <path id="STROKE_5deae44f-b79c-47cc-a33d-548d9e49ed45" opacity="1.000" fill="none" stroke="#000000" stroke-width="1.891" stroke-opacity="1.000" stroke-linecap="round" stroke-linejoin="round" d="M 213.476 830.421 Q 213.490 830.650 215.940 830.856 Q 218.391 831.061 220.073 831.155 Q 221.755 831.249 223.735 830.910 Q 225.715 830.571 234.624 829.960 Q 243.533 829.349 248.010 829.253 Q 252.487 829.158 255.594 828.614 Q 258.702 828.070 263.723 827.972 Q 268.743 827.874 271.362 828.042 Q 273.980 828.209 276.023 827.999 Q 278.067 827.788 280.074 827.838 Q 282.082 827.888 283.862 828.204 Q 285.642 828.521 287.468 828.758 Q 289.294 828.996 291.388 829.121 Q 293.481 829.247 294.493 829.417 Q 295.504 829.587 297.430 829.190 Q 299.356 828.792 301.648 828.938 Q 303.939 829.083 305.117 829.256 Q 306.295 829.428 307.273 829.522 Q 308.251 829.616 308.965 829.857 Q 309.680 830.097 310.582 829.912 Q 311.484 829.727 312.182 829.857 L 312.182 829.875 "></path>
    <path id="STROKE_e5feb106-4d88-4c21-8ef1-1adec435c59c" opacity="1.000" fill="none" stroke="#000000" stroke-width="1.891" stroke-opacity="1.000" stroke-linecap="round" stroke-linejoin="round" d="M 312.655 831.258 Q 313.092 831.519 313.176 835.411 Q 313.260 839.304 313.251 841.712 Q 313.243 844.119 313.346 845.884 "></path>
    <path id="STROKE_6fc0125d-cb93-4e7e-b07a-2ca89c18e492" opacity="1.000" fill="none" stroke="#000000" stroke-width="1.891" stroke-opacity="1.000" stroke-linecap="round" stroke-linejoin="round" d="M 212.967 831.076 Q 213.146 831.414 213.450 833.941 Q 213.754 836.469 213.784 837.898 Q 213.814 839.328 214.109 839.861 Q 214.403 840.393 214.610 842.032 Q 214.817 843.671 214.725 845.021 Q 214.633 846.371 214.562 847.128 Q 214.491 847.885 214.317 849.021 Q 214.142 850.156 214.019 851.396 Q 213.895 852.636 213.756 853.256 Q 213.618 853.877 213.945 858.015 Q 214.272 862.153 214.463 864.672 Q 214.655 867.191 215.085 870.036 Q 215.515 872.880 215.771 874.059 Q 216.028 875.238 216.047 875.836 Q 216.066 876.434 216.042 878.344 Q 216.018 880.254 216.365 883.373 Q 216.712 886.491 216.769 889.178 Q 216.827 891.864 216.673 893.186 Q 216.520 894.509 216.825 895.506 Q 217.130 896.504 217.786 897.292 Q 218.442 898.080 218.715 899.405 "></path>
    <path id="STROKE_d77ced88-96a1-4cde-9e98-115fff9a02e9" opacity="1.000" fill="none" stroke="#000000" stroke-width="1.891" stroke-opacity="1.000" stroke-linecap="round" stroke-linejoin="round" d="M 312.764 847.631 Q 311.697 848.417 311.764 853.252 Q 311.830 858.086 312.050 860.539 Q 312.271 862.992 312.219 864.193 Q 312.167 865.393 312.355 866.634 Q 312.542 867.874 312.921 870.929 Q 313.299 873.984 313.722 876.009 Q 314.145 878.033 314.332 879.379 Q 314.518 880.725 314.452 881.858 Q 314.386 882.991 314.500 884.062 Q 314.614 885.134 314.670 887.332 Q 314.727 889.530 314.773 890.631 Q 314.820 891.732 315.013 892.795 Q 315.207 893.857 315.566 895.002 "></path>
    <path id="STROKE_75efc81b-7499-4c7a-8096-573bb4475330" opacity="1.000" fill="none" stroke="#000000" stroke-width="2.700" stroke-opacity="1.000" stroke-linecap="round" stroke-linejoin="round" d="M 89.040 743.441 Q 89.079 743.660 89.481 746.258 Q 89.883 748.855 90.003 750.309 Q 90.122 751.763 90.089 753.993 Q 90.055 756.222 88.780 761.227 "></path>
    <path id="STROKE_5cf777ae-73c4-4667-9c7f-24ea842f493e" opacity="1.000" fill="none" stroke="#000000" stroke-width="2.700" stroke-opacity="1.000" stroke-linecap="round" stroke-linejoin="round" d="M 88.055 743.648 Q 88.597 743.607 91.169 742.649 Q 93.740 741.691 95.423 740.844 Q 97.106 739.998 98.159 739.628 Q 99.212 739.258 99.820 739.134 Q 100.428 739.011 101.381 738.956 "></path>
    <path id="STROKE_7225014c-ee56-4900-97ac-5f0252fa94a5" opacity="1.000" fill="none" stroke="#000000" stroke-width="2.700" stroke-opacity="1.000" stroke-linecap="round" stroke-linejoin="round" d="M 90.025 752.490 Q 90.203 752.335 91.981 751.190 Q 93.759 750.045 95.051 749.360 Q 96.342 748.675 98.218 748.082 "></path>
    <path id="STROKE_8487a522-17ad-4ea6-a3d9-65f6feacf704" opacity="1.000" fill="none" stroke="#000000" stroke-width="2.700" stroke-opacity="1.000" stroke-linecap="round" stroke-linejoin="round" d="M 105.685 747.097 Q 105.308 747.280 104.923 747.429 Q 104.537 747.578 103.763 749.000 Q 102.989 750.423 102.690 751.767 Q 102.391 753.111 102.473 754.413 Q 102.556 755.715 102.770 756.317 Q 102.985 756.919 103.228 757.222 Q 103.471 757.526 103.692 757.650 Q 103.913 757.774 104.609 757.879 Q 105.305 757.984 107.106 756.874 Q 108.907 755.764 110.100 754.669 Q 111.293 753.574 112.113 752.404 Q 112.933 751.234 113.181 750.497 Q 113.429 749.759 113.428 749.436 Q 113.426 749.113 113.224 748.772 Q 113.023 748.431 111.144 748.321 Q 109.265 748.212 106.281 748.938 "></path>
    <path id="STROKE_4cb62b1d-fdfe-4352-862f-88572b886362" opacity="1.000" fill="none" stroke="#000000" stroke-width="2.700" stroke-opacity="1.000" stroke-linecap="round" stroke-linejoin="round" d="M 113.566 748.627 Q 113.719 749.126 114.276 751.959 Q 114.833 754.792 114.445 757.488 Q 114.276 757.292 114.097 756.297 Q 113.918 755.302 114.195 753.461 Q 114.471 751.620 115.105 750.107 Q 115.739 748.594 116.365 747.748 Q 116.992 746.901 117.458 746.461 Q 117.924 746.020 118.400 745.764 Q 118.876 745.507 119.221 745.473 Q 119.566 745.440 119.888 745.579 Q 120.211 745.719 120.386 746.096 Q 120.562 746.474 120.592 746.758 Q 120.623 747.043 120.416 748.127 Q 120.210 749.210 119.041 750.916 Q 117.872 752.622 117.095 754.105 Q 117.134 754.503 118.861 755.527 Q 120.588 756.551 123.730 757.157 "></path>
    <path id="STROKE_39c83d12-04dd-48cf-9704-394ac284f92e" opacity="1.000" fill="none" stroke="#000000" stroke-width="2.700" stroke-opacity="1.000" stroke-linecap="round" stroke-linejoin="round" d="M 143.590 747.382 Q 143.616 747.621 143.274 749.820 Q 142.932 752.018 142.004 754.225 Q 141.076 756.431 140.458 757.536 Q 139.841 758.640 139.104 759.441 Q 139.068 759.374 139.780 757.366 Q 140.493 755.358 141.491 752.909 Q 142.489 750.459 143.340 748.859 Q 144.192 747.259 145.084 746.527 Q 145.683 746.553 146.731 747.603 Q 147.780 748.653 148.689 750.508 Q 149.598 752.363 150.122 753.572 Q 150.647 754.781 151.192 756.190 Q 151.737 757.599 152.085 758.844 Q 152.432 760.088 153.105 762.264 "></path>
    <path id="STROKE_e3f5a833-0ab9-4d74-9f74-9209a7418e79" opacity="1.000" fill="none" stroke="#000000" stroke-width="2.700" stroke-opacity="1.000" stroke-linecap="round" stroke-linejoin="round" d="M 141.956 755.938 Q 143.070 755.492 144.510 755.107 Q 145.949 754.722 152.068 754.460 "></path>
    <path id="STROKE_effb6331-5093-4bc6-a5c6-9470140571e0" opacity="1.000" fill="none" stroke="#000000" stroke-width="2.700" stroke-opacity="1.000" stroke-linecap="round" stroke-linejoin="round" d="M 153.597 749.327 Q 154.068 749.378 155.658 749.267 Q 157.248 749.156 160.442 748.134 "></path>
    <path id="STROKE_6d41f6b9-b2c1-4d9a-a23a-1e0ebfc59965" opacity="1.000" fill="none" stroke="#000000" stroke-width="2.700" stroke-opacity="1.000" stroke-linecap="round" stroke-linejoin="round" d="M 156.709 751.064 Q 156.723 751.716 156.704 754.150 Q 156.685 756.583 156.501 761.720 "></path>
    <path id="STROKE_d5f70d6b-a370-4efb-8925-cf41b719843a" opacity="1.000" fill="none" stroke="#000000" stroke-width="2.700" stroke-opacity="1.000" stroke-linecap="round" stroke-linejoin="round" d="M 161.972 749.171 Q 162.464 749.158 164.427 749.224 Q 166.391 749.289 168.375 749.198 Q 170.360 749.107 172.809 749.249 "></path>
    <path id="STROKE_8a35a242-7b44-4b5b-ad9a-946b6a1c4029" opacity="1.000" fill="none" stroke="#000000" stroke-width="2.700" stroke-opacity="1.000" stroke-linecap="round" stroke-linejoin="round" d="M 166.794 750.804 Q 166.702 751.466 165.993 754.479 Q 165.284 757.493 164.902 761.176 "></path>
    <path id="STROKE_a577662d-89b1-4280-aa5c-d8663a692f08" opacity="1.000" fill="none" stroke="#000000" stroke-width="2.700" stroke-opacity="1.000" stroke-linecap="round" stroke-linejoin="round" d="M 173.068 755.757 Q 173.066 757.080 173.082 759.371 Q 173.101 759.372 173.231 758.118 Q 173.361 756.865 173.678 755.417 Q 173.994 753.968 174.717 752.577 Q 175.439 751.187 176.470 750.172 Q 177.502 749.157 178.220 748.793 Q 178.938 748.429 179.464 748.424 Q 179.990 748.420 180.924 748.964 "></path>
    <path id="STROKE_90a9cc2c-c063-4818-84ca-40c58d71e957" opacity="1.000" fill="none" stroke="#000000" stroke-width="2.700" stroke-opacity="1.000" stroke-linecap="round" stroke-linejoin="round" d="M 175.194 755.031 Q 175.779 754.898 176.776 754.694 "></path>
    <path id="STROKE_f7f6175b-4a36-47aa-a443-3dcf703ba3fb" opacity="1.000" fill="none" stroke="#000000" stroke-width="2.700" stroke-opacity="1.000" stroke-linecap="round" stroke-linejoin="round" d="M 172.083 761.357 Q 172.370 761.419 179.809 759.853 "></path>
    <path id="STROKE_cb7aa81a-bd60-4420-b96f-dd88a486ef61" opacity="1.000" fill="none" stroke="#000000" stroke-width="2.700" stroke-opacity="1.000" stroke-linecap="round" stroke-linejoin="round" d="M 183.673 750.960 Q 183.763 751.334 184.116 753.383 Q 184.470 755.433 184.472 756.595 Q 184.475 757.758 184.358 758.355 Q 184.240 758.953 183.901 759.310 Q 183.819 759.345 183.511 758.588 Q 183.204 757.831 183.228 756.636 Q 183.253 755.442 183.612 754.379 Q 183.971 753.316 184.511 752.523 Q 185.052 751.729 185.701 751.235 Q 186.351 750.742 186.805 750.563 Q 187.259 750.384 187.988 750.414 Q 188.718 750.444 189.244 750.641 Q 189.770 750.838 190.218 751.261 Q 190.666 751.683 190.948 752.299 Q 191.229 752.915 191.195 753.902 Q 191.160 754.889 190.799 755.761 Q 190.438 756.633 189.634 757.533 Q 188.831 758.433 187.667 759.036 Q 186.503 759.640 184.269 759.983 "></path>
    <path id="STROKE_aedbec3b-9a5c-4c62-91a3-2314bc705f42" opacity="1.000" fill="none" stroke="#000000" stroke-width="2.700" stroke-opacity="1.000" stroke-linecap="round" stroke-linejoin="round" d="M 92.799 815.727 Q 93.139 816.464 93.420 819.412 Q 93.700 822.361 93.544 824.380 Q 93.388 826.400 93.084 832.295 "></path>
    <path id="STROKE_36eaee1c-32a0-4cad-98e7-2e897781ffaa" opacity="1.000" fill="none" stroke="#000000" stroke-width="2.700" stroke-opacity="1.000" stroke-linecap="round" stroke-linejoin="round" d="M 102.159 818.009 Q 102.305 818.544 102.127 822.978 Q 101.948 827.411 101.394 830.773 Q 101.366 830.750 101.417 828.912 Q 101.468 827.074 101.454 824.797 Q 101.439 822.520 101.420 821.302 Q 101.401 820.085 101.825 819.083 Q 101.846 819.060 101.980 819.169 Q 102.115 819.278 102.498 819.968 Q 102.881 820.657 103.486 822.267 Q 104.090 823.876 104.567 825.333 Q 105.044 826.789 105.650 828.037 Q 106.257 829.285 107.061 830.270 Q 107.865 831.255 108.556 831.670 Q 109.247 832.085 109.776 832.164 Q 110.305 832.243 111.010 831.798 Q 111.715 831.352 112.245 828.613 Q 112.775 825.874 112.805 823.019 Q 112.836 820.164 112.751 818.610 Q 112.667 817.057 112.503 815.623 "></path>
    <path id="STROKE_6fc15e42-e1a0-41ac-b237-7256ec8b958a" opacity="1.000" fill="none" stroke="#000000" stroke-width="2.700" stroke-opacity="1.000" stroke-linecap="round" stroke-linejoin="round" d="M 125.337 817.283 Q 125.018 817.409 123.688 818.044 Q 122.358 818.680 121.327 819.579 Q 120.296 820.477 119.927 821.146 Q 119.558 821.814 119.513 822.135 Q 119.467 822.456 119.582 822.873 Q 119.697 823.291 120.089 823.680 Q 120.482 824.068 122.148 824.512 Q 123.814 824.955 125.096 825.203 Q 126.378 825.450 127.145 825.786 Q 127.913 826.123 128.356 826.485 Q 128.799 826.846 129.099 827.456 Q 129.399 828.066 129.251 828.801 Q 129.104 829.537 128.539 830.319 Q 127.975 831.102 126.889 831.835 Q 125.804 832.568 124.804 832.872 Q 123.804 833.176 122.503 833.106 Q 121.203 833.036 119.504 832.295 "></path>
    <path id="STROKE_7e13197e-5728-4995-8ea7-718cd74c9086" opacity="1.000" fill="none" stroke="#000000" stroke-width="2.700" stroke-opacity="1.000" stroke-linecap="round" stroke-linejoin="round" d="M 133.219 818.190 Q 133.321 818.604 133.595 821.385 Q 133.869 824.166 133.838 825.992 Q 133.806 827.817 133.799 829.103 Q 133.792 830.388 133.815 831.699 "></path>
    <path id="STROKE_d8942f15-a7d4-4f10-961c-ad0b6045c35c" opacity="1.000" fill="none" stroke="#000000" stroke-width="2.700" stroke-opacity="1.000" stroke-linecap="round" stroke-linejoin="round" d="M 142.838 819.305 Q 142.486 819.878 141.632 821.826 Q 140.777 823.774 140.414 825.412 Q 140.051 827.051 140.055 827.980 Q 140.059 828.909 140.229 829.355 Q 140.400 829.801 140.702 830.097 Q 141.004 830.393 141.609 830.551 Q 142.214 830.708 143.102 830.486 Q 143.990 830.264 144.920 829.441 Q 145.851 828.619 146.136 828.065 Q 146.420 827.512 146.461 827.234 Q 146.501 826.957 146.454 826.790 Q 146.407 826.624 146.334 826.524 Q 146.262 826.423 146.228 826.413 Q 146.194 826.404 146.135 826.335 Q 146.076 826.266 142.786 826.383 "></path>
    <path id="STROKE_989e4df2-3e55-4e69-860b-7af518d1859b" opacity="1.000" fill="none" stroke="#000000" stroke-width="2.700" stroke-opacity="1.000" stroke-linecap="round" stroke-linejoin="round" d="M 149.501 819.383 Q 150.158 820.261 150.874 822.496 Q 151.590 824.731 151.497 831.750 "></path>
    <path id="STROKE_fe075358-7101-4b06-a5ed-fe640b40d75f" opacity="1.000" fill="none" stroke="#000000" stroke-width="2.700" stroke-opacity="1.000" stroke-linecap="round" stroke-linejoin="round" d="M 156.812 819.772 Q 156.972 820.216 157.834 823.601 Q 158.696 826.986 159.379 831.206 "></path>
    <path id="STROKE_4451a182-74e9-46e4-a99c-cf5233e79ad8" opacity="1.000" fill="none" stroke="#000000" stroke-width="2.700" stroke-opacity="1.000" stroke-linecap="round" stroke-linejoin="round" d="M 150.538 826.746 Q 150.776 826.708 153.236 825.924 Q 155.695 825.140 158.575 824.309 "></path>
    <path id="STROKE_1481d7b0-2c81-4f58-ae8f-b41c41dd9bdc" opacity="1.000" fill="none" stroke="#000000" stroke-width="2.700" stroke-opacity="1.000" stroke-linecap="round" stroke-linejoin="round" d="M 160.312 821.405 Q 160.389 821.317 163.354 820.056 Q 166.318 818.794 170.968 817.879 "></path>
    <path id="STROKE_a28ff4cc-0c8c-4819-8d2c-29aac670e042" opacity="1.000" fill="none" stroke="#000000" stroke-width="2.700" stroke-opacity="1.000" stroke-linecap="round" stroke-linejoin="round" d="M 165.213 819.616 Q 165.943 820.219 166.779 821.159 Q 167.616 822.099 167.572 829.624 "></path>
    <path id="STROKE_b30b4884-2780-4371-88d2-ea5cf34b6ef5" opacity="1.000" fill="none" stroke="#000000" stroke-width="2.700" stroke-opacity="1.000" stroke-linecap="round" stroke-linejoin="round" d="M 175.713 818.579 Q 175.446 818.657 174.832 818.922 Q 174.217 819.186 173.568 819.977 Q 172.919 820.769 172.860 821.091 Q 172.801 821.413 172.860 821.610 Q 172.920 821.806 173.006 821.954 Q 173.092 822.102 173.324 822.383 Q 173.557 822.664 174.869 823.040 Q 176.181 823.416 177.116 823.581 Q 178.050 823.745 178.813 824.110 Q 179.577 824.475 180.019 824.863 Q 180.460 825.251 180.668 825.872 Q 180.875 826.493 180.776 827.315 Q 180.676 828.137 180.061 829.094 Q 179.445 830.052 178.296 830.786 Q 177.147 831.521 175.736 831.893 Q 174.324 832.265 171.331 831.595 "></path>
    <path id="STROKE_12ca2f9a-a280-4903-a6b3-44c000a1d687" opacity="1.000" fill="none" stroke="#000000" stroke-width="2.700" stroke-opacity="1.000" stroke-linecap="round" stroke-linejoin="round" d="M 125.987 748.009 Q 126.334 748.492 126.596 748.853 Q 126.857 749.213 127.076 750.776 Q 127.294 752.339 127.253 753.422 Q 127.212 754.505 127.076 755.409 Q 126.939 756.312 126.877 756.684 Q 126.815 757.056 126.813 757.203 Q 126.812 757.350 126.840 757.447 Q 126.868 757.543 127.036 758.053 "></path>
    <path id="STROKE_bbc80d33-3179-4200-a9c8-83cc4cbb1c0e" opacity="1.000" fill="none" stroke="#000000" stroke-width="2.700" stroke-opacity="1.000" stroke-linecap="round" stroke-linejoin="round" d="M 126.145 746.523 Q 126.328 746.894 126.983 747.852 Q 127.638 748.809 128.352 749.497 Q 129.066 750.184 129.708 750.484 Q 130.350 750.783 130.802 750.813 Q 131.254 750.843 131.512 750.790 Q 131.770 750.737 131.902 750.661 Q 132.034 750.586 132.093 750.559 Q 132.153 750.531 132.611 750.130 Q 133.070 749.729 133.581 749.265 Q 134.092 748.800 134.356 748.622 Q 134.621 748.445 134.807 748.340 Q 134.993 748.235 135.277 748.296 Q 135.561 748.356 135.514 749.822 Q 135.466 751.288 135.357 752.437 Q 135.249 753.585 135.733 759.162 "></path>
    <path id="STROKE_c86c1a9a-94a6-486e-81bd-0859464166fd" opacity="1.000" fill="none" stroke="#000000" stroke-width="2.700" stroke-opacity="1.000" stroke-linecap="round" stroke-linejoin="round" d="M 156.168 749.275 Q 156.221 749.651 156.325 750.315 "></path>
    <path id="STROKE_a101829e-27d9-4677-92fa-73d88974764e" opacity="1.000" fill="none" stroke="#000000" stroke-width="2.700" stroke-opacity="1.000" stroke-linecap="round" stroke-linejoin="round" d="M 156.364 749.432 Q 156.420 749.832 156.404 752.768 "></path>
    <path id="STROKE_3e536929-8ce4-48b9-b1fc-6b065eab0041" opacity="1.000" fill="none" stroke="#000000" stroke-width="2.700" stroke-opacity="1.000" stroke-linecap="round" stroke-linejoin="round" d="M 156.541 750.629 Q 156.570 750.369 156.698 748.902 "></path>
    <path id="STROKE_fd9dcf0f-a45b-4834-af41-820cde87b94a" opacity="1.000" fill="none" stroke="#000000" stroke-width="2.700" stroke-opacity="1.000" stroke-linecap="round" stroke-linejoin="round" d="M 156.580 751.924 Q 156.628 751.700 156.760 751.251 Q 156.891 750.801 156.973 749.668 "></path>
    <path id="STROKE_09f973e2-aa17-4a16-8aec-52ed6709cff9" opacity="1.000" fill="none" stroke="#000000" stroke-width="2.700" stroke-opacity="1.000" stroke-linecap="round" stroke-linejoin="round" d="M 165.979 751.708 Q 166.169 751.197 166.292 750.843 Q 166.414 750.489 166.822 749.118 "></path>
    <path id="STROKE_ff86f9e9-a0f3-409c-9ffd-a587ac0c1b18" opacity="1.000" fill="none" stroke="#000000" stroke-width="2.700" stroke-opacity="1.000" stroke-linecap="round" stroke-linejoin="round" d="M 166.469 751.728 Q 166.703 751.186 167.234 749.785 "></path>
  </g>
</svg>